<svg xmlns="http://www.w3.org/2000/svg" xmlns:xlink="http://www.w3.org/1999/xlink" width="124.943" height="111.726" viewBox="0 0 124.943 111.726">
  <defs>
    <filter id="Elipse_12607" x="54.072" y="40.854" width="70.871" height="70.871" filterUnits="userSpaceOnUse">
      <feOffset dy="3" input="SourceAlpha"/>
      <feGaussianBlur stdDeviation="3" result="blur"/>
      <feFlood flood-opacity="0.161"/>
      <feComposite operator="in" in2="blur"/>
      <feComposite in="SourceGraphic"/>
    </filter>
    <filter id="Elipse_12608" x="0" y="0" width="56.451" height="56.451" filterUnits="userSpaceOnUse">
      <feOffset dy="3" input="SourceAlpha"/>
      <feGaussianBlur stdDeviation="3" result="blur-2"/>
      <feFlood flood-opacity="0.161"/>
      <feComposite operator="in" in2="blur-2"/>
      <feComposite in="SourceGraphic"/>
    </filter>
  </defs>
  <g id="Grupo_1203880" data-name="Grupo 1203880" transform="translate(235.272 9809.633)">
    <g id="Grupo_1203819" data-name="Grupo 1203819" transform="translate(-1026.272 -12352.867)">
      <g id="Grupo_1203357" data-name="Grupo 1203357" transform="translate(800 2549.234)">
        <g transform="matrix(1, 0, 0, 1, -9, -6)" filter="url(#Elipse_12607)">
          <circle id="Elipse_12607-2" data-name="Elipse 12607" cx="26.435" cy="26.435" r="26.435" transform="translate(63.07 46.85)" fill="#ff9800"/>
        </g>
        <g transform="matrix(1, 0, 0, 1, -9, -6)" filter="url(#Elipse_12608)">
          <circle id="Elipse_12608-2" data-name="Elipse 12608" cx="19.226" cy="19.226" r="19.226" transform="translate(9 6)" fill="#ff9800"/>
        </g>
      </g>
    </g>
    <g id="personal" transform="translate(-209.969 -9796.132)">
      <path id="Trazado_1262341" data-name="Trazado 1262341" d="M18.928,36,9.1,38.268a7.6,7.6,0,0,0-5.891,7.4L2,65.02H47.949L46.739,45.673a7.6,7.6,0,0,0-5.891-7.4L31.02,36Z" transform="translate(0.209 6.903)" fill="#c8c8c8"/>
      <path id="Trazado_1262342" data-name="Trazado 1262342" d="M40.012,38.268,30.183,36H22.928L13.1,38.268a7.6,7.6,0,0,0-5.891,7.4L6,65.02H47.112L45.9,45.673a7.6,7.6,0,0,0-5.891-7.4Z" transform="translate(1.046 6.903)" fill="#dcdcdc"/>
      <path id="Trazado_1262343" data-name="Trazado 1262343" d="M25.255,63.347,22.837,44H20.418L18,63.347Z" transform="translate(3.556 8.576)" fill="#ee8382"/>
      <path id="Trazado_1262344" data-name="Trazado 1262344" d="M8,48h2.418V62.51H8Z" transform="translate(1.464 9.413)" fill="#b4b4b4"/>
      <path id="Trazado_1262345" data-name="Trazado 1262345" d="M32,48h2.418V62.51H32Z" transform="translate(6.484 9.413)" fill="#b4b4b4"/>
      <path id="Trazado_1262346" data-name="Trazado 1262346" d="M9,23.347V12.464A8.464,8.464,0,0,1,17.464,4H28.347a4.837,4.837,0,0,1,4.837,4.837h0a4.835,4.835,0,0,1,4.835,4.835V24.556" transform="translate(1.673 0.209)" fill="#3f4042"/>
      <path id="Trazado_1262347" data-name="Trazado 1262347" d="M37.6,13.672a4.835,4.835,0,0,0-4.835-4.835h0A4.837,4.837,0,0,0,27.928,4H17.046A8.419,8.419,0,0,0,12.4,5.4a8.419,8.419,0,0,0-1.4,4.65A12.092,12.092,0,0,0,23.092,22.138H37.6Z" transform="translate(2.092 0.209)" fill="#5a5b5d"/>
      <g id="Grupo_1203879" data-name="Grupo 1203879" transform="translate(9.464 16.301)">
        <path id="Trazado_1262348" data-name="Trazado 1262348" d="M33.765,17.628V27.3A10.883,10.883,0,0,1,12,27.3V17.628h8.941A8.148,8.148,0,0,0,27.719,14Z" transform="translate(-7.163 -14)" fill="#edb8ac"/>
        <path id="Trazado_1262349" data-name="Trazado 1262349" d="M12.837,18H11.628a3.628,3.628,0,1,0,0,7.255h1.209" transform="translate(-8 -13.163)" fill="#edb8ac"/>
        <path id="Trazado_1262350" data-name="Trazado 1262350" d="M30.418,18h1.209a3.628,3.628,0,1,1,0,7.255H28" transform="translate(-3.817 -13.163)" fill="#edb8ac"/>
      </g>
      <path id="Trazado_1262351" data-name="Trazado 1262351" d="M26.673,40.418l-3.628,4.837H20.628L17,40.418,21.837,38Z" transform="translate(3.347 7.321)" fill="#c53330"/>
      <circle id="Elipse_12657" data-name="Elipse 12657" cx="11" cy="11" r="11" transform="translate(47.969 29.132)" fill="#e7b532"/>
      <path id="Trazado_1262352" data-name="Trazado 1262352" d="M50.673,25a10.828,10.828,0,0,0-7.062,2.612A10.874,10.874,0,0,0,58.944,42.944,10.874,10.874,0,0,0,50.673,25Z" transform="translate(8.367 4.602)" fill="#f9cb66"/>
      <ellipse id="Elipse_12658" data-name="Elipse 12658" cx="7" cy="7.5" rx="7" ry="7.5" transform="translate(51.969 33.132)" fill="#ffe1b2"/>
      <path id="Trazado_1262353" data-name="Trazado 1262353" d="M49.628,34.046a1.209,1.209,0,1,1,1.209-1.209h2.418a3.623,3.623,0,0,0-2.418-3.405V28H48.418v1.432a3.619,3.619,0,0,0,1.209,7.033,1.209,1.209,0,1,1-1.209,1.209H46a3.623,3.623,0,0,0,2.418,3.405V42.51h2.418V41.078a3.619,3.619,0,0,0-1.209-7.033Z" transform="translate(9.413 5.229)" fill="#f9cb66"/>
      <path id="Trazado_1262354" data-name="Trazado 1262354" d="M30,42h7.255V58.928H30Z" transform="translate(6.066 8.158)" fill="#3c82c2"/>
      <path id="Trazado_1262355" data-name="Trazado 1262355" d="M36,56.092a13.35,13.35,0,0,1,4.683.849l5.988,2.245a8.367,8.367,0,0,0,6.906-.467L66.047,52a2.647,2.647,0,0,0,1.392-2.33,2.046,2.046,0,0,0-2.765-1.917l-7.062,2.648a13.35,13.35,0,0,1-4.683.849,2.418,2.418,0,1,0,0-4.837H48.092l-.433-.173A31.38,31.38,0,0,0,36,44" transform="translate(7.321 8.576)" fill="#edb8ac"/>
      <path id="Trazado_1262356" data-name="Trazado 1262356" d="M33,42v9.673A3.627,3.627,0,0,0,36.628,55.3V42Z" transform="translate(6.694 8.158)" fill="#56a0d9"/>
      <path id="Trazado_1262357" data-name="Trazado 1262357" d="M46.671,56.768a8.366,8.366,0,0,0,6.906-.467l12.47-6.715A2.633,2.633,0,0,0,67.1,48.542a2.044,2.044,0,0,0-2.422-.784l-7.062,2.648a13.35,13.35,0,0,1-4.683.849,2.418,2.418,0,1,0,0-4.837H48.092l-.433-.173A31.38,31.38,0,0,0,36,44v9.673a13.35,13.35,0,0,1,4.683.849Z" transform="translate(7.321 8.576)" fill="#ffe1d4"/>
      <path id="Trazado_1262358" data-name="Trazado 1262358" d="M44,49h7.255v2.418H44Z" transform="translate(8.994 9.622)" fill="#edb8ac"/>
      <path id="Trazado_1262359" data-name="Trazado 1262359" d="M22.972,38.418l6.046,4.837,5.352-6.02L29.018,36H16.926l-5.352,1.235,5.352,6.02Z" transform="translate(2.212 6.903)" fill="#b4b4b4"/>
      <path id="Trazado_1262360" data-name="Trazado 1262360" d="M16,32v4.837l6.046,2.418,6.046-2.418V32" transform="translate(3.138 6.066)" fill="#edb8ac"/>
      <path id="Trazado_1262361" data-name="Trazado 1262361" d="M23.673,38.112A10.881,10.881,0,0,0,33.347,27.3V17.628L27.3,14a8.148,8.148,0,0,1-6.779,3.628H14V27.3A10.881,10.881,0,0,0,23.673,38.112Z" transform="translate(2.719 2.301)" fill="#ffe1d4"/>
      <path id="Trazado_1262362" data-name="Trazado 1262362" d="M27.673,33.482A10.818,10.818,0,0,1,18,34.685v1.842l4.837,1.935,4.837-1.935Z" transform="translate(3.556 6.376)" fill="#ffe1d4"/>
      <path id="Trazado_1262363" data-name="Trazado 1262363" d="M51.092,48.183A12.092,12.092,0,1,0,39,36.092,12.105,12.105,0,0,0,51.092,48.183Zm0-21.765a9.673,9.673,0,1,1-9.673,9.673A9.685,9.685,0,0,1,51.092,26.418Z" transform="translate(7.949 4.393)"/>
      <path id="Trazado_1262364" data-name="Trazado 1262364" d="M49.628,38.883a1.211,1.211,0,0,1-1.209-1.209H46a3.623,3.623,0,0,0,2.418,3.405V42.51h2.418V41.078a3.619,3.619,0,0,0-1.209-7.033,1.209,1.209,0,1,1,1.209-1.209h2.418a3.623,3.623,0,0,0-2.418-3.405V28H48.418v1.432a3.619,3.619,0,0,0,1.209,7.033,1.209,1.209,0,1,1,0,2.418Z" transform="translate(9.413 5.229)"/>
      <path id="Trazado_1262365" data-name="Trazado 1262365" d="M72.712,54.994a3.272,3.272,0,0,0-1.144.207l-7.062,2.648c-.229.086-.461.166-.693.237a3.628,3.628,0,0,0-3.565-4.3h-4.6L55.43,53.7a32.536,32.536,0,0,0-7.345-1.982,8.744,8.744,0,0,0-6.756-7.725L32.438,41.94V39.252a12.069,12.069,0,0,0,4.837-9.65,4.812,4.812,0,0,0,3.628-8V13.881a6.057,6.057,0,0,0-4.937-5.943A6.048,6.048,0,0,0,30.02,3H19.138a9.685,9.685,0,0,0-9.673,9.673V21.6a4.812,4.812,0,0,0,3.628,8,12.069,12.069,0,0,0,4.837,9.65V41.94L9.037,43.992A8.743,8.743,0,0,0,2.212,52.5L1,71.848a1.208,1.208,0,0,0,1.207,1.284H48.158a1.208,1.208,0,0,0,1.207-1.284l-.29-4.637L53.566,68.9a9.583,9.583,0,0,0,7.906-.536l12.469-6.715a3.852,3.852,0,0,0,2.028-3.394,3.26,3.26,0,0,0-3.256-3.256ZM45.631,51.458c-.366-.025-.733-.048-1.1-.062V50.158a1.21,1.21,0,0,0-1.209-1.209H36.066a1.21,1.21,0,0,0-1.209,1.209V67.086A1.21,1.21,0,0,0,36.066,68.3h2.418v2.418H29.879l-2.225-17.8,1.906-2.542.915.733a1.21,1.21,0,0,0,1.659-.14l4.874-5.484,3.777.872a6.353,6.353,0,0,1,4.845,5.108ZM37.275,65.877V51.367h4.837v14.51ZM19.04,44.166l3.768,1.507L19.279,48.5l-3.235-3.638Zm12.288,0,3,.692L31.088,48.5l-3.528-2.823Zm-6.144,2.7,2.486,1.989-1.881,2.509H24.579L22.7,48.858Zm-.141,6.916h.284l2.116,16.928H22.926Zm12.233-26.6V22.347a2.418,2.418,0,1,1,0,4.837Zm-26.6-2.418a2.421,2.421,0,0,1,2.418-2.418v4.837A2.421,2.421,0,0,1,10.673,24.765Zm2.418-4.837a4.763,4.763,0,0,0-1.209.172V12.673a7.262,7.262,0,0,1,7.255-7.255H30.02a3.632,3.632,0,0,1,3.628,3.628,1.21,1.21,0,0,0,1.209,1.209,3.632,3.632,0,0,1,3.626,3.628V20.1a4.693,4.693,0,0,0-1.208-.173,1.207,1.207,0,0,0-.586-1.036l-6.046-3.628a1.209,1.209,0,0,0-1.629.366,6.923,6.923,0,0,1-5.771,3.088H14.3A1.21,1.21,0,0,0,13.092,19.928ZM15.51,29.6V21.138h7.733a9.335,9.335,0,0,0,7.083-3.243l4.531,2.718V29.6a9.673,9.673,0,1,1-19.347,0Zm9.673,12.092a12.006,12.006,0,0,0,4.837-1.017v1.406l-4.837,1.935-4.837-1.935V40.677A12.006,12.006,0,0,0,25.183,41.694ZM4.628,52.576a6.362,6.362,0,0,1,4.954-6.227l3.777-.872,4.874,5.484a1.209,1.209,0,0,0,1.659.141l.915-.733,1.906,2.542-2.225,17.8H11.883v-13.3H9.464v13.3H3.5ZM40.9,70.714V68.3h2.418a1.21,1.21,0,0,0,1.209-1.209V65.942a12.135,12.135,0,0,1,2.066.388l.274,4.383Zm31.892-11.2L60.326,66.23a7.237,7.237,0,0,1-5.909.4l-5.988-2.245a14.487,14.487,0,0,0-3.9-.872v-9.67a30.028,30.028,0,0,1,10,2.1l.432.173a1.2,1.2,0,0,0,.45.087h4.837a1.209,1.209,0,0,1,0,2.418H52.994V61.04h7.255a14.5,14.5,0,0,0,5.108-.926l7.06-2.648a.856.856,0,0,1,1.133.785,1.435,1.435,0,0,1-.756,1.265Z" transform="translate(0 0)"/>
    </g>
  </g>
</svg>
