<svg xmlns="http://www.w3.org/2000/svg" width="76.345" height="76.344" viewBox="0 0 76.345 76.344">
  <g id="Grupo_1203824" data-name="Grupo 1203824" transform="translate(-1021.691 -3093)">
    <g id="Grupo_1200255" data-name="Grupo 1200255" transform="translate(-0.275 0.345)">
      <g id="Grupo_1187152" data-name="Grupo 1187152">
        <g id="Grupo_1185946" data-name="Grupo 1185946" transform="translate(-3.07)">
          <g id="Grupo_1184280" data-name="Grupo 1184280">
            <g id="Grupo_1182168" data-name="Grupo 1182168">
              <g id="Grupo_1178877" data-name="Grupo 1178877">
                <g id="Grupo_1111311" data-name="Grupo 1111311">
                  <g id="Grupo_1098742" data-name="Grupo 1098742" transform="translate(1025.482 3093.101)">
                    <rect id="Rectángulo_400898" data-name="Rectángulo 400898" width="76.345" height="76.345" rx="38.172" transform="translate(-0.445 -0.445)" fill="#ff9800" opacity="0.859"/>
                    <rect id="Rectángulo_400907" data-name="Rectángulo 400907" width="76.345" height="76.345" rx="38.172" transform="translate(-0.446 -0.445)" fill="none"/>
                  </g>
                </g>
              </g>
            </g>
          </g>
        </g>
      </g>
    </g>
    <g id="pasivo" transform="translate(1033.587 3104.29)">
      <circle id="Elipse_12651" data-name="Elipse 12651" cx="9.698" cy="9.698" r="9.698" transform="translate(18.245 18.438)" fill="#f5b953"/>
      <circle id="Elipse_12652" data-name="Elipse 12652" cx="7.112" cy="7.112" r="7.112" transform="translate(20.831 21.024)" fill="#f9d18b"/>
      <path id="Trazado_1262270" data-name="Trazado 1262270" d="M25,2H36.237V23.672H25Z" transform="translate(-2.565 -0.197)" fill="#78b75b"/>
      <path id="Trazado_1262271" data-name="Trazado 1262271" d="M15,12h8.027V25.645H15Z" transform="translate(-0.592 -2.171)" fill="#3d98f7"/>
      <path id="Trazado_1262272" data-name="Trazado 1262272" d="M35,18H46.237v8.829H35Z" transform="translate(-4.539 -3.355)" fill="#e47c6e"/>
      <path id="Trazado_1262273" data-name="Trazado 1262273" d="M14,50H24.435l4.013,4.013L26.04,56.421H36.475v3.211H24.435l-4.816-4.816H14" transform="translate(-0.395 -9.669)" fill="#efbe9a"/>
      <path id="Trazado_1262274" data-name="Trazado 1262274" d="M25.605,23.475H24V1.8a.8.8,0,0,1,.8-.8H36.04a.8.8,0,0,1,.8.8V14.645H35.237V2.605H25.605Z" transform="translate(-2.368)"/>
      <path id="Trazado_1262275" data-name="Trazado 1262275" d="M15.605,25.448H14V11.8a.8.8,0,0,1,.8-.8h8.027v1.605H15.605Z" transform="translate(-0.395 -1.973)"/>
      <path id="Trazado_1262276" data-name="Trazado 1262276" d="M46.843,26.632H45.237V18.605H35.605v8.027H34V17.8a.8.8,0,0,1,.8-.8H46.04a.8.8,0,0,1,.8.8Z" transform="translate(-4.341 -3.157)"/>
      <path id="Trazado_1262277" data-name="Trazado 1262277" d="M28,5h1.605V6.605H28Z" transform="translate(-3.157 -0.789)"/>
      <path id="Trazado_1262278" data-name="Trazado 1262278" d="M34,5h1.605V6.605H34Z" transform="translate(-4.341 -0.789)"/>
      <path id="Trazado_1262279" data-name="Trazado 1262279" d="M28,9h1.605v1.605H28Z" transform="translate(-3.157 -1.579)"/>
      <path id="Trazado_1262280" data-name="Trazado 1262280" d="M34,9h1.605v1.605H34Z" transform="translate(-4.341 -1.579)"/>
      <path id="Trazado_1262281" data-name="Trazado 1262281" d="M28,13h1.605v1.605H28Z" transform="translate(-3.157 -2.368)"/>
      <path id="Trazado_1262282" data-name="Trazado 1262282" d="M34,13h1.605v1.605H34Z" transform="translate(-4.341 -2.368)"/>
      <path id="Trazado_1262283" data-name="Trazado 1262283" d="M28,17h1.605v1.605H28Z" transform="translate(-3.157 -3.157)"/>
      <path id="Trazado_1262284" data-name="Trazado 1262284" d="M28,21h1.605v1.605H28Z" transform="translate(-3.157 -3.947)"/>
      <path id="Trazado_1262285" data-name="Trazado 1262285" d="M28,25h1.605v1.605H28Z" transform="translate(-3.157 -4.736)"/>
      <path id="Trazado_1262286" data-name="Trazado 1262286" d="M38,21h1.605v1.605H38Z" transform="translate(-5.131 -3.947)"/>
      <path id="Trazado_1262287" data-name="Trazado 1262287" d="M44,21h1.605v1.605H44Z" transform="translate(-6.315 -3.947)"/>
      <path id="Trazado_1262288" data-name="Trazado 1262288" d="M38,25h1.605v1.605H38Z" transform="translate(-5.131 -4.736)"/>
      <path id="Trazado_1262289" data-name="Trazado 1262289" d="M44,25h1.605v1.605H44Z" transform="translate(-6.315 -4.736)"/>
      <path id="Trazado_1262290" data-name="Trazado 1262290" d="M18,15h1.605v1.605H18Z" transform="translate(-1.184 -2.763)"/>
      <path id="Trazado_1262291" data-name="Trazado 1262291" d="M20,19h1.605v1.605H20Z" transform="translate(-1.579 -3.552)"/>
      <path id="Trazado_1262292" data-name="Trazado 1262292" d="M18,23h1.605v1.605H18Z" transform="translate(-1.184 -4.341)"/>
      <path id="Trazado_1262293" data-name="Trazado 1262293" d="M12,28H44.107v1.605H12Z" transform="translate(0 -5.328)"/>
      <path id="Trazado_1262294" data-name="Trazado 1262294" d="M31.211,39.237A3.214,3.214,0,0,1,28,36.027h1.605a1.605,1.605,0,1,0,1.605-1.605,3.211,3.211,0,1,1,3.211-3.211H32.816a1.605,1.605,0,1,0-1.605,1.605,3.211,3.211,0,0,1,0,6.421Z" transform="translate(-3.157 -5.328)"/>
      <path id="Trazado_1262295" data-name="Trazado 1262295" d="M31,41h1.605v2.408H31Z" transform="translate(-3.749 -7.893)"/>
      <path id="Trazado_1262296" data-name="Trazado 1262296" d="M29.435,44.152A10.437,10.437,0,0,1,20.4,28.5l1.389.8a8.83,8.83,0,1,0,15.3,0l1.389-.8a10.436,10.436,0,0,1-9.037,15.653Z" transform="translate(-1.381 -5.426)"/>
      <path id="Trazado_1262297" data-name="Trazado 1262297" d="M36.475,61.421H24.435a.8.8,0,0,1-.567-.235l-4.581-4.581H14V55h5.619a.8.8,0,0,1,.567.235l4.581,4.581H35.672V58.211H26.04V56.605H36.475a.8.8,0,0,1,.8.8v3.211A.8.8,0,0,1,36.475,61.421Z" transform="translate(-0.395 -10.656)"/>
      <path id="Trazado_1262298" data-name="Trazado 1262298" d="M26.04,57.027a.8.8,0,0,1-.567-.235l-2.408-2.408L24.2,53.249l1.841,1.841,1.273-1.273L24.1,50.605H14V49H24.435a.8.8,0,0,1,.567.235l4.013,4.013a.8.8,0,0,1,0,1.135l-2.408,2.408A.8.8,0,0,1,26.04,57.027Z" transform="translate(-0.395 -9.472)"/>
      <path id="Trazado_1262299" data-name="Trazado 1262299" d="M13,47h1.605v9.632H13Z" transform="translate(-0.197 -9.077)"/>
    </g>
  </g>
</svg>
