<svg xmlns="http://www.w3.org/2000/svg" width="76.345" height="76.344" viewBox="0 0 76.345 76.344">
  <g id="Grupo_1203910" data-name="Grupo 1203910" transform="translate(-767.104 -2560.155)">
    <g id="Grupo_1203825" data-name="Grupo 1203825" transform="translate(-254.587 -532.845)">
      <g id="Grupo_1200255" data-name="Grupo 1200255" transform="translate(-0.275 0.345)">
        <g id="Grupo_1187152" data-name="Grupo 1187152">
          <g id="Grupo_1185946" data-name="Grupo 1185946" transform="translate(-3.07)">
            <g id="Grupo_1184280" data-name="Grupo 1184280">
              <g id="Grupo_1182168" data-name="Grupo 1182168">
                <g id="Grupo_1178877" data-name="Grupo 1178877">
                  <g id="Grupo_1111311" data-name="Grupo 1111311">
                    <g id="Grupo_1098742" data-name="Grupo 1098742" transform="translate(1025.482 3093.101)">
                      <rect id="Rectángulo_400898" data-name="Rectángulo 400898" width="76.345" height="76.345" rx="38.172" transform="translate(-0.445 -0.445)" fill="#ff9800" opacity="0.859"/>
                      <rect id="Rectángulo_400907" data-name="Rectángulo 400907" width="76.345" height="76.345" rx="38.172" transform="translate(-0.446 -0.445)" fill="none"/>
                    </g>
                  </g>
                </g>
              </g>
            </g>
          </g>
        </g>
      </g>
    </g>
    <g id="ganancia" transform="translate(739.221 2562.014)">
      <g id="Grupo_1203859" data-name="Grupo 1203859" transform="translate(45.653 8.67)">
        <path id="Trazado_1262300" data-name="Trazado 1262300" d="M69.773,126.71a1.473,1.473,0,0,1-1.8-2.331l3.186-2.45a1.472,1.472,0,0,1,1.818.014l3.17,2.436a1.473,1.473,0,0,1-1.8,2.331l-.809-.623v5.588a1.478,1.478,0,0,1-2.951,0v-5.588Z" transform="translate(-65.802 -109.885)" fill="#8ac9fe" fill-rule="evenodd"/>
        <path id="Trazado_1262301" data-name="Trazado 1262301" d="M143.666,19.329a1.472,1.472,0,0,1-1.8-2.33l3.186-2.45a1.472,1.472,0,0,1,1.818.014L150.04,17a1.472,1.472,0,0,1-1.8,2.33l-.809-.622V24.3a1.478,1.478,0,0,1-2.951,0V18.707Z" transform="translate(-131.619 -14.242)" fill="#8ac9fe" fill-rule="evenodd"/>
        <path id="Trazado_1262302" data-name="Trazado 1262302" d="M108.532,347.388l17.736-10.241a2.835,2.835,0,0,0,1.035-3.862,2.9,2.9,0,0,0-3.862-1.034L109.5,339.273a2.546,2.546,0,0,0,.585-1.066,2.577,2.577,0,0,0-1.818-3.146l-8.687-2.328c-2.165-.58-3.1-3.035-10.274,2.065L87,340.674l5.43,5.793c4.2-2.593,12.92,2.967,16.1.92Z" transform="translate(-83.26 -296.943)" fill="#f6dccd" fill-rule="evenodd"/>
        <path id="Trazado_1262303" data-name="Trazado 1262303" d="M54.013,344.32l2.6-.7a1.673,1.673,0,0,1,2.043,1.18l3.439,12.821a1.672,1.672,0,0,1-1.179,2.043l-2.6.7a1.673,1.673,0,0,1-2.043-1.179l-3.44-12.822a1.673,1.673,0,0,1,1.179-2.043Z" transform="translate(-52.777 -307.573)" fill="#b3b3b3" fill-rule="evenodd"/>
      </g>
      <circle id="Elipse_12653" data-name="Elipse 12653" cx="13.01" cy="13.01" r="13.01" transform="translate(60.548 17.127)" fill="#ffc338"/>
      <circle id="Elipse_12654" data-name="Elipse 12654" cx="9.693" cy="9.693" r="9.693" transform="translate(63.865 20.444)" fill="#ffd064"/>
      <path id="Trazado_1262304" data-name="Trazado 1262304" d="M48.13,24.446a.6.6,0,0,1,.226-.391L51.545,21.6a.6.6,0,0,1,.738,0l.012.01,3.17,2.435a.6.6,0,1,1-.732.947l-.81-.623a.874.874,0,0,0-1.408.693v5.588a.6.6,0,0,1-1.2,0V25.064a.874.874,0,0,0-1.408-.693l-.809.623a.6.6,0,0,1-.959-.546Zm1.429,2.269v3.935a2.351,2.351,0,0,0,4.7,0V26.715a2.348,2.348,0,0,0,2.269-4.053l-3.161-2.433a2.341,2.341,0,0,0-2.89-.019l-3.188,2.454a2.347,2.347,0,0,0,2.27,4.051Zm6.869-14.4,3.188-2.45a.6.6,0,0,1,.738,0l.012.01,3.17,2.435a.6.6,0,0,1-.732.947l-.81-.623a.874.874,0,0,0-1.407.693v5.594a.6.6,0,1,1-1.2,0v-5.59a.874.874,0,0,0-1.408-.693l-.809.623a.588.588,0,0,1-.437.12.6.6,0,0,1-.291-1.066Zm.07,2.8a2.347,2.347,0,0,1-1.138-4.185l3.188-2.452a2.342,2.342,0,0,1,2.89.017L64.6,10.926a2.347,2.347,0,0,1-2.268,4.056v3.935a2.352,2.352,0,0,1-4.7,0V14.983A2.331,2.331,0,0,1,56.5,15.113ZM72.063,32.619v.08a1.5,1.5,0,1,0,1.5-1.5,3.244,3.244,0,0,1-.874-6.368v-.612a.874.874,0,1,1,1.749,0v.612a3.249,3.249,0,0,1,2.37,3.125c0,.066,0,.131-.005.2a.876.876,0,1,1-1.749-.109c0-.031,0-.061,0-.091a1.5,1.5,0,1,0-1.5,1.494,3.244,3.244,0,0,1,.874,6.369v.612a.874.874,0,0,1-1.749,0v-.612a3.251,3.251,0,0,1-2.37-3.125v-.172a.876.876,0,0,1,1.749.092Zm1.493-11.107a8.818,8.818,0,1,0,8.818,8.818A8.818,8.818,0,0,0,73.556,21.512Zm0,19.384A10.567,10.567,0,1,0,62.991,30.33,10.567,10.567,0,0,0,73.556,40.9Zm0-22.7A12.132,12.132,0,1,0,85.689,30.326,12.132,12.132,0,0,0,73.556,18.194ZM59.676,30.326A13.881,13.881,0,1,0,73.556,16.445,13.881,13.881,0,0,0,59.676,30.326ZM50.207,47.772a1.2,1.2,0,1,1-1.469-.846,1.2,1.2,0,0,1,1.469.846Zm38.022.149L70.488,58.164l-.035.023c-1.171.752-3.825.052-6.4-.624-3.06-.8-6.211-1.632-8.659-.788L52.7,46.7c4.992-3.442,6.39-2.765,7.744-2.109a7.15,7.15,0,0,0,1.3.525l8.69,2.332a1.7,1.7,0,1,1-.874,3.279L62.3,48.771a.874.874,0,1,0-.448,1.69L69.107,52.4a3.473,3.473,0,0,0,3.163-.74.8.8,0,0,0,.083-.037l13.886-7.063a2.01,2.01,0,0,1,2.708.693,1.955,1.955,0,0,1-.715,2.667Zm-34.669,11.8a.8.8,0,0,0,.561-.972l-.136-.526a.015.015,0,0,1,0-.007l-3.3-12.286a.8.8,0,0,0-.765-.588.787.787,0,0,0-.205.027l-2.6.7a.8.8,0,0,0-.561.973l3.435,12.821a.8.8,0,0,0,.972.561l2.6-.7Zm36.9-15.341A3.706,3.706,0,0,1,89.1,49.44L71.383,59.67a4.39,4.39,0,0,1-2.388.588,23.06,23.06,0,0,1-5.381-1c-2.732-.719-5.793-1.525-7.76-.78a2.544,2.544,0,0,1-1.836,2.941l-2.6.7a2.6,2.6,0,0,1-.656.086A2.554,2.554,0,0,1,48.3,60.316L44.865,47.494a2.548,2.548,0,0,1,1.8-3.111l2.6-.7a2.548,2.548,0,0,1,2.9,1.263,14.742,14.742,0,0,1,5.546-2.585,5.381,5.381,0,0,1,3.5.65,5.792,5.792,0,0,0,.994.41l8.687,2.327a3.453,3.453,0,0,1,2.554,3.358l12-6.105a3.779,3.779,0,0,1,5.015,1.378Z" transform="translate(0)" fill="#242222" fill-rule="evenodd"/>
    </g>
  </g>
</svg>
