<svg xmlns="http://www.w3.org/2000/svg" width="76.345" height="76.344" viewBox="0 0 76.345 76.344">
  <g id="Grupo_1203826" data-name="Grupo 1203826" transform="translate(-1021.691 -3093)">
    <g id="Grupo_1200255" data-name="Grupo 1200255" transform="translate(-0.275 0.345)">
      <g id="Grupo_1187152" data-name="Grupo 1187152">
        <g id="Grupo_1185946" data-name="Grupo 1185946" transform="translate(-3.07)">
          <g id="Grupo_1184280" data-name="Grupo 1184280">
            <g id="Grupo_1182168" data-name="Grupo 1182168">
              <g id="Grupo_1178877" data-name="Grupo 1178877">
                <g id="Grupo_1111311" data-name="Grupo 1111311">
                  <g id="Grupo_1098742" data-name="Grupo 1098742" transform="translate(1025.482 3093.101)">
                    <rect id="Rectángulo_400898" data-name="Rectángulo 400898" width="76.345" height="76.345" rx="38.172" transform="translate(-0.445 -0.445)" fill="#ff9800" opacity="0.859"/>
                    <rect id="Rectángulo_400907" data-name="Rectángulo 400907" width="76.345" height="76.345" rx="38.172" transform="translate(-0.446 -0.445)" fill="none"/>
                  </g>
                </g>
              </g>
            </g>
          </g>
        </g>
      </g>
    </g>
    <g id="ganador" transform="translate(1028.041 3104.845)">
      <g id="Grupo_1203864" data-name="Grupo 1203864" transform="translate(9.404 1.807)">
        <g id="Grupo_1203861" data-name="Grupo 1203861" transform="translate(0 31.177)">
          <path id="Trazado_1262305" data-name="Trazado 1262305" d="M48.08,323.2l3.177,11.854a19.814,19.814,0,0,1,2.094-1.554,6.548,6.548,0,0,1,2.326-1.013,6.014,6.014,0,0,1,2.695.07h0l6.448,1.479a5.51,5.51,0,0,0,4.152-.547L85.1,324.184a3.02,3.02,0,0,0-3.021-5.231l-11.228,6.482.024-.085a3.354,3.354,0,0,0-2.347-4.1L57.27,318.183a5.289,5.289,0,0,0-4.046,1.08Z" transform="translate(-44.906 -318.131)" fill="#ffd6bd" fill-rule="evenodd"/>
          <path id="Trazado_1262306" data-name="Trazado 1262306" d="M170.068,382.307a3.356,3.356,0,0,0,3.82-1.642,3.271,3.271,0,0,1-.115.775,3.352,3.352,0,0,1-4.1,2.347c-2.191-.6-4.385-1.175-6.58-1.763a.768.768,0,0,1,.4-1.485C165.68,381.125,167.868,381.709,170.068,382.307Z" transform="translate(-147.807 -374.221)" fill="#f9c6aa" fill-rule="evenodd"/>
          <path id="Trazado_1262307" data-name="Trazado 1262307" d="M74.86,349.329l.476,1.777a19.819,19.819,0,0,1,2.094-1.554,6.549,6.549,0,0,1,2.326-1.013,6.014,6.014,0,0,1,2.695.07h0l6.448,1.479a5.51,5.51,0,0,0,4.152-.547l16.123-9.309a3.029,3.029,0,0,0,1.105-4.126c-.025-.043-.05-.086-.078-.127a3.025,3.025,0,0,1-1.5,2.476l-16.123,9.309a5.511,5.511,0,0,1-4.152.547l-6.448-1.479h0a6.014,6.014,0,0,0-2.695-.07,6.523,6.523,0,0,0-2.326,1.013A19.707,19.707,0,0,0,74.86,349.329Z" transform="translate(-68.985 -334.18)" fill="#f9c6aa" fill-rule="evenodd"/>
          <path id="Trazado_1262308" data-name="Trazado 1262308" d="M20.592,339.128l3.883,14.491a.668.668,0,0,1-.47.815l-2.679.718a.668.668,0,0,1-.815-.47l-3.883-14.491a.667.667,0,0,1,.47-.815l2.679-.718a.667.667,0,0,1,.815.47Z" transform="translate(-16.606 -336.567)" fill="#64b5f6" fill-rule="evenodd"/>
          <path id="Trazado_1262309" data-name="Trazado 1262309" d="M20.592,339.122l.045.168-2.508.672a.667.667,0,0,0-.47.815L21.5,355.1l-.17.045a.668.668,0,0,1-.815-.47l-3.883-14.491a.667.667,0,0,1,.47-.815l2.679-.718a.668.668,0,0,1,.815.471Z" transform="translate(-16.606 -336.562)" fill="#42a5f5" fill-rule="evenodd"/>
        </g>
        <g id="Grupo_1203862" data-name="Grupo 1203862" transform="translate(14.45)">
          <path id="Trazado_1262310" data-name="Trazado 1262310" d="M177.016,15.154v2.024c5.15,4.8,9.662,11.749,5.246,17.531a8.788,8.788,0,0,1-7.194,3.558h-6.2a8.789,8.789,0,0,1-7.194-3.559c-4.413-5.782.1-12.726,5.247-17.53V15.154a8.546,8.546,0,0,0-1.348-2.394c-1.516-2.164-1.209-2.9,2.5-1.528,1.554.574.9-2.232,3.9-2.232s2.346,2.806,3.9,2.231c3.7-1.369,4.011-.635,2.5,1.528a8.562,8.562,0,0,0-1.348,2.4Z" transform="translate(-159.886 -9)" fill="#72d561" fill-rule="evenodd"/>
          <path id="Trazado_1262311" data-name="Trazado 1262311" d="M221.393,15.154v2.024c5.15,4.8,9.662,11.749,5.246,17.531a8.788,8.788,0,0,1-7.194,3.558H218a8.789,8.789,0,0,0,7.194-3.558c4.414-5.782-.1-12.727-5.246-17.531V15.154A8.546,8.546,0,0,1,221.3,12.76c.756-1.08,1.059-1.8.712-2.088,1.991-.477,1.958.338.731,2.088A8.547,8.547,0,0,0,221.393,15.154ZM209.24,10.672c.315-.257,1.162-.153,2.687.373a.75.75,0,0,1-.924.186A16.167,16.167,0,0,0,209.24,10.672Zm6.385-1.609c2.178.412,1.763,2.691,3.178,2.167.182-.067.354-.129.519-.186C218.769,10.439,218.5,9,216.346,9A3.882,3.882,0,0,0,215.625,9.064Z" transform="translate(-204.263 -9)" fill="#57ca5a" fill-rule="evenodd"/>
          <path id="Trazado_1262312" data-name="Trazado 1262312" d="M212.592,66.75h11.121a1.342,1.342,0,1,1,0,2.685H212.592a1.342,1.342,0,0,1,0-2.685Z" transform="translate(-206.07 -60.926)" fill="#ffda2d" fill-rule="evenodd"/>
          <path id="Trazado_1262313" data-name="Trazado 1262313" d="M212.592,66.75h11.121a1.346,1.346,0,0,1,1.261.884,1.328,1.328,0,0,0-.5-.1h-11.12a1.346,1.346,0,0,0-1.342,1.342,1.329,1.329,0,0,0,.081.458,1.342,1.342,0,0,1,.5-2.586Z" transform="translate(-206.07 -60.926)" fill="#ffc700" fill-rule="evenodd"/>
        </g>
        <g id="Grupo_1203863" data-name="Grupo 1203863" transform="translate(4.78 5.425)">
          <path id="Trazado_1262314" data-name="Trazado 1262314" d="M70.035,68.538h1.816a.493.493,0,0,0,.39-.8l-3.674-4.755a.494.494,0,0,0-.782,0l-3.675,4.756a.493.493,0,0,0,.391.8h1.816v9.116a.648.648,0,0,0,.646.646h2.423a.648.648,0,0,0,.646-.646Zm35.165,0h1.816a.493.493,0,0,0,.39-.8l-3.675-4.755a.494.494,0,0,0-.782,0l-3.675,4.756a.493.493,0,0,0,.391.8h1.816v9.116a.648.648,0,0,0,.646.646h2.423a.648.648,0,0,0,.646-.646Z" transform="translate(-64.006 -62.795)" fill="#ffda2d" fill-rule="evenodd"/>
          <path id="Trazado_1262315" data-name="Trazado 1262315" d="M101.935,68.538h1.3a.493.493,0,0,0,.39-.8l-3.675-4.755a.494.494,0,0,0-.782,0l-.26.337,3.415,4.419A.492.492,0,0,1,101.935,68.538ZM99.473,78.3a.649.649,0,0,0,.645-.646V68.538h1.3v9.116a.648.648,0,0,1-.646.646ZM137.1,68.538h1.3a.493.493,0,0,0,.39-.8l-3.675-4.755a.494.494,0,0,0-.782,0l-.26.337,3.415,4.419A.492.492,0,0,1,137.1,68.538ZM134.637,78.3a.649.649,0,0,0,.645-.646V68.538h1.3v9.116a.648.648,0,0,1-.646.646Z" transform="translate(-95.39 -62.795)" fill="#ffc700" fill-rule="evenodd"/>
        </g>
      </g>
      <path id="Trazado_1262316" data-name="Trazado 1262316" d="M18.356,8.238l3.038,3.93H20.215a.807.807,0,0,0-.807.807v8.956H17.3V12.975a.807.807,0,0,0-.807-.807H15.318ZM14.68,13.782h1.011V22.09a1.456,1.456,0,0,0,1.453,1.454h2.423a1.455,1.455,0,0,0,1.453-1.454V13.782h1.01a1.3,1.3,0,0,0,1.029-2.1L19.384,6.93a1.3,1.3,0,0,0-2.057,0l-3.675,4.756a1.3,1.3,0,0,0,1.029,2.1Zm40.7-1.614a.806.806,0,0,0-.807.807v8.956h-2.1V12.975a.807.807,0,0,0-.807-.807H50.483l3.038-3.93,3.038,3.93Zm2.846-.482L54.55,6.93a1.3,1.3,0,0,0-2.057,0l-3.675,4.756a1.3,1.3,0,0,0,1.029,2.1h1.011V22.09a1.456,1.456,0,0,0,1.453,1.454h2.423a1.455,1.455,0,0,0,1.453-1.454V13.782H57.2a1.3,1.3,0,0,0,1.029-2.1ZM32.889,18.512a2.829,2.829,0,0,1,2.242-2.763v-.977a.807.807,0,1,1,1.614,0v.945a2.839,2.839,0,0,1,1.892,1.146.807.807,0,1,1-1.308.945,1.216,1.216,0,0,0-.981-.505h-.635a1.21,1.21,0,1,0,0,2.42h.451a2.824,2.824,0,0,1,.582,5.587v.976a.807.807,0,0,1-1.614,0v-.945A2.839,2.839,0,0,1,33.239,24.2a.807.807,0,1,1,1.307-.946,1.216,1.216,0,0,0,.981.505h.635a1.21,1.21,0,0,0,0-2.42h-.451a2.824,2.824,0,0,1-2.823-2.822Zm-7.534.366A8.111,8.111,0,0,0,32.84,30.267h6.2a8.111,8.111,0,0,0,7.484-11.389,23.218,23.218,0,0,0-5.514-7.758H30.869a23.228,23.228,0,0,0-5.514,7.758Zm6.4-14.084a1.909,1.909,0,0,0,.668.13A1.945,1.945,0,0,0,34,3.77a2.2,2.2,0,0,1,3.874,0,1.753,1.753,0,0,0,2.243,1.023,11.249,11.249,0,0,1,2.13-.622,7.52,7.52,0,0,1-.576.931,13.353,13.353,0,0,0-1.085,1.721h-9.3A13.171,13.171,0,0,0,30.2,5.1a7.521,7.521,0,0,1-.576-.931,11.249,11.249,0,0,1,2.13.622ZM30.378,9.508a.536.536,0,1,1,0-1.071H41.5a.536.536,0,1,1,0,1.071ZM25,28c-2.145-2.811-2.534-6.074-1.157-9.7a23.739,23.739,0,0,1,5.2-7.646,2.146,2.146,0,0,1,.485-3.664c-.154-.244-.359-.547-.653-.967-.753-1.076-1.367-2.182-.75-2.981.657-.851,2.088-.542,4.185.234a.5.5,0,0,0,.056.018,3.631,3.631,0,0,0,.255-.378A3.485,3.485,0,0,1,35.938,1a3.485,3.485,0,0,1,3.308,1.92A3.527,3.527,0,0,0,39.5,3.3a.44.44,0,0,0,.056-.018c2.1-.776,3.529-1.085,4.185-.234.617.8,0,1.905-.749,2.981-.294.42-.5.722-.653.967a2.146,2.146,0,0,1,.485,3.664,23.728,23.728,0,0,1,5.2,7.646c1.378,3.626.988,6.889-1.158,9.7a9.657,9.657,0,0,1-7.835,3.875h-6.2A9.651,9.651,0,0,1,25,28ZM49.192,38.375,33.069,47.684a4.723,4.723,0,0,1-3.569.459l-6.448-1.477a6.8,6.8,0,0,0-5.586,1.015L14.728,37.462l3.483-2.668a3.82,3.82,0,0,1,3.344-.943l11.256,3.063a2.535,2.535,0,1,1-1.331,4.891l-6.013-1.637a.807.807,0,0,0-.424,1.557l6.013,1.637a4.144,4.144,0,0,0,4.952-2.491L46.978,34.54a2.214,2.214,0,0,1,2.214,3.835ZM14.052,50.789l2.4-.644L12.647,35.927l-2.4.644ZM49.074,32.765a3.8,3.8,0,0,0-2.9.379l-9.907,5.719a4.155,4.155,0,0,0-3.028-3.5L21.98,32.3a5.4,5.4,0,0,0-4.749,1.218l-2.954,2.262-.108-.4a1.474,1.474,0,0,0-1.8-1.042l-2.679.718a1.472,1.472,0,0,0-1.041,1.8L12.53,51.343a1.476,1.476,0,0,0,1.422,1.091,1.5,1.5,0,0,0,.38-.049l2.679-.718a1.475,1.475,0,0,0,1.041-1.8l-.141-.527a5.381,5.381,0,0,1,4.781-1.1l6.448,1.477a7.331,7.331,0,0,0,1.643.194,6.094,6.094,0,0,0,3.094-.828L50,39.771a3.822,3.822,0,0,0-.926-7.006Z" fill-rule="evenodd"/>
    </g>
  </g>
</svg>
