<svg xmlns="http://www.w3.org/2000/svg" width="76.345" height="76.344" viewBox="0 0 76.345 76.344">
  <g id="Grupo_1203911" data-name="Grupo 1203911" transform="translate(-1187.155 -2560.155)">
    <g id="Grupo_1203827" data-name="Grupo 1203827" transform="translate(165.464 -532.845)">
      <g id="Grupo_1200255" data-name="Grupo 1200255" transform="translate(-0.275 0.345)">
        <g id="Grupo_1187152" data-name="Grupo 1187152">
          <g id="Grupo_1185946" data-name="Grupo 1185946" transform="translate(-3.07)">
            <g id="Grupo_1184280" data-name="Grupo 1184280">
              <g id="Grupo_1182168" data-name="Grupo 1182168">
                <g id="Grupo_1178877" data-name="Grupo 1178877">
                  <g id="Grupo_1111311" data-name="Grupo 1111311">
                    <g id="Grupo_1098742" data-name="Grupo 1098742" transform="translate(1025.482 3093.101)">
                      <rect id="Rectángulo_400898" data-name="Rectángulo 400898" width="76.345" height="76.345" rx="38.172" transform="translate(-0.445 -0.445)" fill="#ff9800" opacity="0.859"/>
                      <rect id="Rectángulo_400907" data-name="Rectángulo 400907" width="76.345" height="76.345" rx="38.172" transform="translate(-0.446 -0.445)" fill="none"/>
                    </g>
                  </g>
                </g>
              </g>
            </g>
          </g>
        </g>
      </g>
    </g>
    <g id="gasto" transform="translate(1200.364 2557.7)">
      <g id="Grupo_1203868" data-name="Grupo 1203868" transform="translate(7.21 50.31)">
        <g id="Grupo_1203866" data-name="Grupo 1203866" transform="translate(29.065)">
          <path id="Trazado_1262317" data-name="Trazado 1262317" d="M389.968,377.655H388.93v-5.341h-5.066v5.341h-1.038a.95.95,0,0,0-.688,1.605l3.571,3.748a.951.951,0,0,0,1.375,0l3.571-3.748A.95.95,0,0,0,389.968,377.655Z" transform="translate(-381.874 -372.314)" fill="#fb3a82"/>
          <path id="Trazado_1262318" data-name="Trazado 1262318" d="M402.824,372.315h5.066v2.969h-5.066Z" transform="translate(-400.834 -372.315)" fill="#fb1466"/>
        </g>
        <g id="Grupo_1203867" data-name="Grupo 1203867">
          <path id="Trazado_1262319" data-name="Trazado 1262319" d="M83.993,377.655H82.955v-5.341H77.889v5.341H76.851a.95.95,0,0,0-.688,1.605l3.571,3.748a.951.951,0,0,0,1.375,0l3.571-3.748A.95.95,0,0,0,83.993,377.655Z" transform="translate(-75.899 -372.314)" fill="#fb3a82"/>
          <path id="Trazado_1262320" data-name="Trazado 1262320" d="M96.85,372.315h5.066v2.969H96.85Z" transform="translate(-94.86 -372.315)" fill="#fb1466"/>
        </g>
      </g>
      <g id="Grupo_1203875" data-name="Grupo 1203875" transform="translate(0.712 17.224)">
        <g id="Grupo_1203873" data-name="Grupo 1203873" transform="translate(3.896 8.575)">
          <g id="Grupo_1203870" data-name="Grupo 1203870">
            <path id="Trazado_1262321" data-name="Trazado 1262321" d="M91.828,115.233v23.679a.95.95,0,0,1-.95.951H49.464a.95.95,0,0,1-.95-.951V115.233a.95.95,0,0,1,.95-.95H90.879A.95.95,0,0,1,91.828,115.233Z" transform="translate(-48.514 -114.283)" fill="#a9eddc"/>
            <path id="Trazado_1262322" data-name="Trazado 1262322" d="M65.114,117.47a4.283,4.283,0,0,1-1.659,4.007,4.3,4.3,0,0,1-3.07,3.072,4.314,4.314,0,0,1-1.775,1.371,4.268,4.268,0,0,1-1.642.327,4.219,4.219,0,0,1-.589-.041,4.284,4.284,0,0,1-4.335,0,4.28,4.28,0,0,1-2.23-.286,4.325,4.325,0,0,1-1.3-.841v-9.846a.95.95,0,0,1,.95-.95H65.58A4.245,4.245,0,0,1,65.7,115.3,4.3,4.3,0,0,1,65.114,117.47Z" transform="translate(-48.514 -114.283)" fill="#64e0c4"/>
            <path id="Trazado_1262323" data-name="Trazado 1262323" d="M468.279,115.235v23.678a.95.95,0,0,1-.95.951h-2.851a.95.95,0,0,0,.95-.951V115.235a.95.95,0,0,0-.95-.95h2.851A.95.95,0,0,1,468.279,115.235Z" transform="translate(-424.964 -114.284)" fill="#64e0c4"/>
            <g id="Grupo_1203869" data-name="Grupo 1203869" transform="translate(2.85 2.851)">
              <path id="Trazado_1262324" data-name="Trazado 1262324" d="M116.135,144.775v15.06a.477.477,0,0,1-.427.472,3.9,3.9,0,0,0-3.444,3.443.475.475,0,0,1-.471.427H79a.475.475,0,0,1-.476-.475V148.643a.476.476,0,0,1,.427-.472,3.9,3.9,0,0,0,3.444-3.443.475.475,0,0,1,.471-.427h32.8a.475.475,0,0,1,.476.475Z" transform="translate(-78.521 -144.3)" fill="#27d1b3"/>
              <path id="Trazado_1262325" data-name="Trazado 1262325" d="M92.272,144.634a4.283,4.283,0,0,1-1.659,4.007,4.3,4.3,0,0,1-3.07,3.072,4.314,4.314,0,0,1-1.775,1.371,4.268,4.268,0,0,1-1.642.327,4.221,4.221,0,0,1-.589-.041,4.284,4.284,0,0,1-4.335,0,4.223,4.223,0,0,1-.589.041h-.09v-4.768a.476.476,0,0,1,.427-.472,3.9,3.9,0,0,0,3.444-3.443.475.475,0,0,1,.471-.427h9.584C92.394,144.414,92.335,144.525,92.272,144.634Z" transform="translate(-78.522 -144.299)" fill="#20b69f"/>
            </g>
          </g>
          <g id="Grupo_1203872" data-name="Grupo 1203872" transform="translate(5.697 5.823)">
            <circle id="Elipse_12655" data-name="Elipse 12655" cx="5.976" cy="5.976" r="5.976" transform="translate(9.984 0.99)" fill="#c8f2e7"/>
            <g id="Grupo_1203871" data-name="Grupo 1203871">
              <path id="Trazado_1262326" data-name="Trazado 1262326" d="M413.308,178.764h-1.275a.951.951,0,0,1-.951-.951v-1.275a.951.951,0,0,1,.951-.951h1.275a.951.951,0,0,1,.95.951v1.275A.951.951,0,0,1,413.308,178.764Z" transform="translate(-382.338 -175.588)" fill="#c8f2e7"/>
              <path id="Trazado_1262327" data-name="Trazado 1262327" d="M109.442,288.824h1.275a.95.95,0,0,1,.95.951v1.275a.951.951,0,0,1-.95.951h-1.275a.951.951,0,0,1-.95-.951v-1.275A.95.95,0,0,1,109.442,288.824Z" transform="translate(-108.491 -278.068)" fill="#c8f2e7"/>
            </g>
          </g>
        </g>
        <g id="Grupo_1203874" data-name="Grupo 1203874" transform="translate(0 0)">
          <path id="Trazado_1262328" data-name="Trazado 1262328" d="M26.686,33.605a2.389,2.389,0,0,0-.766-1.756,2.394,2.394,0,0,0-1.344-3.244,2.394,2.394,0,0,0-2.483-2.483,2.394,2.394,0,0,0-3.244-1.344,2.394,2.394,0,0,0-3.511,0,2.394,2.394,0,0,0-3.244,1.344A2.394,2.394,0,0,0,9.61,28.605a2.394,2.394,0,0,0-1.344,3.244,2.394,2.394,0,0,0,0,3.511A2.394,2.394,0,0,0,9.61,38.605a2.394,2.394,0,0,0,2.483,2.483,2.394,2.394,0,0,0,3.244,1.344,2.394,2.394,0,0,0,3.511,0,2.394,2.394,0,0,0,3.244-1.344,2.394,2.394,0,0,0,2.483-2.483,2.394,2.394,0,0,0,1.344-3.244A2.389,2.389,0,0,0,26.686,33.605Z" transform="translate(-7.5 -24.012)" fill="#fcb44d"/>
          <path id="Trazado_1262329" data-name="Trazado 1262329" d="M105.624,35.366a2.394,2.394,0,0,1-1.344,3.244,2.395,2.395,0,0,1-2.483,2.484,2.394,2.394,0,0,1-3.245,1.343,2.394,2.394,0,0,1-2.983.428,2.412,2.412,0,0,0,.527-.428,2.394,2.394,0,0,0,3.245-1.343,2.395,2.395,0,0,0,2.483-2.484,2.394,2.394,0,0,0,1.344-3.244,2.395,2.395,0,0,0,0-3.512,2.394,2.394,0,0,0-1.344-3.244,2.395,2.395,0,0,0-2.483-2.484A2.394,2.394,0,0,0,96.1,24.783a2.408,2.408,0,0,0-.527-.428,2.394,2.394,0,0,1,2.983.428,2.394,2.394,0,0,1,3.245,1.343,2.395,2.395,0,0,1,2.483,2.484,2.394,2.394,0,0,1,1.344,3.244,2.395,2.395,0,0,1,0,3.511Z" transform="translate(-87.203 -24.016)" fill="#fb9927"/>
          <circle id="Elipse_12656" data-name="Elipse 12656" cx="6.162" cy="6.162" r="6.162" transform="translate(3.431 3.431)" fill="#ffeed3"/>
        </g>
      </g>
      <g id="Grupo_1203877" data-name="Grupo 1203877" transform="translate(0 16.512)">
        <path id="Trazado_1262330" data-name="Trazado 1262330" d="M235.941,360.669v-7.124h-5.066v7.124h-1.039a.95.95,0,0,0-.688,1.605l3.572,3.748a.95.95,0,0,0,1.375,0l3.572-3.748a.95.95,0,0,0-.688-1.605Z" transform="translate(-207.143 -321.53)" fill="#fb3a82"/>
        <g id="Grupo_1203876" data-name="Grupo 1203876" transform="translate(0 0)">
          <path id="Trazado_1262331" data-name="Trazado 1262331" d="M46.973,25.087H20.083c-.043-.064-.088-.127-.135-.188a3.1,3.1,0,0,0-1.468-3.544,3.1,3.1,0,0,0-2.712-2.712,3.1,3.1,0,0,0-3.544-1.468,3.1,3.1,0,0,0-3.836,0,3.1,3.1,0,0,0-3.544,1.468,3.1,3.1,0,0,0-2.712,2.712A3.1,3.1,0,0,0,.663,24.9a3.1,3.1,0,0,0,0,3.836A3.1,3.1,0,0,0,2.131,32.28,3.092,3.092,0,0,0,3.9,34.718s0,.007,0,.011v15.7a1.665,1.665,0,0,0,1.663,1.663H8.488v2.847H8.161a1.662,1.662,0,0,0-1.2,2.809L10.53,61.5a1.662,1.662,0,0,0,2.407,0l3.572-3.748a1.662,1.662,0,0,0-1.2-2.809h-.326V52.092H23.02v2.847h-.326a1.662,1.662,0,0,0-1.2,2.809L25.062,61.5a1.662,1.662,0,0,0,2.407,0l3.572-3.748a1.662,1.662,0,0,0-1.2-2.809h-.326V52.092H32.63a.712.712,0,0,0,0-1.425H29.511V49.24H40.729a1.187,1.187,0,0,0,1.18-1.062,3.2,3.2,0,0,1,2.813-2.812,1.187,1.187,0,0,0,1.062-1.18V29.126A1.189,1.189,0,0,0,44.6,27.939H20.4a3.1,3.1,0,0,0,.211-1.121c0-.1-.006-.2-.016-.306H46.973a.238.238,0,0,1,.238.238V50.429a.238.238,0,0,1-.238.238H35.827a.712.712,0,0,0,0,1.425h1.725v2.847h-.326a1.662,1.662,0,0,0-1.2,2.809L39.6,61.5A1.662,1.662,0,0,0,42,61.5l3.572-3.748a1.662,1.662,0,0,0-1.2-2.809h-.326V52.092h2.929a1.665,1.665,0,0,0,1.663-1.663V26.75a1.665,1.665,0,0,0-1.663-1.663ZM3.071,31.15a1.682,1.682,0,0,1-.944-2.279.712.712,0,0,0-.163-.819,1.682,1.682,0,0,1,0-2.467.712.712,0,0,0,.163-.819,1.682,1.682,0,0,1,.944-2.28.712.712,0,0,0,.464-.694,1.682,1.682,0,0,1,1.745-1.745.71.71,0,0,0,.694-.464,1.682,1.682,0,0,1,2.279-.944.713.713,0,0,0,.819-.163,1.682,1.682,0,0,1,2.467,0,.713.713,0,0,0,.819.163,1.682,1.682,0,0,1,2.279.944.711.711,0,0,0,.694.464,1.682,1.682,0,0,1,1.745,1.745.712.712,0,0,0,.464.694,1.682,1.682,0,0,1,.944,2.279.712.712,0,0,0,.163.819,1.682,1.682,0,0,1,0,2.467.712.712,0,0,0-.163.819,1.682,1.682,0,0,1-.944,2.279.712.712,0,0,0-.464.694,1.682,1.682,0,0,1-1.745,1.745.709.709,0,0,0-.694.464A1.682,1.682,0,0,1,12.358,35a.713.713,0,0,0-.819.163,1.682,1.682,0,0,1-2.467,0A.712.712,0,0,0,8.253,35a1.682,1.682,0,0,1-2.28-.944.711.711,0,0,0-.694-.464,1.682,1.682,0,0,1-1.745-1.745.712.712,0,0,0-.464-.694Zm11.2,25.214H15.3a.237.237,0,0,1,.172.4L11.9,60.512a.237.237,0,0,1-.344,0L7.989,56.765a.237.237,0,0,1,.172-.4H9.2a.712.712,0,0,0,.712-.712v-3.56h3.641v3.56A.713.713,0,0,0,14.266,56.364Zm15.571,0a.237.237,0,0,1,.172.4l-3.572,3.748a.238.238,0,0,1-.344,0l-3.572-3.748a.237.237,0,0,1,.172-.4h1.039a.712.712,0,0,0,.712-.712V49.24h3.641v6.411a.712.712,0,0,0,.712.712ZM44.36,43.976a4.634,4.634,0,0,0-3.839,3.839H8.171V43.172a.712.712,0,0,0-1.425,0v4.881A1.189,1.189,0,0,0,7.935,49.24H23.02v1.427H5.558a.238.238,0,0,1-.238-.238v-14.8a3.106,3.106,0,0,0,1.041.71,3.071,3.071,0,0,0,.385.128v3.508a.712.712,0,0,0,1.425,0V36.511c.073-.015.145-.031.216-.051A3.1,3.1,0,0,0,11.181,37v2.555a.712.712,0,1,0,1.425,0V36.538a3.094,3.094,0,0,0,3.161-1.546A3.1,3.1,0,0,0,18.48,32.28a3.091,3.091,0,0,0,1.573-2.916H44.36ZM43.331,56.364H44.37a.237.237,0,0,1,.172.4L40.97,60.512a.237.237,0,0,1-.344,0l-3.572-3.748a.237.237,0,0,1,.172-.4h1.039a.712.712,0,0,0,.712-.712v-3.56h3.641v3.56A.713.713,0,0,0,43.331,56.364Z" transform="translate(0 -16.512)"/>
          <path id="Trazado_1262332" data-name="Trazado 1262332" d="M212.783,191.891A6.688,6.688,0,1,0,206.1,185.2,6.7,6.7,0,0,0,212.783,191.891Zm0-11.952a5.263,5.263,0,1,1-5.263,5.263A5.269,5.269,0,0,1,212.783,179.939Z" transform="translate(-186.518 -163.125)"/>
          <path id="Trazado_1262333" data-name="Trazado 1262333" d="M250.6,212.234h.044v.917h-.713a.712.712,0,0,0,0,1.425h.713v.159a.712.712,0,1,0,1.425,0v-.159h.044a1.883,1.883,0,0,0,0-3.767h-.044v-.917h.712a.712.712,0,1,0,0-1.425h-.712v-.159a.712.712,0,1,0-1.425,0v.159H250.6a1.883,1.883,0,0,0,0,3.766Zm1.512,0a.458.458,0,0,1,0,.917h-.044v-.917Zm-1.512-2.342h.044v.917H250.6a.458.458,0,1,1,0-.917Z" transform="translate(-225.094 -189.445)"/>
          <path id="Trazado_1262334" data-name="Trazado 1262334" d="M405.246,172.69h1.275a1.665,1.665,0,0,0,1.663-1.663v-1.275a1.665,1.665,0,0,0-1.663-1.663h-1.275a1.665,1.665,0,0,0-1.663,1.663v1.275A1.665,1.665,0,0,0,405.246,172.69Zm-.238-2.938a.238.238,0,0,1,.238-.238h1.275a.238.238,0,0,1,.238.238v1.275a.238.238,0,0,1-.238.238h-1.275a.238.238,0,0,1-.238-.238Z" transform="translate(-365.246 -153.69)"/>
          <path id="Trazado_1262335" data-name="Trazado 1262335" d="M421.012,231.3a.712.712,0,0,0-.712.712v4.343a.712.712,0,1,0,1.425,0v-4.343A.712.712,0,0,0,421.012,231.3Z" transform="translate(-380.375 -210.894)"/>
          <path id="Trazado_1262336" data-name="Trazado 1262336" d="M103.93,281.323h-1.275a1.665,1.665,0,0,0-1.663,1.663v1.275a1.665,1.665,0,0,0,1.663,1.663h1.275a1.665,1.665,0,0,0,1.663-1.663v-1.275A1.665,1.665,0,0,0,103.93,281.323Zm.238,2.938a.238.238,0,0,1-.238.238h-1.275a.238.238,0,0,1-.238-.238v-1.275a.238.238,0,0,1,.238-.238h1.275a.238.238,0,0,1,.238.238Z" transform="translate(-91.399 -256.168)"/>
          <path id="Trazado_1262337" data-name="Trazado 1262337" d="M84.608,101.828a.712.712,0,0,0,0-1.425H84.6a.708.708,0,0,0-.708.709.716.716,0,0,0,.713.716Z" transform="translate(-75.922 -92.434)"/>
          <path id="Trazado_1262338" data-name="Trazado 1262338" d="M118.807,136.026a.712.712,0,1,0,0-1.425H118.8a.708.708,0,0,0-.708.712A.716.716,0,0,0,118.807,136.026Z" transform="translate(-106.872 -123.384)"/>
          <path id="Trazado_1262339" data-name="Trazado 1262339" d="M87.791,106.077a.712.712,0,0,0,1-.076l2.555-2.973a.712.712,0,1,0-1.081-.929l-2.555,2.973a.712.712,0,0,0,.076,1Z" transform="translate(-79.227 -93.745)"/>
          <path id="Trazado_1262340" data-name="Trazado 1262340" d="M42.991,66.378a6.875,6.875,0,0,0,5.9-10.409.712.712,0,1,0-1.222.734,5.451,5.451,0,1,1-2.034-1.967.712.712,0,0,0,.692-1.246,6.875,6.875,0,1,0-3.333,12.888Z" transform="translate(-32.685 -49.197)"/>
        </g>
      </g>
    </g>
  </g>
</svg>
