<svg xmlns="http://www.w3.org/2000/svg" width="76.345" height="76.344" viewBox="0 0 76.345 76.344">
  <g id="Grupo_1203828" data-name="Grupo 1203828" transform="translate(-1021.691 -3093)">
    <g id="Grupo_1200255" data-name="Grupo 1200255" transform="translate(-0.275 0.345)">
      <g id="Grupo_1187152" data-name="Grupo 1187152">
        <g id="Grupo_1185946" data-name="Grupo 1185946" transform="translate(-3.07)">
          <g id="Grupo_1184280" data-name="Grupo 1184280">
            <g id="Grupo_1182168" data-name="Grupo 1182168">
              <g id="Grupo_1178877" data-name="Grupo 1178877">
                <g id="Grupo_1111311" data-name="Grupo 1111311">
                  <g id="Grupo_1098742" data-name="Grupo 1098742" transform="translate(1025.482 3093.101)">
                    <rect id="Rectángulo_400898" data-name="Rectángulo 400898" width="76.345" height="76.345" rx="38.172" transform="translate(-0.445 -0.445)" fill="#ff9800" opacity="0.859"/>
                    <rect id="Rectángulo_400907" data-name="Rectángulo 400907" width="76.345" height="76.345" rx="38.172" transform="translate(-0.446 -0.445)" fill="none"/>
                  </g>
                </g>
              </g>
            </g>
          </g>
        </g>
      </g>
    </g>
    <g id="personal" transform="translate(1036.05 3099.892)">
      <path id="Trazado_1262341" data-name="Trazado 1262341" d="M14.54,36,7.26,37.68A5.629,5.629,0,0,0,2.9,43.166L2,57.5H36.038l-.9-14.332a5.629,5.629,0,0,0-4.364-5.486L23.5,36Z" transform="translate(-0.104 -3.44)" fill="#c8c8c8"/>
      <path id="Trazado_1262342" data-name="Trazado 1262342" d="M31.2,37.68,23.915,36H18.54L11.26,37.68A5.629,5.629,0,0,0,6.9,43.166L6,57.5H36.455l-.9-14.332A5.629,5.629,0,0,0,31.2,37.68Z" transform="translate(-0.521 -3.44)" fill="#dcdcdc"/>
      <path id="Trazado_1262343" data-name="Trazado 1262343" d="M23.374,58.332,21.583,44H19.791L18,58.332Z" transform="translate(-1.772 -4.274)" fill="#ee8382"/>
      <path id="Trazado_1262344" data-name="Trazado 1262344" d="M8,48H9.791V58.749H8Z" transform="translate(-0.73 -4.691)" fill="#b4b4b4"/>
      <path id="Trazado_1262345" data-name="Trazado 1262345" d="M32,48h1.791V58.749H32Z" transform="translate(-3.232 -4.691)" fill="#b4b4b4"/>
      <path id="Trazado_1262346" data-name="Trazado 1262346" d="M9,18.332V10.27A6.27,6.27,0,0,1,15.27,4h8.062a3.583,3.583,0,0,1,3.583,3.583h0A3.582,3.582,0,0,1,30.5,11.165v8.063" transform="translate(-0.834 -0.104)" fill="#3f4042"/>
      <path id="Trazado_1262347" data-name="Trazado 1262347" d="M30.706,11.165a3.582,3.582,0,0,0-3.582-3.582h0A3.583,3.583,0,0,0,23.54,4H15.479a6.237,6.237,0,0,0-3.445,1.034A6.237,6.237,0,0,0,11,8.479a8.957,8.957,0,0,0,8.957,8.957H30.706Z" transform="translate(-1.043 -0.104)" fill="#5a5b5d"/>
      <g id="Grupo_1203879" data-name="Grupo 1203879" transform="translate(7.27 12.853)">
        <path id="Trazado_1262348" data-name="Trazado 1262348" d="M28.123,16.687v7.166a8.062,8.062,0,0,1-16.123,0V16.687h6.623A6.036,6.036,0,0,0,23.645,14Z" transform="translate(-8.417 -14)" fill="#edb8ac"/>
        <path id="Trazado_1262349" data-name="Trazado 1262349" d="M11.583,18h-.9a2.687,2.687,0,1,0,0,5.374h.9" transform="translate(-8 -14.417)" fill="#edb8ac"/>
        <path id="Trazado_1262350" data-name="Trazado 1262350" d="M29.791,18h.9a2.687,2.687,0,0,1,0,5.374H28" transform="translate(-10.085 -14.417)" fill="#edb8ac"/>
      </g>
      <path id="Trazado_1262351" data-name="Trazado 1262351" d="M24.166,39.791l-2.687,3.583H19.687L17,39.791,20.583,38Z" transform="translate(-1.668 -3.649)" fill="#c53330"/>
      <circle id="Elipse_12657" data-name="Elipse 12657" cx="8.5" cy="8.5" r="8.5" transform="translate(35.537 21.953)" fill="#e7b532"/>
      <path id="Trazado_1262352" data-name="Trazado 1262352" d="M48.166,25a8.022,8.022,0,0,0-5.231,1.935A8.056,8.056,0,0,0,54.293,38.293,8.056,8.056,0,0,0,48.166,25Z" transform="translate(-4.17 -2.294)" fill="#f9cb66"/>
      <circle id="Elipse_12658" data-name="Elipse 12658" cx="5.5" cy="5.5" r="5.5" transform="translate(38.536 24.953)" fill="#ffe1b2"/>
      <path id="Trazado_1262353" data-name="Trazado 1262353" d="M48.687,32.479a.9.9,0,1,1,.9-.9h1.792a2.684,2.684,0,0,0-1.792-2.522V28H47.791v1.061a2.681,2.681,0,0,0,.9,5.21.9.9,0,1,1-.9.9H46a2.684,2.684,0,0,0,1.791,2.522v1.061h1.791V37.688a2.681,2.681,0,0,0-.9-5.21Z" transform="translate(-4.691 -2.606)" fill="#f9cb66"/>
      <path id="Trazado_1262354" data-name="Trazado 1262354" d="M30,42h5.374V54.54H30Z" transform="translate(-3.023 -4.066)" fill="#3c82c2"/>
      <path id="Trazado_1262355" data-name="Trazado 1262355" d="M36,52.957a9.889,9.889,0,0,1,3.469.629L43.9,55.25a6.2,6.2,0,0,0,5.116-.346l9.238-4.974A1.961,1.961,0,0,0,59.289,48.2a1.516,1.516,0,0,0-2.049-1.42L52.01,48.746a9.889,9.889,0,0,1-3.469.629,1.791,1.791,0,1,0,0-3.583H44.957l-.321-.128A23.246,23.246,0,0,0,36,44" transform="translate(-3.649 -4.274)" fill="#edb8ac"/>
      <path id="Trazado_1262356" data-name="Trazado 1262356" d="M33,42v7.166a2.687,2.687,0,0,0,2.687,2.687V42Z" transform="translate(-3.336 -4.066)" fill="#56a0d9"/>
      <path id="Trazado_1262357" data-name="Trazado 1262357" d="M43.9,53.458a6.2,6.2,0,0,0,5.116-.346l9.238-4.974a1.951,1.951,0,0,0,.777-.774,1.514,1.514,0,0,0-1.794-.58L52.01,48.746a9.889,9.889,0,0,1-3.469.629,1.791,1.791,0,1,0,0-3.583H44.957l-.321-.128A23.246,23.246,0,0,0,36,44v7.166a9.889,9.889,0,0,1,3.469.629Z" transform="translate(-3.649 -4.274)" fill="#ffe1d4"/>
      <path id="Trazado_1262358" data-name="Trazado 1262358" d="M44,49h5.374v1.791H44Z" transform="translate(-4.483 -4.796)" fill="#edb8ac"/>
      <path id="Trazado_1262359" data-name="Trazado 1262359" d="M20.017,37.791,24.5,41.374l3.965-4.46L24.5,36H15.539l-3.965.915,3.965,4.46Z" transform="translate(-1.102 -3.44)" fill="#b4b4b4"/>
      <path id="Trazado_1262360" data-name="Trazado 1262360" d="M16,32v3.583l4.479,1.791,4.479-1.791V32" transform="translate(-1.564 -3.023)" fill="#edb8ac"/>
      <path id="Trazado_1262361" data-name="Trazado 1262361" d="M21.166,31.862a8.061,8.061,0,0,0,7.166-8.009V16.687L23.853,14a6.036,6.036,0,0,1-5.022,2.687H14v7.166A8.061,8.061,0,0,0,21.166,31.862Z" transform="translate(-1.355 -1.147)" fill="#ffe1d4"/>
      <path id="Trazado_1262362" data-name="Trazado 1262362" d="M25.166,33.482A8.014,8.014,0,0,1,18,34.373v1.364l3.583,1.433,3.583-1.433Z" transform="translate(-1.772 -3.178)" fill="#ffe1d4"/>
      <path id="Trazado_1262363" data-name="Trazado 1262363" d="M47.957,41.915A8.957,8.957,0,1,0,39,32.957,8.968,8.968,0,0,0,47.957,41.915Zm0-16.123a7.166,7.166,0,1,1-7.166,7.166A7.174,7.174,0,0,1,47.957,25.791Z" transform="translate(-3.962 -2.189)"/>
      <path id="Trazado_1262364" data-name="Trazado 1262364" d="M48.687,36.062a.9.9,0,0,1-.9-.9H46a2.684,2.684,0,0,0,1.791,2.522v1.061h1.791V37.688a2.681,2.681,0,0,0-.9-5.21.9.9,0,1,1,.9-.9h1.792a2.684,2.684,0,0,0-1.792-2.522V28H47.791v1.061a2.681,2.681,0,0,0,.9,5.21.9.9,0,0,1,0,1.791Z" transform="translate(-4.691 -2.606)"/>
      <path id="Trazado_1262365" data-name="Trazado 1262365" d="M54.124,41.517a2.424,2.424,0,0,0-.847.153l-5.231,1.962c-.169.064-.341.123-.513.176a2.688,2.688,0,0,0-2.641-3.186h-3.41l-.16-.064a24.1,24.1,0,0,0-5.441-1.468,6.478,6.478,0,0,0-5-5.723l-6.586-1.519V29.855a8.941,8.941,0,0,0,3.583-7.149,3.565,3.565,0,0,0,2.687-5.928V11.061a4.487,4.487,0,0,0-3.657-4.4A4.48,4.48,0,0,0,22.5,3H14.436A7.174,7.174,0,0,0,7.27,10.166v6.612a3.565,3.565,0,0,0,2.687,5.928,8.941,8.941,0,0,0,3.583,7.149v1.991l-6.586,1.52A6.476,6.476,0,0,0,1.9,39.67L1,54a.895.895,0,0,0,.894.951H35.934A.895.895,0,0,0,36.828,54l-.215-3.435,3.328,1.248a7.1,7.1,0,0,0,5.856-.4l9.237-4.974a2.853,2.853,0,0,0,1.5-2.514,2.415,2.415,0,0,0-2.412-2.412ZM34.062,38.9c-.271-.019-.543-.036-.815-.046v-.917a.9.9,0,0,0-.9-.9H26.977a.9.9,0,0,0-.9.9v12.54a.9.9,0,0,0,.9.9h1.791v1.791H22.393L20.745,39.974l1.412-1.883.678.543a.9.9,0,0,0,1.229-.1l3.611-4.062,2.8.646A4.706,4.706,0,0,1,34.062,38.9Zm-6.19,10.682V38.83h3.583V49.579ZM14.364,33.5l2.791,1.116L14.541,36.7l-2.4-2.7Zm9.1,0,2.219.512-2.4,2.7-2.614-2.092Zm-4.551,2,1.842,1.474L19.363,38.83h-.9l-1.394-1.859Zm-.1,5.124h.211l1.568,12.54H17.243Zm9.062-19.706V17.332a1.791,1.791,0,1,1,0,3.583ZM8.166,19.123a1.793,1.793,0,0,1,1.791-1.791v3.583A1.793,1.793,0,0,1,8.166,19.123ZM9.957,15.54a3.528,3.528,0,0,0-.9.127v-5.5a5.38,5.38,0,0,1,5.374-5.374H22.5a2.691,2.691,0,0,1,2.687,2.687.9.9,0,0,0,.9.9,2.69,2.69,0,0,1,2.686,2.687v4.607a3.477,3.477,0,0,0-.895-.128.894.894,0,0,0-.434-.768l-4.479-2.687a.9.9,0,0,0-1.207.271,5.129,5.129,0,0,1-4.275,2.288H10.853A.9.9,0,0,0,9.957,15.54Zm1.791,7.166v-6.27h5.728a6.915,6.915,0,0,0,5.247-2.4l3.356,2.014v6.659a7.166,7.166,0,0,1-14.332,0Zm7.166,8.957a8.894,8.894,0,0,0,3.583-.753v1.042l-3.583,1.433-3.583-1.433V30.911A8.894,8.894,0,0,0,18.915,31.664ZM3.687,39.726a4.713,4.713,0,0,1,3.67-4.613l2.8-.646,3.611,4.062a.9.9,0,0,0,1.229.1l.678-.543,1.412,1.883L15.437,53.162H9.062V43.309H7.27v9.853H2.849ZM30.56,53.162V51.37h1.791a.9.9,0,0,0,.9-.9v-.847a8.99,8.99,0,0,1,1.531.288l.2,3.247Zm23.625-8.3L44.948,49.84a5.361,5.361,0,0,1-4.378.3l-4.436-1.663a10.732,10.732,0,0,0-2.888-.646V40.663a22.245,22.245,0,0,1,7.409,1.557l.32.128a.889.889,0,0,0,.333.064h3.583a.9.9,0,1,1,0,1.791H39.517V46h5.374a10.742,10.742,0,0,0,3.784-.686l5.23-1.962a.634.634,0,0,1,.839.581A1.063,1.063,0,0,1,54.185,44.866Z" transform="translate(0 0)"/>
    </g>
  </g>
</svg>
