<svg xmlns="http://www.w3.org/2000/svg" width="76.345" height="76.344" viewBox="0 0 76.345 76.344">
  <g id="Grupo_1203829" data-name="Grupo 1203829" transform="translate(-1021.691 -3093)">
    <g id="Grupo_1200255" data-name="Grupo 1200255" transform="translate(-0.275 0.345)">
      <g id="Grupo_1187152" data-name="Grupo 1187152">
        <g id="Grupo_1185946" data-name="Grupo 1185946" transform="translate(-3.07)">
          <g id="Grupo_1184280" data-name="Grupo 1184280">
            <g id="Grupo_1182168" data-name="Grupo 1182168">
              <g id="Grupo_1178877" data-name="Grupo 1178877">
                <g id="Grupo_1111311" data-name="Grupo 1111311">
                  <g id="Grupo_1098742" data-name="Grupo 1098742" transform="translate(1025.482 3093.101)">
                    <rect id="Rectángulo_400898" data-name="Rectángulo 400898" width="76.345" height="76.345" rx="38.172" transform="translate(-0.445 -0.445)" fill="#ff9800" opacity="0.859"/>
                    <rect id="Rectángulo_400907" data-name="Rectángulo 400907" width="76.345" height="76.345" rx="38.172" transform="translate(-0.446 -0.445)" fill="none"/>
                  </g>
                </g>
              </g>
            </g>
          </g>
        </g>
      </g>
    </g>
    <g id="FilledOutline" transform="translate(1019.207 3104.17)">
      <path id="Trazado_1262402" data-name="Trazado 1262402" d="M108.94,239.526V236l-3.159-1.123c-.425-1.025-.639-1.543-1.064-2.568l1.44-3.029-2.495-2.495-3.028,1.44-2.568-1.064L96.942,224H93.414l-1.123,3.159-2.568,1.064-3.028-1.44L84.2,229.278l1.44,3.029-1.064,2.568L81.416,236v3.528l3.159,1.123c.425,1.025.639,1.543,1.064,2.568l-1.44,3.029,2.495,2.495,3.028-1.439,2.568,1.064,1.124,3.159h3.528l1.123-3.159,2.568-1.064,3.028,1.439,2.495-2.495-1.44-3.029,1.064-2.568Zm-13.762,4.712a6.476,6.476,0,1,1,6.476-6.476A6.476,6.476,0,0,1,95.178,244.238Z" transform="translate(-58.797 -201.334)" fill="#ef5249"/>
      <path id="Trazado_1262403" data-name="Trazado 1262403" d="M243.524,47.526V44l-3.159-1.123L239.3,40.307l1.44-3.029-2.495-2.495-3.028,1.44-2.568-1.064L231.526,32H228l-1.123,3.159-2.568,1.064-3.028-1.44-2.495,2.495,1.44,3.028-1.064,2.568-1.416,1.039c0,1.762-1.743,1.85-1.743,3.612l3.159,1.123,1.064,2.568-1.44,3.029,2.495,2.495,3.028-1.44,2.568,1.064L228,59.524h3.528l1.123-3.159,2.568-1.064,3.028,1.44,2.495-2.495-1.44-3.028,1.064-2.568Zm-13.762,4.712a6.476,6.476,0,1,1,6.476-6.476A6.476,6.476,0,0,1,229.762,52.238Z" transform="translate(-179.762 -28.762)" fill="#88bf40"/>
      <path id="Trazado_1262404" data-name="Trazado 1262404" d="M51.524,23.526V20l-3.159-1.123L47.3,16.307l1.44-3.029-2.495-2.495-3.028,1.44-2.568-1.064L39.526,8H36l-1.123,3.159-2.568,1.064-3.028-1.44-2.495,2.495,1.44,3.029-1.064,2.568L24,20v3.528l3.159,1.123,1.064,2.568-1.44,3.029,2.495,2.495,3.028-1.44,2.568,1.064L36,35.524h3.528l1.123-3.159L43.217,31.3l3.028,1.44,2.495-2.495L47.3,27.217l1.064-2.568ZM37.762,28.238a6.476,6.476,0,1,1,6.476-6.476A6.476,6.476,0,0,1,37.762,28.238Z" transform="translate(-7.19 -7.19)" fill="#ffc119"/>
      <path id="Trazado_1262405" data-name="Trazado 1262405" d="M332.857,276.238v-4.857l-4.354-4.354a1.717,1.717,0,1,1,2.428-2.429l1.926,1.926v-8.9a1.619,1.619,0,0,1,3.238,0v4.048h3.516a4.579,4.579,0,0,1,3.238,7.817l-1.9,1.9v4.857Z" transform="translate(-280.429 -230.095)" fill="#f5be9a"/>
      <path id="Trazado_1262406" data-name="Trazado 1262406" d="M360,432h11.333v7.286H360Z" transform="translate(-309.191 -388.286)" fill="#0093ba"/>
      <path id="Trazado_1262407" data-name="Trazado 1262407" d="M22.436,26.281,25.139,25l1.9.788,1,2.82a.81.81,0,0,0,.762.538h3.528A.81.81,0,0,0,33.1,28.6l1-2.82L36,25l2.7,1.285a.81.81,0,0,0,.92-.159l2.495-2.494a.81.81,0,0,0,.159-.92L41,20l.788-1.9,2.82-1a.81.81,0,0,0,.538-.763V12.807a.809.809,0,0,0-.538-.763l-2.82-1L41,9.139l1.285-2.7a.81.81,0,0,0-.159-.92L39.628,3.021a.81.81,0,0,0-.92-.159L36,4.147l-1.9-.788-1-2.82A.81.81,0,0,0,32.335,0H28.807a.81.81,0,0,0-.763.538l-1,2.82-1.9.788-2.7-1.285a.81.81,0,0,0-.921.159L19.021,5.515a.81.81,0,0,0-.159.921l1.285,2.7-.788,1.9-2.82,1a.81.81,0,0,0-.538.763v3.528a.81.81,0,0,0,.538.763l2.82,1,.788,1.9-1.285,2.7a.81.81,0,0,0,.159.92l2.494,2.494a.81.81,0,0,0,.921.159Zm-.655-6.564-1.064-2.568a.809.809,0,0,0-.477-.453l-2.621-.932V13.379l2.621-.932a.809.809,0,0,0,.477-.453L21.78,9.426a.81.81,0,0,0-.017-.658L20.57,6.256l1.686-1.686,2.512,1.194a.809.809,0,0,0,.658.017l2.568-1.064a.809.809,0,0,0,.452-.477l.932-2.621h2.385L32.7,4.24a.809.809,0,0,0,.453.477L35.717,5.78a.809.809,0,0,0,.658-.017L38.887,4.57l1.687,1.687L39.38,8.769a.81.81,0,0,0-.017.658l1.064,2.568a.809.809,0,0,0,.476.452l2.621.932v2.385L40.9,16.7a.809.809,0,0,0-.477.453l-1.064,2.568a.81.81,0,0,0,.017.658l1.194,2.512-1.687,1.687L36.374,23.38a.809.809,0,0,0-.658-.017l-2.568,1.064a.809.809,0,0,0-.452.476l-.932,2.621H29.379L28.446,24.9a.809.809,0,0,0-.453-.477l-2.568-1.064a.809.809,0,0,0-.658.017l-2.512,1.194-1.686-1.686,1.194-2.512a.81.81,0,0,0,.017-.657Z" transform="translate(0 0)"/>
      <path id="Trazado_1262408" data-name="Trazado 1262408" d="M95.286,86.571A7.286,7.286,0,1,0,88,79.286,7.286,7.286,0,0,0,95.286,86.571Zm0-12.952a5.667,5.667,0,1,1-5.667,5.667A5.667,5.667,0,0,1,95.286,73.619Z" transform="translate(-64.714 -64.714)"/>
      <path id="Trazado_1262409" data-name="Trazado 1262409" d="M97.845,284.131,96.782,286.7a.81.81,0,0,0,.017.658l1.194,2.512-1.687,1.687-2.512-1.194a.809.809,0,0,0-.658-.017l-2.567,1.063a.809.809,0,0,0-.453.477l-.932,2.621H86.8l-.932-2.621a.809.809,0,0,0-.453-.477l-2.568-1.064a.809.809,0,0,0-.658.017l-2.512,1.194-1.687-1.687,1.194-2.512a.81.81,0,0,0,.017-.658l-1.064-2.568a.81.81,0,0,0-.476-.452l-2.621-.932v-2.386l2.621-.932a.809.809,0,0,0,.477-.453l1.063-2.568a.809.809,0,0,0-.017-.658l-1.44-3.028-1.462.7,1.285,2.7-.788,1.9-2.82,1a.809.809,0,0,0-.538.763v3.528a.81.81,0,0,0,.538.763l2.82,1,.788,1.9-1.285,2.7a.81.81,0,0,0,.159.92l2.494,2.494a.81.81,0,0,0,.92.159l2.7-1.285,1.9.788,1,2.82a.809.809,0,0,0,.763.538h3.528a.809.809,0,0,0,.763-.538l1-2.82,1.9-.788,2.7,1.285a.81.81,0,0,0,.92-.159l2.495-2.494a.81.81,0,0,0,.159-.92l-1.285-2.7.926-2.235Z" transform="translate(-51.61 -245.125)"/>
      <path id="Trazado_1262410" data-name="Trazado 1262410" d="M274.336,246.238l-2.495-2.494a.81.81,0,0,0-.92-.159l-3.028,1.44.7,1.462,2.512-1.194,1.687,1.687-1.194,2.512a.81.81,0,0,0-.017.658l.918,2.217,1.5-.62-.781-1.885,1.285-2.7a.81.81,0,0,0-.159-.921Z" transform="translate(-226.404 -218.866)"/>
      <path id="Trazado_1262411" data-name="Trazado 1262411" d="M152.7,302.571a7.286,7.286,0,1,0-7.286-7.286A7.286,7.286,0,0,0,152.7,302.571Zm0-12.952a5.667,5.667,0,1,1-5.667,5.667A5.667,5.667,0,0,1,152.7,289.619Z" transform="translate(-116.32 -258.857)"/>
      <path id="Trazado_1262412" data-name="Trazado 1262412" d="M314.825,36.045l-2.82-1-.788-1.9,1.285-2.7a.809.809,0,0,0-.159-.92l-2.494-2.494a.81.81,0,0,0-.92-.159l-2.7,1.285-1.9-.788-1-2.82a.81.81,0,0,0-.763-.538h-3.528a.81.81,0,0,0-.763.538l-1,2.82-2.235.926.62,1.5,2.568-1.064a.81.81,0,0,0,.453-.477l.932-2.621h2.385l.933,2.621a.809.809,0,0,0,.453.477l2.568,1.064a.81.81,0,0,0,.658-.017l2.512-1.194,1.687,1.687L309.6,32.769a.81.81,0,0,0-.017.658l1.064,2.568a.809.809,0,0,0,.476.452l2.621.932v2.385l-2.621.933a.81.81,0,0,0-.477.453l-1.064,2.567a.81.81,0,0,0,.017.658l1.194,2.512L308.7,48.978l1.145,1.144,2.494-2.494a.81.81,0,0,0,.159-.92L311.216,44,312,42.1l2.82-1a.809.809,0,0,0,.538-.763V36.807a.809.809,0,0,0-.538-.763Z" transform="translate(-250.792 -21.571)"/>
      <path id="Trazado_1262413" data-name="Trazado 1262413" d="M291.992,108.949a5.646,5.646,0,0,1-5.255-3.542l-1.5.607a7.286,7.286,0,1,0,3.112-9.043l.811,1.4a5.667,5.667,0,1,1,2.833,10.576Z" transform="translate(-241.992 -86.283)"/>
      <path id="Trazado_1262414" data-name="Trazado 1262414" d="M332.42,253.667h-2.706v-3.238a2.429,2.429,0,1,0-4.857,0v6.95l-.544-.544a2.527,2.527,0,1,0-3.573,3.574l4.117,4.117v1.284h-.81a.81.81,0,0,0-.809.81V273.9h1.619v-6.476h9.714V273.9h1.619v-7.286a.81.81,0,0,0-.81-.81h-.809v-1.284l1.659-1.66a5.389,5.389,0,0,0-3.81-9.2Zm2.666,8.055-1.9,1.9a.81.81,0,0,0-.237.572v1.619h-6.476V264.19a.809.809,0,0,0-.237-.572l-4.354-4.354a.908.908,0,0,1,1.284-1.284l1.926,1.926a.81.81,0,0,0,1.382-.572v-8.9a.81.81,0,1,1,1.619,0v4.048a.81.81,0,0,0,.81.81h3.516a3.77,3.77,0,0,1,2.666,6.436Z" transform="translate(-273.237 -222.905)"/>
      <path id="Trazado_1262415" data-name="Trazado 1262415" d="M432,456h1.619v1.619H432Z" transform="translate(-373.905 -409.858)"/>
    </g>
  </g>
</svg>
