<svg xmlns="http://www.w3.org/2000/svg" width="76.345" height="76.344" viewBox="0 0 76.345 76.344">
  <g id="Grupo_1203931" data-name="Grupo 1203931" transform="translate(-872.051 -2748)">
    <g id="Grupo_1203830" data-name="Grupo 1203830" transform="translate(-149.64 -345)">
      <g id="Grupo_1200255" data-name="Grupo 1200255" transform="translate(-0.275 0.345)">
        <g id="Grupo_1187152" data-name="Grupo 1187152">
          <g id="Grupo_1185946" data-name="Grupo 1185946" transform="translate(-3.07)">
            <g id="Grupo_1184280" data-name="Grupo 1184280">
              <g id="Grupo_1182168" data-name="Grupo 1182168">
                <g id="Grupo_1178877" data-name="Grupo 1178877">
                  <g id="Grupo_1111311" data-name="Grupo 1111311">
                    <g id="Grupo_1098742" data-name="Grupo 1098742" transform="translate(1025.482 3093.101)">
                      <rect id="Rectángulo_400898" data-name="Rectángulo 400898" width="76.345" height="76.345" rx="38.172" transform="translate(-0.445 -0.445)" fill="#ff9800" opacity="0.859"/>
                      <rect id="Rectángulo_400907" data-name="Rectángulo 400907" width="76.345" height="76.345" rx="38.172" transform="translate(-0.446 -0.445)" fill="none"/>
                    </g>
                  </g>
                </g>
              </g>
            </g>
          </g>
        </g>
      </g>
    </g>
    <g id="deuda" transform="translate(884.051 2760)">
      <g id="Grupo_1203929" data-name="Grupo 1203929" transform="translate(1.804 1.804)">
        <g id="Grupo_1203912" data-name="Grupo 1203912" transform="translate(8.532 25.836)">
          <path id="Trazado_1262416" data-name="Trazado 1262416" d="M22.887,34.725,17.748,50.912,12.61,34.733v-.008a14.016,14.016,0,0,1,1.922-.6,3.109,3.109,0,0,0,3.112,3.112h.209a3.109,3.109,0,0,0,3.112-3.112A14.015,14.015,0,0,1,22.887,34.725Z" transform="translate(-12.61 -34.13)" fill="#fcd770"/>
        </g>
        <g id="Grupo_1203913" data-name="Grupo 1203913" transform="translate(13.67 27.694)">
          <path id="Trazado_1262417" data-name="Trazado 1262417" d="M27.845,52.169v4.825H19V51.364l4.825-3.924L22.216,43.42l3.216-.8,1.126-6.176a13.466,13.466,0,0,1,5.774,8.274,7.958,7.958,0,0,0-1.271,4.318,7.839,7.839,0,0,0,.643,3.136Z" transform="translate(-19 -36.44)" fill="#ff826e"/>
        </g>
        <g id="Grupo_1203914" data-name="Grupo 1203914" transform="translate(0 27.686)">
          <path id="Trazado_1262418" data-name="Trazado 1262418" d="M6.825,52.167H2V47.72A13.5,13.5,0,0,1,8.111,36.43l1.126,6.184,3.216.8-1.608,4.021,4.825,3.924v5.629H6.825Z" transform="translate(-2 -36.43)" fill="#ff826e"/>
        </g>
        <g id="Grupo_1203915" data-name="Grupo 1203915" transform="translate(13.67 26.431)">
          <path id="Trazado_1262419" data-name="Trazado 1262419" d="M22.216,43.112l1.608,4.021L19,51.057,24.138,34.87a13.793,13.793,0,0,1,2.42,1.254v.008l-1.126,6.176Z" transform="translate(-19 -34.87)" fill="#fc6e51"/>
        </g>
        <g id="Grupo_1203916" data-name="Grupo 1203916" transform="translate(6.111 26.439)">
          <path id="Trazado_1262420" data-name="Trazado 1262420" d="M12.02,34.88l5.138,16.179-4.825-3.924,1.608-4.021-3.216-.8L9.6,36.126a12.982,12.982,0,0,1,2.42-1.246Z" transform="translate(-9.6 -34.88)" fill="#fc6e51"/>
        </g>
        <g id="Grupo_1203917" data-name="Grupo 1203917" transform="translate(4.021 3.216)">
          <path id="Trazado_1262421" data-name="Trazado 1262421" d="M13.433,12.433l-.78.193a3.233,3.233,0,0,0-2.436,3.023h-.8a2.392,2.392,0,0,0-1.648.651l-.651-2.629a3.636,3.636,0,0,1,1.52-3.932l.338-.233A2.276,2.276,0,0,1,10.884,6h9.561A5.855,5.855,0,0,1,26.3,11.854,6.125,6.125,0,0,1,26.186,13l-.659,3.289a2.417,2.417,0,0,0-1.64-.643h-.8a1.613,1.613,0,0,0-1.608-1.608H15.041a1.613,1.613,0,0,1-1.608-1.608Z" transform="translate(-7 -6)" fill="#656d78"/>
        </g>
        <g id="Grupo_1203918" data-name="Grupo 1203918" transform="translate(26.536 23.319)">
          <path id="Trazado_1262422" data-name="Trazado 1262422" d="M51.082,33.348a2.357,2.357,0,0,1-.563,1.528l-4.262,4.969H39.825l-4.262-4.969A2.35,2.35,0,0,1,37.348,31h.064c1.407,0,1.407,1.608,2.814,1.608S41.634,31,43.033,31c1.415,0,1.415,1.608,2.822,1.608S47.263,31,48.67,31h.064a2.361,2.361,0,0,1,2.348,2.348Z" transform="translate(-35 -31)" fill="#a0d468"/>
        </g>
        <g id="Grupo_1203919" data-name="Grupo 1203919" transform="translate(25.732 32.165)">
          <path id="Trazado_1262423" data-name="Trazado 1262423" d="M50.806,46.479a7.842,7.842,0,0,0-2.453-2.839L46.062,42H39.629l-2.292,1.64a7.967,7.967,0,0,0-1.729,11.282l.724.828a7.93,7.93,0,0,0,5.629,2.332H43.73a7.958,7.958,0,0,0,7.961-7.961,7.863,7.863,0,0,0-.885-3.643Z" transform="translate(-34 -42)" fill="#b4dd7f"/>
        </g>
        <g id="Grupo_1203920" data-name="Grupo 1203920" transform="translate(0 43.423)">
          <path id="Trazado_1262424" data-name="Trazado 1262424" d="M2,56H6.825v4.825H2Z" transform="translate(-2 -56)" fill="#f0d0b4"/>
        </g>
        <g id="Grupo_1203921" data-name="Grupo 1203921" transform="translate(22.515 43.423)">
          <path id="Trazado_1262425" data-name="Trazado 1262425" d="M34.825,57.665v3.16H30V56h3.86A7.956,7.956,0,0,0,34.825,57.665Z" transform="translate(-30 -56)" fill="#f0d0b4"/>
        </g>
        <g id="Grupo_1203922" data-name="Grupo 1203922" transform="translate(20.103 12.866)">
          <path id="Trazado_1262426" data-name="Trazado 1262426" d="M29.445,18.643a2.414,2.414,0,0,1-1.64,4.181H27V18h.8A2.417,2.417,0,0,1,29.445,18.643Z" transform="translate(-27 -18)" fill="#f0d0b4"/>
        </g>
        <g id="Grupo_1203923" data-name="Grupo 1203923" transform="translate(10.454 23.979)">
          <path id="Trazado_1262427" data-name="Trazado 1262427" d="M21.433,33.678a3.109,3.109,0,0,1-3.112,3.112h-.209A3.109,3.109,0,0,1,15,33.678l.458-1.858a4.552,4.552,0,0,0,1.15.145h3.216a4.552,4.552,0,0,0,1.15-.145Z" transform="translate(-15 -31.82)" fill="#f0d0b4"/>
        </g>
        <g id="Grupo_1203924" data-name="Grupo 1203924" transform="translate(7.237 9.649)">
          <path id="Trazado_1262428" data-name="Trazado 1262428" d="M20.191,28.329a4.552,4.552,0,0,1-1.15.145H15.825a4.552,4.552,0,0,1-1.15-.145A4.814,4.814,0,0,1,11,23.649V17.216a3.233,3.233,0,0,1,2.436-3.023l.78-.193a1.613,1.613,0,0,0,1.608,1.608h6.433a1.613,1.613,0,0,1,1.608,1.608v6.433a4.814,4.814,0,0,1-3.675,4.68Z" transform="translate(-11 -14)" fill="#f0d0b4"/>
        </g>
        <g id="Grupo_1203925" data-name="Grupo 1203925" transform="translate(4.021 12.866)">
          <path id="Trazado_1262429" data-name="Trazado 1262429" d="M10.216,18v4.825h-.8a2.412,2.412,0,0,1,0-4.825Z" transform="translate(-7 -18)" fill="#f0d0b4"/>
        </g>
        <g id="Grupo_1203926" data-name="Grupo 1203926" transform="translate(10.454 17.691)">
          <path id="Trazado_1262430" data-name="Trazado 1262430" d="M15,24h6.433A3.216,3.216,0,1,1,15,24Z" transform="translate(-15 -24)" fill="#ff826e"/>
        </g>
        <g id="Grupo_1203927" data-name="Grupo 1203927" transform="translate(25.732)">
          <path id="Trazado_1262431" data-name="Trazado 1262431" d="M55.832,5.594a1.449,1.449,0,0,1,0,2.461l-5.444,3.4a1.219,1.219,0,0,1-.667.193A1.253,1.253,0,0,1,48.474,10.4V9.237H34V4.412H48.474V3.246A1.253,1.253,0,0,1,49.721,2a1.219,1.219,0,0,1,.667.193Z" transform="translate(-34 -2)" fill="#ffeaa7"/>
        </g>
        <g id="Grupo_1203928" data-name="Grupo 1203928" transform="translate(26.536 10.454)">
          <path id="Trazado_1262432" data-name="Trazado 1262432" d="M57.515,17.412v4.825H43.041V23.4a1.253,1.253,0,0,1-1.246,1.246,1.219,1.219,0,0,1-.667-.193l-5.444-3.4a1.449,1.449,0,0,1,0-2.461l5.444-3.4A1.219,1.219,0,0,1,41.795,15a1.253,1.253,0,0,1,1.246,1.246v1.166Z" transform="translate(-35 -15)" fill="#ffeaa7"/>
        </g>
      </g>
      <g id="Grupo_1203930" data-name="Grupo 1203930" transform="translate(1 1)">
        <path id="Trazado_1262433" data-name="Trazado 1262433" d="M43.412,48.216h1.608a.8.8,0,0,1,.8.8h1.608a2.415,2.415,0,0,0-2.412-2.412V45H43.412v1.608a2.412,2.412,0,1,0,0,4.825h1.608a.8.8,0,1,1,0,1.608H43.412a.8.8,0,0,1-.8-.8H41a2.415,2.415,0,0,0,2.412,2.412v1.608h1.608V54.649a2.412,2.412,0,0,0,0-4.825H43.412a.8.8,0,1,1,0-1.608Z" transform="translate(-8.835 -9.619)"/>
        <path id="Trazado_1262434" data-name="Trazado 1262434" d="M42.359,35.737,40.78,34.609l3.688-4.3A3.154,3.154,0,0,0,42.01,25.1,2.557,2.557,0,0,0,40,26.181c-.351.4-.491.53-.8.53s-.453-.129-.8-.53a2.416,2.416,0,0,0-4.025,0c-.349.4-.489.529-.8.529s-.451-.129-.8-.529A2.584,2.584,0,0,0,30.688,25.1a3.152,3.152,0,0,0-2.393,5.2l3.688,4.3L30.4,35.736a8.685,8.685,0,0,0-1.262,1.119,14.383,14.383,0,0,0-9.788-9.095L19.19,27.1a5.633,5.633,0,0,0,3.521-5.215v-.8a3.22,3.22,0,0,0,3.216-3.216,3.186,3.186,0,0,0-.712-1.993l.581-2.909A6.654,6.654,0,0,0,19.27,5H9.707A3.045,3.045,0,0,0,6.794,9.036,4.452,4.452,0,0,0,5.021,12.59a4.5,4.5,0,0,0,.133,1.084L5.711,15.9a3.2,3.2,0,0,0,2.527,5.183v.8A5.634,5.634,0,0,0,11.759,27.1l-.165.659A14.221,14.221,0,0,0,1,41.564V51.639H29.948V49.651A8.728,8.728,0,0,0,35.5,51.639h1.763a8.768,8.768,0,0,0,5.1-15.9ZM29.144,28.255a1.56,1.56,0,0,1,1.608-1.544c.312,0,.451.129.8.529a2.414,2.414,0,0,0,4.023,0c.35-.4.489-.529.8-.529s.453.129.8.53a2.418,2.418,0,0,0,4.026,0c.351-.4.491-.53.868-.53a1.544,1.544,0,0,1,1.172,2.549l-4.019,4.688H33.535L29.516,29.26a1.543,1.543,0,0,1-.372-1Zm-1.2,10.2a8.606,8.606,0,0,0-.889,6.754H25.124V40.381H23.515v9.649H16.278V45.589l4.987-4.053-1.487-3.715,2.826-.707.986-5.421a12.717,12.717,0,0,1,4.356,6.759ZM15.37,32.34h.209a3.912,3.912,0,0,0,3.768-2.907c.088.027.174.06.262.088L15.457,42.6,11.335,29.516c.088-.029.179-.051.268-.077A3.912,3.912,0,0,0,15.37,32.34Zm3.02,6.337.942,2.357-2.278,1.851Zm.747-2.353,1.969-6.2c.355.17.7.36,1.035.562l-.932,5.124Zm-7.326,0-2.072-.518L8.8,30.668q.5-.3,1.037-.549Zm.747,2.353,1.336,4.208-2.278-1.851Zm10.153-19.2V16.258a1.608,1.608,0,1,1,0,3.216ZM6.629,17.866a1.61,1.61,0,0,1,1.608-1.608v3.216A1.61,1.61,0,0,1,6.629,17.866Zm1.723-3.216H8.237a3.19,3.19,0,0,0-1.128.215l-.395-1.579a2.9,2.9,0,0,1-.085-.695A2.84,2.84,0,0,1,7.678,10.4l.794.794L9.61,10.06l-.942-.942a1.47,1.47,0,0,1,1.04-2.51H19.27a5.049,5.049,0,0,1,4.951,6.039l-.44,2.2a3.194,3.194,0,0,0-1.07-.2h-.148A2.409,2.409,0,0,0,20.3,13.041H13.866a.8.8,0,1,1,0-1.608h.8V9.825h-.8a2.418,2.418,0,0,0-2.324,1.763l-.259.065A4,4,0,0,0,8.352,14.649Zm1.493,7.237V15.552a2.408,2.408,0,0,1,1.816-2.337,2.415,2.415,0,0,0,2.2,1.434H20.3a.8.8,0,0,1,.8.8v6.433a4.025,4.025,0,0,1-4.021,4.021H13.866A4.025,4.025,0,0,1,9.845,21.887Zm4.021,5.629h3.216c.184,0,.366-.01.545-.027l.252,1.008a2.306,2.306,0,0,1-2.3,2.236H15.37a2.306,2.306,0,0,1-2.3-2.236l.252-1.008c.179.017.361.027.545.027ZM7.353,31.669l.99,5.446,2.826.707L9.682,41.537l4.988,4.052v4.442H7.433V40.381H5.825v4.825H2.608V41.564A12.617,12.617,0,0,1,7.353,31.669ZM2.608,46.814H5.825v3.216H2.608Zm22.515,3.216V46.814h2.555a8.732,8.732,0,0,0,.661,1.1v2.116Zm12.14,0H35.5a7.159,7.159,0,0,1-4.161-12.985l2.083-1.489H39.34l2.084,1.489a7.159,7.159,0,0,1-4.161,12.985Z" transform="translate(-1 -1.784)"/>
        <path id="Trazado_1262435" data-name="Trazado 1262435" d="M43.649,16.054a2.055,2.055,0,0,0-3.143-1.742l-5.447,3.4a2.256,2.256,0,0,0,0,3.824l5.448,3.4A2.054,2.054,0,0,0,43.649,23.2v-.359H55.711V21.237H42.041V23.2a.46.46,0,0,1-.682.378l-5.447-3.4a.647.647,0,0,1,0-1.1l5.446-3.4a.46.46,0,0,1,.683.378v1.967H57.319V16.412H43.649Z" transform="translate(-7.464 -3.546)"/>
        <path id="Trazado_1262436" data-name="Trazado 1262436" d="M49.278,3.054a.459.459,0,0,1,.682-.378l5.447,3.4a.647.647,0,0,1,0,1.1l-5.446,3.4a.46.46,0,0,1-.683-.378V8.237H35.608V9.845H47.67V10.2a2.055,2.055,0,0,0,3.143,1.742l5.447-3.4a2.256,2.256,0,0,0,0-3.824l-5.448-3.4A2.054,2.054,0,0,0,47.67,3.054v.359H34V5.021H49.278Z" transform="translate(-7.464 -1)"/>
        <path id="Trazado_1262437" data-name="Trazado 1262437" d="M22.041,23.8V23H14v.8a4.021,4.021,0,0,0,8.041,0Zm-6.3.8H20.3a2.413,2.413,0,0,1-4.55,0Z" transform="translate(-3.546 -5.309)"/>
        <circle id="Elipse_12662" data-name="Elipse 12662" cx="0.5" cy="0.5" r="0.5" transform="translate(16.863 15)"/>
        <circle id="Elipse_12663" data-name="Elipse 12663" cx="0.5" cy="0.5" r="0.5" transform="translate(10.863 15)"/>
      </g>
    </g>
  </g>
</svg>
