<svg xmlns="http://www.w3.org/2000/svg" width="76.345" height="76.344" viewBox="0 0 76.345 76.344">
  <g id="Grupo_1203950" data-name="Grupo 1203950" transform="translate(-1082.155 -2748.155)">
    <g id="Grupo_1203831" data-name="Grupo 1203831" transform="translate(60.464 -344.845)">
      <g id="Grupo_1200255" data-name="Grupo 1200255" transform="translate(-0.275 0.345)">
        <g id="Grupo_1187152" data-name="Grupo 1187152">
          <g id="Grupo_1185946" data-name="Grupo 1185946" transform="translate(-3.07)">
            <g id="Grupo_1184280" data-name="Grupo 1184280">
              <g id="Grupo_1182168" data-name="Grupo 1182168">
                <g id="Grupo_1178877" data-name="Grupo 1178877">
                  <g id="Grupo_1111311" data-name="Grupo 1111311">
                    <g id="Grupo_1098742" data-name="Grupo 1098742" transform="translate(1025.482 3093.101)">
                      <rect id="Rectángulo_400898" data-name="Rectángulo 400898" width="76.345" height="76.345" rx="38.172" transform="translate(-0.445 -0.445)" fill="#ff9800" opacity="0.859"/>
                      <rect id="Rectángulo_400907" data-name="Rectángulo 400907" width="76.345" height="76.345" rx="38.172" transform="translate(-0.446 -0.445)" fill="none"/>
                    </g>
                  </g>
                </g>
              </g>
            </g>
          </g>
        </g>
      </g>
    </g>
    <g id="acreedor" transform="translate(1088.099 2786.771)">
      <path id="Trazado_1262438" data-name="Trazado 1262438" d="M43.732,366.3a1.1,1.1,0,0,1-1.1-1.1v-2.979a1.1,1.1,0,0,1,1.1-1.1v-.2a1.1,1.1,0,0,1-1.1-1.1v-2.979a1.1,1.1,0,0,1,1.1-1.1v-.2a1.1,1.1,0,0,1-1.1-1.1v-2.437A7.486,7.486,0,0,0,38.911,351H20.276a7.523,7.523,0,0,0-7.523,7.523v6.369a1.5,1.5,0,0,0,1.5,1.5H43.732v-.1Z" transform="translate(-6.748 -344.378)" fill="#c8effe"/>
      <path id="Trazado_1262439" data-name="Trazado 1262439" d="M229.145,366.4h4.786v-.1a1.1,1.1,0,0,1-1.1-1.1v-2.979a1.1,1.1,0,0,1,1.1-1.1v-.2a1.1,1.1,0,0,1-1.1-1.1v-2.979a1.1,1.1,0,0,1,1.1-1.1v-.2a1.1,1.1,0,0,1-1.1-1.1v-2.437A7.486,7.486,0,0,0,229.11,351h-4.954a7.843,7.843,0,0,1,5.6,7.515v6.639A1.564,1.564,0,0,1,229.145,366.4Z" transform="translate(-196.947 -344.378)" fill="#99e6fc"/>
      <path id="Trazado_1262440" data-name="Trazado 1262440" d="M328.634,240.183V237.2a1.2,1.2,0,0,0-1.2-1.2H310.817a1.2,1.2,0,0,0-1.2,1.2v2.979a1.2,1.2,0,0,1,0,2.407v2.979a1.2,1.2,0,0,1,0,2.407v2.979a1.2,1.2,0,0,1,0,2.407v2.979a1.2,1.2,0,0,1,0,2.407v2.979a1.2,1.2,0,0,0,1.2,1.2H327.43a1.2,1.2,0,0,0,1.2-1.2v-2.979a1.2,1.2,0,0,1,0-2.407v-2.979a1.2,1.2,0,0,1,0-2.407v-2.979a1.2,1.2,0,0,1,0-2.407V242.59a1.2,1.2,0,0,1,0-2.407Z" transform="translate(-273.832 -240.913)" fill="#ffe177"/>
      <path id="Trazado_1262441" data-name="Trazado 1262441" d="M6.005,353.982a.752.752,0,0,1-.752-.752v-1.454a8.284,8.284,0,0,1,8.275-8.275h4.28a.752.752,0,0,1,0,1.5h-4.28a6.778,6.778,0,0,0-6.77,6.77v1.454A.752.752,0,0,1,6.005,353.982Z" transform="translate(0 -337.63)"/>
      <path id="Trazado_1262442" data-name="Trazado 1262442" d="M231.623,345.931a.748.748,0,0,1-.362-.093,6.776,6.776,0,0,0-3.255-.833h-4.325a.752.752,0,0,1,0-1.5h4.325a8.285,8.285,0,0,1,3.98,1.019.752.752,0,0,1-.363,1.412Z" transform="translate(-195.843 -337.63)"/>
      <path id="Trazado_1262443" data-name="Trazado 1262443" d="M36.985,472.413H7.51a2.259,2.259,0,0,1-2.257-2.257v-1.4a.752.752,0,1,1,1.5,0v1.4a.753.753,0,0,0,.752.752H36.985a.752.752,0,1,1,0,1.5Z" transform="translate(0 -449.643)"/>
      <g id="Grupo_1203933" data-name="Grupo 1203933" transform="translate(18.718 5.74)">
        <g id="Grupo_1203932" data-name="Grupo 1203932" transform="translate(1.827)">
          <path id="Trazado_1262444" data-name="Trazado 1262444" d="M160.243,342.293a.4.4,0,0,0-.492,0l-2.032,1.577.8,3.153h2.962l.8-3.149Z" transform="translate(-157.719 -342.209)" fill="#b9acac"/>
        </g>
        <path id="Trazado_1262445" data-name="Trazado 1262445" d="M171.873,343.272a.3.3,0,0,0-.369,0l-.79.613a2.376,2.376,0,0,1,.768,2.4l-.416,1.641h2.106l.772-3.043Z" transform="translate(-167.583 -343.109)" fill="#9e9797"/>
        <path id="Trazado_1262446" data-name="Trazado 1262446" d="M154.973,356.881h-2.962a.752.752,0,0,1-.729-.567l-.773-3.047a.752.752,0,1,1,1.458-.37l.629,2.479h1.791l.628-2.476a.752.752,0,0,1,1.458.37l-.772,3.043A.752.752,0,0,1,154.973,356.881Z" transform="translate(-149.384 -351.314)"/>
        <path id="Trazado_1262447" data-name="Trazado 1262447" d="M147,401.67l1.875-11.464h2.962l1.914,11.464Z" transform="translate(-146.248 -385.392)" fill="#9e9797"/>
        <path id="Trazado_1262448" data-name="Trazado 1262448" d="M176.327,390.206h-2.106l1.914,11.464h2.106Z" transform="translate(-170.738 -385.392)" fill="#766e6e"/>
        <path id="Trazado_1262449" data-name="Trazado 1262449" d="M147,395.674h-6.751a.752.752,0,0,1-.742-.874l1.875-11.464a.752.752,0,0,1,.742-.631h2.962a.752.752,0,0,1,.742.628l1.914,11.464a.752.752,0,0,1-.742.876Zm-5.865-1.5h4.977l-1.663-9.959h-1.685Z" transform="translate(-139.5 -378.644)"/>
      </g>
      <path id="Trazado_1262450" data-name="Trazado 1262450" d="M137.4,325.251h-3.866a4.777,4.777,0,0,1-3.1-1.144v5.114a.3.3,0,0,0,.485.238l4.345-3.373a.3.3,0,0,1,.369,0l4.345,3.373a.3.3,0,0,0,.485-.238v-5.076A4.776,4.776,0,0,1,137.4,325.251Z" transform="translate(-112.621 -320.183)" fill="#99e6fc"/>
      <path id="Trazado_1262451" data-name="Trazado 1262451" d="M123.984,324.735a1.056,1.056,0,0,1-1.055-1.054V318.7a.752.752,0,1,1,1.5,0v4.058l3.617-2.808a1.053,1.053,0,0,1,1.292,0l3.617,2.808v-4.023a.752.752,0,1,1,1.5,0v4.945a1.053,1.053,0,0,1-1.7.832l-4.068-3.158-4.068,3.158A1.049,1.049,0,0,1,123.984,324.735Z" transform="translate(-105.873 -314.642)"/>
      <g id="Grupo_1203949" data-name="Grupo 1203949" transform="translate(11.612 -31.771)">
        <g id="Grupo_1203935" data-name="Grupo 1203935" transform="translate(24.169 37.63)">
          <g id="Grupo_1203934" data-name="Grupo 1203934" transform="translate(0)">
            <path id="Trazado_1262452" data-name="Trazado 1262452" d="M459.134,450.8H456a1.2,1.2,0,0,1,1.2,1.2v2.979a1.2,1.2,0,0,1-1.2,1.2h3.134a1.2,1.2,0,0,0,1.2-1.2V452A1.2,1.2,0,0,0,459.134,450.8Z" transform="translate(-441.317 -440.027)" fill="#ffd15b"/>
            <path id="Trazado_1262453" data-name="Trazado 1262453" d="M327.43,402.486H310.817a1.2,1.2,0,0,1-1.2-1.2V398.3a1.2,1.2,0,0,1,1.2-1.2H327.43a1.2,1.2,0,0,1,1.2,1.2v2.979A1.2,1.2,0,0,1,327.43,402.486Z" transform="translate(-309.613 -391.714)" fill="#ffd15b"/>
            <path id="Trazado_1262454" data-name="Trazado 1262454" d="M459.134,397.1H456a1.2,1.2,0,0,1,1.2,1.2v2.979a1.2,1.2,0,0,1-1.2,1.2h3.134a1.2,1.2,0,0,0,1.2-1.2V398.3A1.2,1.2,0,0,0,459.134,397.1Z" transform="translate(-441.317 -391.714)" fill="#ffc344"/>
            <path id="Trazado_1262455" data-name="Trazado 1262455" d="M459.134,343.4H456a1.2,1.2,0,0,1,1.2,1.2v2.979a1.2,1.2,0,0,1-1.2,1.2h3.134a1.2,1.2,0,0,0,1.2-1.2V344.6A1.2,1.2,0,0,0,459.134,343.4Z" transform="translate(-441.317 -343.4)" fill="#ffd15b"/>
          </g>
        </g>
        <g id="Grupo_1203940" data-name="Grupo 1203940" transform="translate(20.229 0)">
          <g id="Grupo_1203939" data-name="Grupo 1203939">
            <g id="Grupo_1203937" data-name="Grupo 1203937">
              <circle id="Elipse_12664" data-name="Elipse 12664" cx="9.51" cy="9.51" r="9.51" transform="translate(0 13.45) rotate(-45)" fill="#ffe177"/>
              <path id="Trazado_1262456" data-name="Trazado 1262456" d="M385.711,7.5a9.544,9.544,0,0,0-2.087.23,9.512,9.512,0,0,1,0,18.56A9.511,9.511,0,1,0,385.711,7.5Z" transform="translate(-372.261 -3.561)" fill="#ffd15b"/>
              <path id="Trazado_1262457" data-name="Trazado 1262457" d="M313.83,20.525a10.26,10.26,0,0,1-10.088-8.369.752.752,0,0,1,1.479-.276,8.758,8.758,0,1,0,0-3.235.752.752,0,0,1-1.479-.276A10.263,10.263,0,1,1,313.83,20.525Z" transform="translate(-300.38 3.187)"/>
              <g id="Grupo_1203936" data-name="Grupo 1203936" transform="translate(9.678 6.956)">
                <path id="Trazado_1262458" data-name="Trazado 1262458" d="M371.828,63.64h-2.46a2.545,2.545,0,0,1-2.542-2.542.752.752,0,1,1,1.5,0,1.038,1.038,0,0,0,1.037,1.037h2.46a1.038,1.038,0,0,0,1.037-1.037v-.522a1.038,1.038,0,0,0-1.037-1.037h-2.46A2.545,2.545,0,0,1,366.826,57v-.522a2.545,2.545,0,0,1,2.542-2.542h2.46a2.545,2.545,0,0,1,2.542,2.542.752.752,0,1,1-1.5,0,1.038,1.038,0,0,0-1.037-1.037h-2.46a1.038,1.038,0,0,0-1.037,1.037V57a1.038,1.038,0,0,0,1.037,1.037h2.46a2.545,2.545,0,0,1,2.542,2.542V61.1A2.545,2.545,0,0,1,371.828,63.64Z" transform="translate(-366.826 -52.294)"/>
                <path id="Línea_1963" data-name="Línea 1963" d="M-6.748-4.355A.752.752,0,0,1-7.5-5.107v-1.64A.752.752,0,0,1-6.748-7.5.752.752,0,0,1-6-6.748v1.64A.752.752,0,0,1-6.748-4.355Z" transform="translate(10.519 7.5)"/>
                <path id="Línea_1964" data-name="Línea 1964" d="M-6.748-4.355A.752.752,0,0,1-7.5-5.107v-1.64A.752.752,0,0,1-6.748-7.5.752.752,0,0,1-6-6.748v1.64A.752.752,0,0,1-6.748-4.355Z" transform="translate(10.519 17.342)"/>
              </g>
            </g>
            <g id="Grupo_1203938" data-name="Grupo 1203938" transform="translate(6.689 11.782)">
              <path id="Línea_1965" data-name="Línea 1965" d="M-6.748-4.684A.752.752,0,0,1-7.5-5.436V-6.748A.752.752,0,0,1-6.748-7.5.752.752,0,0,1-6-6.748v1.312A.752.752,0,0,1-6.748-4.684Z" transform="translate(7.5 7.5)"/>
              <path id="Línea_1966" data-name="Línea 1966" d="M-6.748-4.684A.752.752,0,0,1-7.5-5.436V-6.748A.752.752,0,0,1-6.748-7.5.752.752,0,0,1-6-6.748v1.312A.752.752,0,0,1-6.748-4.684Z" transform="translate(19.518 7.5)"/>
            </g>
          </g>
        </g>
        <path id="Trazado_1262459" data-name="Trazado 1262459" d="M327.43,295.086H310.817a1.2,1.2,0,0,1-1.2-1.2V290.9a1.2,1.2,0,0,1,1.2-1.2H327.43a1.2,1.2,0,0,1,1.2,1.2v2.979A1.2,1.2,0,0,1,327.43,295.086Z" transform="translate(-285.444 -257.456)" fill="#ffd15b"/>
        <path id="Trazado_1262460" data-name="Trazado 1262460" d="M459.134,289.7H456a1.2,1.2,0,0,1,1.2,1.2v2.979a1.2,1.2,0,0,1-1.2,1.2h3.134a1.2,1.2,0,0,0,1.2-1.2V290.9A1.2,1.2,0,0,0,459.134,289.7Z" transform="translate(-417.148 -257.456)" fill="#ffc344"/>
        <path id="Trazado_1262461" data-name="Trazado 1262461" d="M459.134,236H456a1.2,1.2,0,0,1,1.2,1.2v2.979a1.2,1.2,0,0,1-1.2,1.2h3.134a1.2,1.2,0,0,0,1.2-1.2V237.2A1.2,1.2,0,0,0,459.134,236Z" transform="translate(-417.148 -209.142)" fill="#ffd15b"/>
        <g id="Grupo_1203942" data-name="Grupo 1203942" transform="translate(23.417 36.878)">
          <g id="Grupo_1203941" data-name="Grupo 1203941" transform="translate(0)">
            <path id="Trazado_1262462" data-name="Trazado 1262462" d="M320.682,450.191H304.069a1.958,1.958,0,0,1-1.956-1.956v-2.979a1.958,1.958,0,0,1,1.956-1.956h16.614a1.958,1.958,0,0,1,1.956,1.956v2.979A1.958,1.958,0,0,1,320.682,450.191ZM304.069,444.8a.452.452,0,0,0-.451.451v2.979a.452.452,0,0,0,.451.451h16.613a.452.452,0,0,0,.451-.451v-2.979a.452.452,0,0,0-.451-.451Z" transform="translate(-302.113 -432.528)"/>
            <path id="Trazado_1262463" data-name="Trazado 1262463" d="M320.682,396.491H304.069a1.958,1.958,0,0,1-1.956-1.956v-2.979a1.958,1.958,0,0,1,1.956-1.956h16.614a1.958,1.958,0,0,1,1.956,1.956v2.979A1.958,1.958,0,0,1,320.682,396.491ZM304.069,391.1a.452.452,0,0,0-.451.451v2.979a.452.452,0,0,0,.451.451h16.613a.452.452,0,0,0,.451-.451v-2.979a.452.452,0,0,0-.451-.451Z" transform="translate(-302.113 -384.214)"/>
            <path id="Trazado_1262464" data-name="Trazado 1262464" d="M320.682,342.791H304.069a1.958,1.958,0,0,1-1.956-1.956v-2.979a1.958,1.958,0,0,1,1.956-1.956h9.568a.752.752,0,1,1,0,1.5h-9.568a.452.452,0,0,0-.451.451v2.979a.452.452,0,0,0,.451.451h16.614a.452.452,0,0,0,.451-.451v-2.979a.452.452,0,0,0-.451-.451h-3.535a.752.752,0,1,1,0-1.5h3.535a1.958,1.958,0,0,1,1.956,1.956v2.979A1.958,1.958,0,0,1,320.682,342.791Z" transform="translate(-302.113 -335.9)"/>
          </g>
        </g>
        <path id="Trazado_1262465" data-name="Trazado 1262465" d="M320.682,289.091h-3.535a.752.752,0,1,1,0-1.5h3.535a.452.452,0,0,0,.451-.451v-2.979a.452.452,0,0,0-.451-.451H304.069a.452.452,0,0,0-.451.451v2.979a.452.452,0,0,0,.451.451h9.568a.752.752,0,0,1,0,1.5h-9.568a1.958,1.958,0,0,1-1.956-1.956v-2.979a1.958,1.958,0,0,1,1.956-1.956h16.613a1.958,1.958,0,0,1,1.956,1.956v2.979A1.958,1.958,0,0,1,320.682,289.091Z" transform="translate(-278.696 -250.708)"/>
        <path id="Trazado_1262466" data-name="Trazado 1262466" d="M320.682,235.391H304.069a1.958,1.958,0,0,1-1.956-1.956v-2.979a1.958,1.958,0,0,1,1.956-1.956h16.614a1.958,1.958,0,0,1,1.956,1.956v2.979A1.958,1.958,0,0,1,320.682,235.391ZM304.069,230a.452.452,0,0,0-.451.451v2.979a.452.452,0,0,0,.451.451h16.613a.452.452,0,0,0,.451-.451v-2.979a.452.452,0,0,0-.451-.451Z" transform="translate(-278.696 -202.394)"/>
        <g id="Grupo_1203948" data-name="Grupo 1203948" transform="translate(0 15.683)">
          <g id="Grupo_1203943" data-name="Grupo 1203943" transform="translate(1.13)">
            <path id="Trazado_1262467" data-name="Trazado 1262467" d="M216.6,156.7v2.54h.587a1.911,1.911,0,0,1,1.909,1.909v1.193h1.078a2.572,2.572,0,0,1,1.543.512v-3.71a4.863,4.863,0,0,0-4.863-4.863H215.9A4.517,4.517,0,0,1,216.6,156.7Z" transform="translate(-202.263 -151.299)" fill="#a44f3e"/>
            <path id="Trazado_1262468" data-name="Trazado 1262468" d="M216.058,156.747a.752.752,0,0,1-.752-.752v-3.6a4.116,4.116,0,0,0-4.111-4.111h-.831a.752.752,0,1,1,0-1.5h.831a5.622,5.622,0,0,1,5.616,5.616v3.6A.752.752,0,0,1,216.058,156.747Z" transform="translate(-196.602 -144.551)"/>
            <path id="Trazado_1262469" data-name="Trazado 1262469" d="M88.96,142.382h1.078v-1.207a1.911,1.911,0,0,1,1.909-1.909H101.1v-2.54a4.645,4.645,0,0,0-4.645-4.645h-4.4a4.645,4.645,0,0,0-4.645,4.645V142.9A2.559,2.559,0,0,1,88.96,142.382Z" transform="translate(-86.665 -131.329)" fill="#bb5d4c"/>
            <path id="Trazado_1262470" data-name="Trazado 1262470" d="M80.669,136.778a.752.752,0,0,1-.752-.752v-6.047a5.4,5.4,0,0,1,5.4-5.4h4.4a5.4,5.4,0,0,1,5.4,5.4v2.44a.752.752,0,1,1-1.5,0v-2.44a3.9,3.9,0,0,0-3.893-3.893h-4.4a3.9,3.9,0,0,0-3.893,3.893v6.047A.752.752,0,0,1,80.669,136.778Z" transform="translate(-79.917 -124.582)"/>
          </g>
          <g id="Grupo_1203944" data-name="Grupo 1203944" transform="translate(0 10.201)">
            <path id="Trazado_1262471" data-name="Trazado 1262471" d="M79.888,233.783H78.824a2.673,2.673,0,0,0-2.673,2.673h0a2.673,2.673,0,0,0,2.673,2.673h1.064Z" transform="translate(-75.399 -233.031)" fill="#ffb09e"/>
            <path id="Trazado_1262472" data-name="Trazado 1262472" d="M72.076,226.283h.977a.752.752,0,0,1,.752.752v5.345a.752.752,0,0,1-.752.752h-.977a3.425,3.425,0,1,1,0-6.85Zm.225,1.5h-.225a1.92,1.92,0,1,0,0,3.841H72.3Z" transform="translate(-68.651 -226.283)"/>
            <path id="Trazado_1262473" data-name="Trazado 1262473" d="M248.959,233.783H247.9v5.345h1.064a2.673,2.673,0,0,0,2.673-2.673h0A2.672,2.672,0,0,0,248.959,233.783Z" transform="translate(-229.916 -233.031)" fill="#f89580"/>
            <path id="Trazado_1262474" data-name="Trazado 1262474" d="M242.014,226.283h.977a3.425,3.425,0,0,1,0,6.85h-.977a.752.752,0,0,1-.752-.752v-5.345A.752.752,0,0,1,242.014,226.283Zm.977,5.345a1.92,1.92,0,1,0,0-3.841h-.225v3.841Z" transform="translate(-223.949 -226.283)"/>
          </g>
          <path id="Trazado_1262475" data-name="Trazado 1262475" d="M121.3,216.137h-3.866a4.9,4.9,0,0,1-4.9-4.9v-6.512a2.009,2.009,0,0,1,2.009-2.009h9.645a2.009,2.009,0,0,1,2.009,2.009v6.512A4.9,4.9,0,0,1,121.3,216.137Z" transform="translate(-108.137 -194.88)" fill="#ffcebf"/>
          <path id="Trazado_1262476" data-name="Trazado 1262476" d="M174.434,202.718h-3.164a2.009,2.009,0,0,1,2.009,2.009v6.512a4.9,4.9,0,0,1-4.9,4.9h3.163a4.9,4.9,0,0,0,4.9-4.9v-6.512A2.009,2.009,0,0,0,174.434,202.718Z" transform="translate(-158.378 -194.881)" fill="#ffb09e"/>
          <path id="Trazado_1262477" data-name="Trazado 1262477" d="M114.556,210.141H110.69a5.658,5.658,0,0,1-5.651-5.651v-6.512a2.765,2.765,0,0,1,2.762-2.762h9.645a2.765,2.765,0,0,1,2.762,2.762v6.512A5.658,5.658,0,0,1,114.556,210.141Zm-6.755-13.42a1.259,1.259,0,0,0-1.257,1.257v6.512a4.151,4.151,0,0,0,4.147,4.147h3.866a4.151,4.151,0,0,0,4.147-4.147v-6.512a1.259,1.259,0,0,0-1.257-1.257Z" transform="translate(-101.389 -188.132)"/>
          <g id="Grupo_1203947" data-name="Grupo 1203947" transform="translate(7.224 10.336)">
            <g id="Grupo_1203945" data-name="Grupo 1203945">
              <path id="Línea_1967" data-name="Línea 1967" d="M-6.748-4.859A.752.752,0,0,1-7.5-5.611V-6.748A.752.752,0,0,1-6.748-7.5.752.752,0,0,1-6-6.748v1.137A.752.752,0,0,1-6.748-4.859Z" transform="translate(7.5 7.5)"/>
              <path id="Línea_1968" data-name="Línea 1968" d="M-6.748-4.859A.752.752,0,0,1-7.5-5.611V-6.748A.752.752,0,0,1-6.748-7.5.752.752,0,0,1-6-6.748v1.137A.752.752,0,0,1-6.748-4.859Z" transform="translate(14.014 7.5)"/>
            </g>
            <path id="Trazado_1262478" data-name="Trazado 1262478" d="M167,251.3q-.036,0-.072,0a1.6,1.6,0,0,1,0-3.187.752.752,0,0,1,.142,1.5c-.051,0-.087.008-.087.1s.036.091.087.1a.752.752,0,0,1-.07,1.5Z" transform="translate(-162.989 -246.05)"/>
            <g id="Grupo_1203946" data-name="Grupo 1203946" transform="translate(1.588 6.188)">
              <path id="Trazado_1262479" data-name="Trazado 1262479" d="M167.346,296.829a2.361,2.361,0,0,1-3.339,0" transform="translate(-163.255 -296.077)" fill="#fff"/>
              <path id="Trazado_1262480" data-name="Trazado 1262480" d="M158.929,291.524a3.1,3.1,0,0,1-2.2-.91.752.752,0,0,1,1.064-1.064,1.61,1.61,0,0,0,2.275,0,.752.752,0,0,1,1.064,1.064A3.1,3.1,0,0,1,158.929,291.524Z" transform="translate(-156.507 -289.329)"/>
            </g>
          </g>
        </g>
      </g>
    </g>
  </g>
</svg>
