<svg xmlns="http://www.w3.org/2000/svg" xmlns:xlink="http://www.w3.org/1999/xlink" width="124.943" height="111.726" viewBox="0 0 124.943 111.726">
  <defs>
    <filter id="Elipse_12607" x="54.072" y="40.855" width="70.871" height="70.871" filterUnits="userSpaceOnUse">
      <feOffset dy="3" input="SourceAlpha"/>
      <feGaussianBlur stdDeviation="3" result="blur"/>
      <feFlood flood-opacity="0.161"/>
      <feComposite operator="in" in2="blur"/>
      <feComposite in="SourceGraphic"/>
    </filter>
    <filter id="Elipse_12608" x="0" y="0" width="56.452" height="56.452" filterUnits="userSpaceOnUse">
      <feOffset dy="3" input="SourceAlpha"/>
      <feGaussianBlur stdDeviation="3" result="blur-2"/>
      <feFlood flood-opacity="0.161"/>
      <feComposite operator="in" in2="blur-2"/>
      <feComposite in="SourceGraphic"/>
    </filter>
  </defs>
  <g id="Grupo_1203860" data-name="Grupo 1203860" transform="translate(-1084.778 -1768.234)">
    <g id="Grupo_1203816" data-name="Grupo 1203816" transform="translate(293.778 -775)">
      <g id="Grupo_1203357" data-name="Grupo 1203357" transform="translate(800 2549.234)">
        <g transform="matrix(1, 0, 0, 1, -9, -6)" filter="url(#Elipse_12607)">
          <circle id="Elipse_12607-2" data-name="Elipse 12607" cx="26.435" cy="26.435" r="26.435" transform="translate(63.07 46.85)" fill="#ff9800"/>
        </g>
        <g transform="matrix(1, 0, 0, 1, -9, -6)" filter="url(#Elipse_12608)">
          <circle id="Elipse_12608-2" data-name="Elipse 12608" cx="19.226" cy="19.226" r="19.226" transform="translate(9 6)" fill="#ff9800"/>
        </g>
      </g>
    </g>
    <g id="ganancia" transform="translate(1070.443 1774.761)">
      <g id="Grupo_1203859" data-name="Grupo 1203859" transform="translate(46.042 8.973)">
        <path id="Trazado_1262300" data-name="Trazado 1262300" d="M70.826,128.97a2.127,2.127,0,1,1-2.6-3.366l4.6-3.538a2.126,2.126,0,0,1,2.625.021l4.577,3.518a2.127,2.127,0,0,1-2.6,3.366l-1.168-.9v8.07a2.134,2.134,0,0,1-4.261,0v-8.07Z" transform="translate(-65.092 -104.674)" fill="#8ac9fe" fill-rule="evenodd"/>
        <path id="Trazado_1262301" data-name="Trazado 1262301" d="M144.72,21.588a2.126,2.126,0,0,1-2.6-3.365l4.6-3.538a2.126,2.126,0,0,1,2.625.021l4.577,3.518a2.126,2.126,0,0,1-2.6,3.365l-1.168-.9v8.07a2.134,2.134,0,0,1-4.261,0V20.69Z" transform="translate(-127.324 -14.242)" fill="#8ac9fe" fill-rule="evenodd"/>
        <path id="Trazado_1262302" data-name="Trazado 1262302" d="M118.092,354.382l25.61-14.788a4.094,4.094,0,0,0,1.495-5.576,4.183,4.183,0,0,0-5.576-1.493l-20.134,10.14a3.677,3.677,0,0,0,.844-1.539,3.721,3.721,0,0,0-2.625-4.542l-12.544-3.362c-3.127-.838-4.471-4.383-14.836,2.981L87,344.688l7.841,8.365c6.07-3.744,18.657,4.285,23.251,1.329Z" transform="translate(-81.599 -281.541)" fill="#f6dccd" fill-rule="evenodd"/>
        <path id="Trazado_1262303" data-name="Trazado 1262303" d="M54.561,344.654l3.752-1.005a2.416,2.416,0,0,1,2.95,1.7l4.965,18.513a2.415,2.415,0,0,1-1.7,2.95l-3.75,1.005a2.416,2.416,0,0,1-2.95-1.7L52.858,347.6a2.416,2.416,0,0,1,1.7-2.95Z" transform="translate(-52.777 -291.592)" fill="#b3b3b3" fill-rule="evenodd"/>
      </g>
      <circle id="Elipse_12653" data-name="Elipse 12653" cx="18.786" cy="18.786" r="18.786" transform="translate(67.549 21.185)" fill="#ffc338"/>
      <circle id="Elipse_12654" data-name="Elipse 12654" cx="13.996" cy="13.996" r="13.996" transform="translate(72.339 25.975)" fill="#ffd064"/>
      <path id="Trazado_1262304" data-name="Trazado 1262304" d="M49.618,31.753a.866.866,0,0,1,.327-.565l4.6-3.54a.863.863,0,0,1,1.065,0l.017.014,4.577,3.516a.864.864,0,1,1-1.057,1.367l-1.169-.9a1.263,1.263,0,0,0-2.033,1v8.07a.87.87,0,0,1-1.736,0v-8.07a1.263,1.263,0,0,0-2.033-1l-1.168.9a.863.863,0,0,1-1.384-.789Zm2.063,3.276v5.682a3.395,3.395,0,0,0,6.786,0V35.03a3.39,3.39,0,0,0,3.276-5.852L57.18,25.665a3.381,3.381,0,0,0-4.173-.027l-4.6,3.543a3.389,3.389,0,0,0,3.278,5.849Zm9.919-20.8,4.6-3.538a.86.86,0,0,1,1.065,0l.017.014,4.577,3.516a.864.864,0,0,1-1.057,1.367l-1.169-.9a1.263,1.263,0,0,0-2.031,1v8.077a.871.871,0,1,1-1.736,0V15.7a1.263,1.263,0,0,0-2.033-1l-1.168.9a.849.849,0,0,1-.631.174.863.863,0,0,1-.42-1.539Zm.1,4.043a3.389,3.389,0,0,1-1.643-6.043l4.6-3.54a3.382,3.382,0,0,1,4.173.025L73.4,12.232a3.389,3.389,0,0,1-3.275,5.857v5.682a3.4,3.4,0,0,1-6.786,0V18.089A3.366,3.366,0,0,1,61.7,18.277ZM84.177,43.556v.115a2.159,2.159,0,1,0,2.159-2.159,4.684,4.684,0,0,1-1.263-9.195v-.884a1.263,1.263,0,0,1,2.525,0v.884a4.692,4.692,0,0,1,3.422,4.512c0,.095,0,.189-.008.283a1.265,1.265,0,1,1-2.525-.158c0-.044,0-.088,0-.131a2.159,2.159,0,1,0-2.159,2.157,4.684,4.684,0,0,1,1.263,9.2v.884a1.263,1.263,0,0,1-2.525,0v-.884a4.694,4.694,0,0,1-3.422-4.512v-.248a1.264,1.264,0,0,1,2.525.133Zm2.156-16.038A12.733,12.733,0,1,0,99.067,40.251,12.733,12.733,0,0,0,86.333,27.517Zm0,27.99A15.259,15.259,0,1,0,71.076,40.25,15.259,15.259,0,0,0,86.333,55.508Zm0-32.782a17.519,17.519,0,1,0,17.519,17.519A17.519,17.519,0,0,0,86.333,22.726ZM66.289,40.244A20.044,20.044,0,1,0,86.333,20.2,20.044,20.044,0,0,0,66.289,40.244ZM52.617,65.437A1.736,1.736,0,1,1,50.5,64.215a1.736,1.736,0,0,1,2.121,1.222Zm54.9.215L81.9,80.443l-.051.033c-1.69,1.086-5.524.076-9.239-.9-4.419-1.16-8.969-2.356-12.5-1.138l-3.9-14.553c7.208-4.97,9.226-3.993,11.182-3.046a10.324,10.324,0,0,0,1.881.758l12.549,3.368A2.45,2.45,0,1,1,80.56,69.7L70.082,66.879a1.263,1.263,0,1,0-.647,2.44l10.473,2.806a5.016,5.016,0,0,0,4.567-1.068A1.157,1.157,0,0,0,84.6,71l20.052-10.2a2.9,2.9,0,0,1,3.911,1,2.824,2.824,0,0,1-1.032,3.851ZM57.458,82.7a1.147,1.147,0,0,0,.81-1.4l-.2-.759a.022.022,0,0,1,0-.009L53.307,62.783a1.149,1.149,0,0,0-1.1-.849,1.136,1.136,0,0,0-.3.039l-3.75,1a1.155,1.155,0,0,0-.81,1.4L52.306,82.9a1.149,1.149,0,0,0,1.4.81l3.752-1Zm53.282-22.152a5.352,5.352,0,0,1-1.957,7.3L83.194,82.617a6.339,6.339,0,0,1-3.448.849,33.3,33.3,0,0,1-7.77-1.446c-3.946-1.038-8.365-2.2-11.206-1.127a3.674,3.674,0,0,1-2.651,4.247l-3.752,1.007a3.758,3.758,0,0,1-.947.125,3.688,3.688,0,0,1-3.556-2.722L44.9,65.036A3.679,3.679,0,0,1,47.5,60.544l3.75-1.005a3.679,3.679,0,0,1,4.192,1.824c3.289-2.2,5.858-3.395,8.008-3.733a7.77,7.77,0,0,1,5.05.939,8.364,8.364,0,0,0,1.435.592l12.544,3.36a4.986,4.986,0,0,1,3.688,4.848L103.5,58.554a5.457,5.457,0,0,1,7.241,1.99Z" fill="#242222" fill-rule="evenodd"/>
    </g>
  </g>
</svg>
