<svg xmlns="http://www.w3.org/2000/svg" xmlns:xlink="http://www.w3.org/1999/xlink" width="124.943" height="111.726" viewBox="0 0 124.943 111.726">
  <defs>
    <filter id="Elipse_12607" x="54.072" y="40.854" width="70.871" height="70.871" filterUnits="userSpaceOnUse">
      <feOffset dy="3" input="SourceAlpha"/>
      <feGaussianBlur stdDeviation="3" result="blur"/>
      <feFlood flood-opacity="0.161"/>
      <feComposite operator="in" in2="blur"/>
      <feComposite in="SourceGraphic"/>
    </filter>
    <filter id="Elipse_12608" x="0" y="0" width="56.451" height="56.451" filterUnits="userSpaceOnUse">
      <feOffset dy="3" input="SourceAlpha"/>
      <feGaussianBlur stdDeviation="3" result="blur-2"/>
      <feFlood flood-opacity="0.161"/>
      <feComposite operator="in" in2="blur-2"/>
      <feComposite in="SourceGraphic"/>
    </filter>
  </defs>
  <g id="Grupo_1203865" data-name="Grupo 1203865" transform="translate(914 9808)">
    <g id="Grupo_1203817" data-name="Grupo 1203817" transform="translate(-1705 -12351.234)">
      <g id="Grupo_1203357" data-name="Grupo 1203357" transform="translate(800 2549.234)">
        <g transform="matrix(1, 0, 0, 1, -9, -6)" filter="url(#Elipse_12607)">
          <circle id="Elipse_12607-2" data-name="Elipse 12607" cx="26.435" cy="26.435" r="26.435" transform="translate(63.07 46.85)" fill="#ff9800"/>
        </g>
        <g transform="matrix(1, 0, 0, 1, -9, -6)" filter="url(#Elipse_12608)">
          <circle id="Elipse_12608-2" data-name="Elipse 12608" cx="19.226" cy="19.226" r="19.226" transform="translate(9 6)" fill="#ff9800"/>
        </g>
      </g>
    </g>
    <g id="ganador" transform="translate(-897.596 -9794)">
      <g id="Grupo_1203864" data-name="Grupo 1203864" transform="translate(9.8 2.202)">
        <g id="Grupo_1203861" data-name="Grupo 1203861" transform="translate(0 46.443)">
          <path id="Trazado_1262305" data-name="Trazado 1262305" d="M48.08,325.686l4.733,17.659a29.51,29.51,0,0,1,3.119-2.315,9.754,9.754,0,0,1,3.465-1.508,8.959,8.959,0,0,1,4.014.1.005.005,0,0,1,0,0l9.6,2.2a8.208,8.208,0,0,0,6.185-.814l24.019-13.867a4.5,4.5,0,0,0-4.5-7.793L82,329.011l.036-.126a5,5,0,0,0-3.5-6.11L61.77,318.209a7.879,7.879,0,0,0-6.028,1.609Z" transform="translate(-43.351 -318.131)" fill="#ffd6bd" fill-rule="evenodd"/>
          <path id="Trazado_1262306" data-name="Trazado 1262306" d="M173.763,383.185a5,5,0,0,0,5.691-2.446,4.873,4.873,0,0,1-.171,1.154,4.993,4.993,0,0,1-6.11,3.5c-3.263-.891-6.532-1.75-9.8-2.626a1.145,1.145,0,0,1,.592-2.212C167.226,381.424,170.485,382.294,173.763,383.185Z" transform="translate(-140.6 -371.14)" fill="#f9c6aa" fill-rule="evenodd"/>
          <path id="Trazado_1262307" data-name="Trazado 1262307" d="M74.86,355.866l.709,2.647a29.515,29.515,0,0,1,3.119-2.315,9.755,9.755,0,0,1,3.465-1.508,8.959,8.959,0,0,1,4.014.1h0l9.6,2.2a8.208,8.208,0,0,0,6.185-.814l24.019-13.867a4.513,4.513,0,0,0,1.647-6.146c-.038-.065-.075-.128-.116-.189a4.506,4.506,0,0,1-2.24,3.688l-24.019,13.867a8.21,8.21,0,0,1-6.185.814l-9.6-2.2h0a8.959,8.959,0,0,0-4.014-.1,9.717,9.717,0,0,0-3.465,1.508A29.363,29.363,0,0,0,74.86,355.866Z" transform="translate(-66.108 -333.298)" fill="#f9c6aa" fill-rule="evenodd"/>
          <path id="Trazado_1262308" data-name="Trazado 1262308" d="M22.544,339.369l5.784,21.586a1,1,0,0,1-.7,1.214l-3.99,1.07a.994.994,0,0,1-1.214-.7l-5.784-21.586a.994.994,0,0,1,.7-1.214l3.99-1.07a.993.993,0,0,1,1.214.7Z" transform="translate(-16.606 -335.554)" fill="#64b5f6" fill-rule="evenodd"/>
          <path id="Trazado_1262309" data-name="Trazado 1262309" d="M22.544,339.364l.068.251-3.736,1a.994.994,0,0,0-.7,1.214l5.717,21.335-.254.068a1,1,0,0,1-1.214-.7l-5.784-21.586a.994.994,0,0,1,.7-1.214l3.99-1.07a1,1,0,0,1,1.214.7Z" transform="translate(-16.606 -335.549)" fill="#42a5f5" fill-rule="evenodd"/>
        </g>
        <g id="Grupo_1203862" data-name="Grupo 1203862" transform="translate(21.526)">
          <path id="Trazado_1262310" data-name="Trazado 1262310" d="M185.4,18.168v3.015c7.671,7.157,14.393,17.5,7.815,26.116A13.092,13.092,0,0,1,182.5,52.6H173.27a13.093,13.093,0,0,1-10.717-5.3c-6.574-8.613.146-18.957,7.817-26.115V18.168a12.731,12.731,0,0,0-2.009-3.567c-2.258-3.224-1.8-4.316,3.717-2.276,2.315.855,1.34-3.325,5.808-3.325s3.495,4.18,5.81,3.323c5.517-2.039,5.975-.947,3.717,2.276a12.755,12.755,0,0,0-2.009,3.568Z" transform="translate(-159.886 -9)" fill="#72d561" fill-rule="evenodd"/>
          <path id="Trazado_1262311" data-name="Trazado 1262311" d="M227.344,18.168v3.015c7.671,7.157,14.393,17.5,7.815,26.116a13.092,13.092,0,0,1-10.717,5.3h-2.15a13.094,13.094,0,0,0,10.717-5.3c6.576-8.613-.144-18.959-7.815-26.116V18.168A12.731,12.731,0,0,1,227.2,14.6c1.127-1.609,1.578-2.688,1.061-3.11,2.966-.711,2.916.5,1.089,3.11A12.731,12.731,0,0,0,227.344,18.168Zm-18.1-6.677c.469-.383,1.731-.228,4,.556a1.117,1.117,0,0,1-1.376.276A24.083,24.083,0,0,0,209.24,11.491Zm9.512-2.4c3.245.614,2.626,4.008,4.734,3.229.27-.1.527-.192.774-.276-.825-.9-1.232-3.047-4.434-3.047A5.783,5.783,0,0,0,218.752,9.095Z" transform="translate(-201.825 -9)" fill="#57ca5a" fill-rule="evenodd"/>
          <path id="Trazado_1262312" data-name="Trazado 1262312" d="M213.25,66.75h16.567a2,2,0,0,1,0,4H213.25a2,2,0,0,1,0-4Z" transform="translate(-203.533 -58.074)" fill="#ffda2d" fill-rule="evenodd"/>
          <path id="Trazado_1262313" data-name="Trazado 1262313" d="M213.25,66.75h16.567a2.005,2.005,0,0,1,1.878,1.318,1.979,1.979,0,0,0-.75-.147H214.379a2.006,2.006,0,0,0-2,2,1.98,1.98,0,0,0,.12.682,2,2,0,0,1,.75-3.852Z" transform="translate(-203.533 -58.074)" fill="#ffc700" fill-rule="evenodd"/>
        </g>
        <g id="Grupo_1203863" data-name="Grupo 1203863" transform="translate(7.121 8.082)">
          <path id="Trazado_1262314" data-name="Trazado 1262314" d="M72.988,71.35h2.706a.735.735,0,0,0,.581-1.185L70.8,63.081a.735.735,0,0,0-1.164,0l-5.475,7.085a.735.735,0,0,0,.583,1.185h2.706v13.58a.965.965,0,0,0,.963.963h3.61a.965.965,0,0,0,.963-.963Zm52.385,0h2.706a.735.735,0,0,0,.581-1.185l-5.475-7.084a.735.735,0,0,0-1.164,0l-5.475,7.085a.735.735,0,0,0,.583,1.185h2.706v13.58a.965.965,0,0,0,.963.963h3.61a.965.965,0,0,0,.963-.963Z" transform="translate(-64.006 -62.795)" fill="#ffda2d" fill-rule="evenodd"/>
          <path id="Trazado_1262315" data-name="Trazado 1262315" d="M103.416,71.35h1.94a.735.735,0,0,0,.581-1.185l-5.475-7.084a.735.735,0,0,0-1.164,0l-.388.5L104,70.166A.734.734,0,0,1,103.416,71.35ZM99.748,85.893a.967.967,0,0,0,.962-.963V71.35h1.94V84.93a.965.965,0,0,1-.963.963ZM155.8,71.35h1.94a.735.735,0,0,0,.581-1.185l-5.475-7.084a.735.735,0,0,0-1.164,0l-.388.5,5.087,6.583A.733.733,0,0,1,155.8,71.35Zm-3.667,14.543a.967.967,0,0,0,.962-.963V71.35h1.94V84.93a.966.966,0,0,1-.963.963Z" transform="translate(-93.666 -62.795)" fill="#ffc700" fill-rule="evenodd"/>
        </g>
      </g>
      <path id="Trazado_1262316" data-name="Trazado 1262316" d="M23.135,11.783l4.525,5.855H25.9a1.2,1.2,0,0,0-1.2,1.2V32.181H21.568V18.839a1.2,1.2,0,0,0-1.2-1.2H18.61Zm-5.476,8.259h1.505V32.418a2.169,2.169,0,0,0,2.165,2.166h3.61A2.168,2.168,0,0,0,27.1,32.418V20.041h1.5a1.936,1.936,0,0,0,1.532-3.122L24.666,9.834a1.936,1.936,0,0,0-3.065,0l-5.475,7.085a1.936,1.936,0,0,0,1.532,3.122Zm60.629-2.4a1.2,1.2,0,0,0-1.2,1.2V32.181H73.952V18.839a1.2,1.2,0,0,0-1.2-1.2H70.994l4.525-5.855,4.525,5.855Zm4.24-.718L77.053,9.834a1.936,1.936,0,0,0-3.065,0l-5.475,7.085a1.936,1.936,0,0,0,1.532,3.122h1.505V32.418a2.169,2.169,0,0,0,2.165,2.166h3.61a2.168,2.168,0,0,0,2.165-2.166V20.041H81a1.936,1.936,0,0,0,1.532-3.122ZM44.785,27.088a4.214,4.214,0,0,1,3.34-4.117V21.515a1.2,1.2,0,0,1,2.4,0v1.408a4.229,4.229,0,0,1,2.818,1.707A1.2,1.2,0,1,1,51.4,26.037a1.812,1.812,0,0,0-1.462-.753H48.99a1.8,1.8,0,1,0,0,3.606h.672a4.207,4.207,0,0,1,.867,8.323v1.454a1.2,1.2,0,0,1-2.4,0V37.26a4.229,4.229,0,0,1-2.818-1.707,1.2,1.2,0,1,1,1.947-1.409,1.812,1.812,0,0,0,1.462.753h.947a1.8,1.8,0,1,0,0-3.606H48.99a4.206,4.206,0,0,1-4.205-4.2Zm-11.223.545c-1.738,4.572-1.271,8.654,1.387,12.136a11.878,11.878,0,0,0,9.763,4.83h9.234a11.876,11.876,0,0,0,9.761-4.829c2.659-3.483,3.125-7.565,1.388-12.138-1.753-4.611-5.364-8.775-8.214-11.556H41.776c-2.85,2.782-6.46,6.946-8.214,11.556ZM43.1,6.652a2.845,2.845,0,0,0,.995.194,2.9,2.9,0,0,0,2.347-1.719A2.862,2.862,0,0,1,49.327,3.4a2.861,2.861,0,0,1,2.886,1.725c.487.784,1.393,2.245,3.341,1.523a16.758,16.758,0,0,1,3.173-.927,11.2,11.2,0,0,1-.858,1.387,19.893,19.893,0,0,0-1.617,2.563H42.4a19.621,19.621,0,0,0-1.617-2.563,11.2,11.2,0,0,1-.858-1.387,16.758,16.758,0,0,1,3.173.927Zm-2.057,7.022a.8.8,0,0,1,0-1.6H57.612a.8.8,0,1,1,0,1.6ZM33.038,41.228c-3.2-4.187-3.776-9.049-1.723-14.45a35.364,35.364,0,0,1,7.752-11.39,3.2,3.2,0,0,1,.723-5.458c-.23-.364-.535-.814-.972-1.441C37.7,6.886,36.782,5.238,37.7,4.048c.978-1.268,3.11-.807,6.235.349a.74.74,0,0,0,.084.027,5.409,5.409,0,0,0,.38-.563A5.192,5.192,0,0,1,49.327,1a5.192,5.192,0,0,1,4.928,2.861,5.253,5.253,0,0,0,.38.563.656.656,0,0,0,.084-.027c3.125-1.155,5.257-1.617,6.235-.349.919,1.191.006,2.838-1.116,4.441-.439.625-.744,1.076-.972,1.441a3.2,3.2,0,0,1,.723,5.458,35.348,35.348,0,0,1,7.752,11.39c2.052,5.4,1.472,10.263-1.725,14.45A14.386,14.386,0,0,1,53.943,47H44.71A14.377,14.377,0,0,1,33.038,41.228ZM69.071,56.677,45.052,70.544a7.036,7.036,0,0,1-5.317.684l-9.6-2.2a10.124,10.124,0,0,0-8.322,1.511L17.731,55.317l5.189-3.974c1.764-1.352,3.44-1.824,4.982-1.4L44.671,54.5a3.776,3.776,0,1,1-1.983,7.287L33.73,59.35a1.2,1.2,0,0,0-.631,2.32l8.957,2.438A6.174,6.174,0,0,0,49.433,60.4l16.34-9.434a3.3,3.3,0,0,1,3.3,5.714ZM16.723,75.17l3.582-.96L14.63,53.031l-3.582.96ZM68.9,48.319a5.656,5.656,0,0,0-4.325.565L49.812,57.4a6.19,6.19,0,0,0-4.51-5.219L28.534,47.621c-2.272-.619-4.718.009-7.075,1.815l-4.4,3.37-.161-.6a2.2,2.2,0,0,0-2.685-1.552l-3.99,1.07a2.193,2.193,0,0,0-1.55,2.685l5.784,21.586a2.2,2.2,0,0,0,2.118,1.626,2.23,2.23,0,0,0,.566-.074l3.99-1.07a2.2,2.2,0,0,0,1.55-2.686l-.21-.786a8.016,8.016,0,0,1,7.123-1.638l9.6,2.2a10.921,10.921,0,0,0,2.447.288,9.078,9.078,0,0,0,4.609-1.233L70.274,58.756A5.693,5.693,0,0,0,68.9,48.319Z" fill-rule="evenodd"/>
    </g>
  </g>
</svg>
