<svg xmlns="http://www.w3.org/2000/svg" xmlns:xlink="http://www.w3.org/1999/xlink" width="190" height="100.234" viewBox="0 0 190 100.234">
  <defs>
    <filter id="Elipse_12607" x="86.866" y="36.41" width="63.824" height="63.824" filterUnits="userSpaceOnUse">
      <feOffset dy="3" input="SourceAlpha"/>
      <feGaussianBlur stdDeviation="3" result="blur"/>
      <feFlood flood-opacity="0.161"/>
      <feComposite operator="in" in2="blur"/>
      <feComposite in="SourceGraphic"/>
    </filter>
    <filter id="Elipse_12608" x="40" y="1" width="51.327" height="51.327" filterUnits="userSpaceOnUse">
      <feOffset dy="3" input="SourceAlpha"/>
      <feGaussianBlur stdDeviation="3" result="blur-2"/>
      <feFlood flood-opacity="0.161"/>
      <feComposite operator="in" in2="blur-2"/>
      <feComposite in="SourceGraphic"/>
    </filter>
  </defs>
  <g id="Grupo_1204103" data-name="Grupo 1204103" transform="translate(-1230.051 -383)">
    <rect id="Rectángulo_411248" data-name="Rectángulo 411248" width="190" height="94" transform="translate(1230.051 383)" fill="#ffe9b5"/>
    <g id="Grupo_1203855" data-name="Grupo 1203855" transform="translate(479.051 -2159.234)">
      <g id="Grupo_1203357" data-name="Grupo 1203357" transform="translate(800 2549.234)">
        <g transform="matrix(1, 0, 0, 1, -49, -7)" filter="url(#Elipse_12607)">
          <circle id="Elipse_12607-2" data-name="Elipse 12607" cx="22.912" cy="22.912" r="22.912" transform="translate(95.87 42.41)" fill="#ff9800"/>
        </g>
        <g transform="matrix(1, 0, 0, 1, -49, -7)" filter="url(#Elipse_12608)">
          <circle id="Elipse_12608-2" data-name="Elipse 12608" cx="16.663" cy="16.663" r="16.663" transform="translate(49 7)" fill="#ff9800"/>
        </g>
      </g>
      <g id="Page-1" transform="translate(810.346 2553.957)">
        <g id="_079---Stock-Broker" data-name="079---Stock-Broker" transform="translate(0 0)">
          <path id="Path" d="M61.619,16.852a10.839,10.839,0,0,1-19.288,6.8v-.772a22.543,22.543,0,0,0-1.941-9.2,10.85,10.85,0,0,1,21.229,3.17Z" transform="translate(7.097 1.231)" fill="#ffdc00" fill-rule="evenodd"/>
          <path id="Path-2" data-name="Path" d="M49.314,6a10.929,10.929,0,0,0-1.843.158,10.836,10.836,0,0,1,.052,21.376A10.842,10.842,0,1,0,49.314,6Z" transform="translate(8.553 1.233)" fill="#fec108" fill-rule="evenodd"/>
          <path id="Path-3" data-name="Path" d="M36.942,54.073a1.206,1.206,0,0,0-.121-1.206l-3.472-3.99L30.01,45.02a67.364,67.364,0,0,1,9.632,2.893,17,17,0,0,1,3.617,1.9,4.581,4.581,0,0,1,1.061,1.206c1.579,2.483,2.315,7.209,2.556,10.85H33.7Z" transform="translate(4.964 9.252)" fill="#607d8b" fill-rule="evenodd"/>
          <path id="Path-4" data-name="Path" d="M44.319,51.023a4.581,4.581,0,0,0-1.061-1.206,17,17,0,0,0-3.617-1.9A67.365,67.365,0,0,0,30.01,45.02l1.037,1.2c1.589.463,3.367,1.039,4.979,1.695a17,17,0,0,1,3.617,1.9A4.581,4.581,0,0,1,40.7,51.023c1.579,2.483,2.315,7.209,2.556,10.85h3.617c-.241-3.641-.976-8.366-2.556-10.85Z" transform="translate(4.964 9.252)" fill="#37474f" fill-rule="evenodd"/>
          <path id="Path-5" data-name="Path" d="M26.709,60.028H20.38L21.127,54h4.822Z" transform="translate(2.985 11.097)" fill="#c81e1e" fill-rule="evenodd"/>
          <path id="Path-6" data-name="Path" d="M37.971,53.416l-3.243,7.8H25.759L25,55.188l1.929-2.893.832.832a1.215,1.215,0,0,0,1.712,0l4.906-4.906,3.472,3.99a1.206,1.206,0,0,1,.121,1.206Z" transform="translate(3.935 9.909)" fill="#607d8b" fill-rule="evenodd"/>
          <path id="Path-7" data-name="Path" d="M36.809,52.21l-3.472-3.99-1.929,1.929,1.784,2.061a1.206,1.206,0,0,1,.121,1.206l-3.243,7.8h3.617l3.243-7.8a1.206,1.206,0,0,0-.121-1.206Z" transform="translate(4.977 9.909)" fill="#37474f" fill-rule="evenodd"/>
          <path id="Path-8" data-name="Path" d="M23.23,55.188l-.747,6.028H13.5l-3.243-7.8a1.205,1.205,0,0,1,.121-1.206l3.472-3.99,4.906,4.906a1.215,1.215,0,0,0,1.712,0l.832-.832Z" transform="translate(0.883 9.909)" fill="#607d8b" fill-rule="evenodd"/>
          <path id="Path-9" data-name="Path" d="M12.054,52.87a1.206,1.206,0,0,0-.121,1.206l3.243,7.8H2C2.289,57.5,3.3,51.556,5.617,49.82c3.617-2.712,13.261-4.81,13.261-4.81l-3.351,3.87Z" transform="translate(-0.792 9.25)" fill="#607d8b" fill-rule="evenodd"/>
          <path id="Path-10" data-name="Path" d="M28.08,52.34l-1.929,2.893H21.329L19.4,52.34,23.74,48Z" transform="translate(2.784 9.864)" fill="#f44335" fill-rule="evenodd"/>
          <path id="Path-11" data-name="Path" d="M34.79,48.878l-4.906,4.906a1.215,1.215,0,0,1-1.712,0L23,48.612c6.956,0,8.342-3.339,8.439-3.592h.012Z" transform="translate(3.524 9.252)" fill="#f5f5f5" fill-rule="evenodd"/>
          <path id="Path-12" data-name="Path" d="M25.01,48.614l-5.172,5.172a1.215,1.215,0,0,1-1.712,0L13.22,48.88l3.351-3.87S17.777,48.614,25.01,48.614Z" transform="translate(1.514 9.25)" fill="#f5f5f5" fill-rule="evenodd"/>
          <path id="Path-13" data-name="Path" d="M32.877,46.492V46.5c-.1.253-1.483,3.592-8.439,3.592-7.233,0-8.439-3.6-8.439-3.6A8.018,8.018,0,0,0,17.977,42.9a9.5,9.5,0,0,0,.048-5.1c.4.289.82.567,1.242.832a10.818,10.818,0,0,0,5.172,1.82A12.437,12.437,0,0,0,30.852,37.8a9.5,9.5,0,0,0,.048,5.1,8.018,8.018,0,0,0,1.977,3.592Z" transform="translate(2.085 7.768)" fill="#dfc49c" fill-rule="evenodd"/>
          <path id="Path-14" data-name="Path" d="M44.163,26.684a4.822,4.822,0,0,1-4.822,4.81l-1.772,5.328A11.8,11.8,0,0,1,35.411,40.7a16.019,16.019,0,0,1-2.917,2.6A12.437,12.437,0,0,1,26.08,45.96a10.818,10.818,0,0,1-5.172-1.82c-.422-.265-.844-.542-1.242-.832a16.018,16.018,0,0,1-2.917-2.6,11.8,11.8,0,0,1-2.158-3.882L12.82,31.494a4.81,4.81,0,0,1,0-9.62V17.028S17.642,15.822,17.642,11c0,0,2.411,6.028,15.672,6.028,3.617,0,6.028,4.846,6.028,4.846a4.822,4.822,0,0,1,4.822,4.81Z" transform="translate(0.443 2.261)" fill="#ffe0b2" fill-rule="evenodd"/>
          <path id="Path-15" data-name="Path" d="M37.83,21.874s-2.411-4.846-6.028-4.846C18.542,17.028,16.131,11,16.131,11a5.882,5.882,0,0,1-.77,3c2.258,1.51,6.177,3.026,12.825,3.026,3.617,0,6.028,4.846,6.028,4.846a4.81,4.81,0,1,1,0,9.62l-1.772,5.328A11.8,11.8,0,0,1,30.284,40.7a16.019,16.019,0,0,1-2.917,2.6,15.815,15.815,0,0,1-4.618,2.365,6.674,6.674,0,0,0,1.822.287,12.437,12.437,0,0,0,6.413-2.652A16.018,16.018,0,0,0,33.9,40.7a11.8,11.8,0,0,0,2.158-3.882l1.772-5.328a4.81,4.81,0,1,0,0-9.62Z" transform="translate(1.954 2.261)" fill="#dfc49c" fill-rule="evenodd"/>
          <path id="Path-16" data-name="Path" d="M49.809,23.905V41.988a8.4,8.4,0,0,1-4.822,7.619,8.251,8.251,0,0,1-3.617.82H33.5l-.133.036a9.5,9.5,0,0,1-.048-5.1,16.019,16.019,0,0,0,2.917-2.6,11.8,11.8,0,0,0,2.158-3.882l1.772-5.328a4.81,4.81,0,0,0,0-9.62s-2.411-4.846-6.028-4.846c-13.261,0-15.672-6.028-15.672-6.028,0,4.822-4.822,6.028-4.822,6.028v4.846a4.81,4.81,0,0,0,0,9.62l1.772,5.328a11.8,11.8,0,0,0,2.158,3.882,16.019,16.019,0,0,0,2.917,2.6,9.5,9.5,0,0,1-.048,5.1l-.133-.036H12.439A8.439,8.439,0,0,1,4,41.988V24.508C4,11.9,13.933,1.193,26.543,1a22.929,22.929,0,0,1,23.266,22.9Z" transform="translate(-0.381 0.205)" fill="sienna" fill-rule="evenodd"/>
          <path id="Path-17" data-name="Path" d="M17.366,40.7a11.8,11.8,0,0,1-2.158-3.882l-1.772-5.328a4.81,4.81,0,1,1,0-9.62V17.028A7.141,7.141,0,0,0,17.488,14a7.58,7.58,0,0,1-2.846-3c0,4.822-4.822,6.028-4.822,6.028v4.846a4.81,4.81,0,0,0,0,9.62l1.772,5.328A11.8,11.8,0,0,0,13.75,40.7a16.019,16.019,0,0,0,2.917,2.6,9.491,9.491,0,0,1-.041,5.063H20.1l.133.036a9.5,9.5,0,0,0,.048-5.1,16.019,16.019,0,0,1-2.917-2.6Z" transform="translate(-0.173 2.261)" fill="#783e22" fill-rule="evenodd"/>
          <path id="Path-18" data-name="Path" d="M28.361,42.036,28.494,42h-.14c0,.012,0,.024.007.036Z" transform="translate(4.624 8.631)" fill="#783e22" fill-rule="evenodd"/>
          <path id="Path-19" data-name="Path" d="M44.242,14.707a22.448,22.448,0,0,0-4.774-6.992A22.815,22.815,0,0,0,22.916,1c-.429,0-.844.055-1.269.086A22.93,22.93,0,0,1,42.566,23.905V41.988a8.4,8.4,0,0,1-4.822,7.619,8.251,8.251,0,0,1-3.617.82h3.617a8.251,8.251,0,0,0,3.617-.82,8.4,8.4,0,0,0,4.822-7.619V23.905A22.543,22.543,0,0,0,44.242,14.707Z" transform="translate(3.246 0.205)" fill="#783e22" fill-rule="evenodd"/>
          <path id="Path-20" data-name="Path" d="M64.521,30.411v21.7a2.418,2.418,0,0,1-2.411,2.411H42.677a4.581,4.581,0,0,0-1.061-1.206A17,17,0,0,0,38,51.411V44.057a8.4,8.4,0,0,0,4.822-7.619V28H62.11A2.418,2.418,0,0,1,64.521,30.411Z" transform="translate(6.606 5.754)" fill="#f0ebfb" fill-rule="evenodd"/>
          <path id="Path-21" data-name="Path" d="M58.617,28H55a2.418,2.418,0,0,1,2.411,2.411v21.7A2.418,2.418,0,0,1,55,54.521h3.617a2.418,2.418,0,0,0,2.411-2.411v-21.7A2.418,2.418,0,0,0,58.617,28Z" transform="translate(10.1 5.754)" fill="#e1d7f8" fill-rule="evenodd"/>
          <g id="Grupo_1203407" data-name="Grupo 1203407">
            <path id="Path-22" data-name="Path" d="M49.616,17.439a1.206,1.206,0,1,1-1.045,1.808,1.206,1.206,0,0,0-2.087,1.206,3.608,3.608,0,0,0,1.929,1.567v.241a1.206,1.206,0,1,0,2.411,0v-.222a3.608,3.608,0,0,0-1.208-7.011,1.206,1.206,0,1,1,1.045-1.808,1.206,1.206,0,0,0,2.087-1.206,3.608,3.608,0,0,0-1.926-1.567v-.241a1.206,1.206,0,1,0-2.411,0v.222a3.608,3.608,0,0,0,1.206,7.011Z" transform="translate(8.251 1.85)" fill-rule="evenodd"/>
            <path id="Shape" d="M69.714,32.549H51.632V27.71A12.045,12.045,0,1,0,48.4,12.088a24.11,24.11,0,0,0-3.835-5.019A23.869,23.869,0,0,0,27.529,0h-.387C14.056.2,3.412,11.288,3.412,24.713v17.48a9.655,9.655,0,0,0,9.644,9.644h6.269a6.183,6.183,0,0,1-.9,1.334C16.551,53.6,8.5,55.554,5.1,58.105c-3.067,2.3-3.885,9.815-4.1,12.939A1.205,1.205,0,0,0,2.206,72.33H52.837a1.206,1.206,0,0,0,1.206-1.286,35.026,35.026,0,0,0-1.84-9.563H69.714a3.617,3.617,0,0,0,3.617-3.617v-21.7a3.617,3.617,0,0,0-3.617-3.617ZM58.865,8.439a9.644,9.644,0,1,1,0,19.288,9.538,9.538,0,0,1-7.233-3.3V24.11A24.07,24.07,0,0,0,49.8,14.857a9.56,9.56,0,0,1,9.067-6.418ZM13.055,49.426a7.24,7.24,0,0,1-7.233-7.233V24.713C5.822,12.6,15.4,2.6,27.179,2.411A21.311,21.311,0,0,1,42.86,8.774a21.51,21.51,0,0,1,6.36,15.336V42.193a7.24,7.24,0,0,1-7.233,7.233H34.949A8.318,8.318,0,0,1,35,46.279a17.151,17.151,0,0,0,2.773-2.532,12.923,12.923,0,0,0,2.376-4.277l1.525-4.581a6.014,6.014,0,0,0-.159-11.921c-.868-1.445-3.285-4.886-6.764-4.886-12.118,0-14.536-5.233-14.552-5.269a1.206,1.206,0,0,0-2.325.447c0,3.8-3.754,4.822-3.908,4.858a1.206,1.206,0,0,0-.914,1.169v3.76a6.014,6.014,0,0,0,.315,11.845l1.524,4.581a12.948,12.948,0,0,0,2.381,4.271,17.151,17.151,0,0,0,2.773,2.532,8.318,8.318,0,0,1,.047,3.149Zm23.565,3.745a6.232,6.232,0,0,1-.9-1.334h6.269A9.587,9.587,0,0,0,44.4,51.52v3.9A73.739,73.739,0,0,0,36.621,53.171ZM31.755,69.919l-.57-4.527.88-1.326a2.4,2.4,0,0,0,3.192-.175l3.978-3.978,2.551,2.956-2.933,7.05Zm-15.579,0-3-7.009L15.8,59.9l3.989,4a2.477,2.477,0,0,0,3.192.183l.882,1.326L23.3,69.919ZM14.261,27.727a1.206,1.206,0,0,0,1.206-1.206V20.155a7.836,7.836,0,0,0,4.281-4.091c2.1,1.961,6.436,4.43,15.007,4.43,2.192,0,4.11,2.652,4.822,3.937v2.09a1.206,1.206,0,1,0,2.411,0v-.964a3.595,3.595,0,0,1-1.206,6.992,1.206,1.206,0,0,0-1.143.825L37.86,38.705a10.5,10.5,0,0,1-1.931,3.488c-1.656,1.965-5.755,4.822-8.407,4.822s-6.751-2.857-8.407-4.822a10.529,10.529,0,0,1-1.929-3.486l-1.778-5.332a1.206,1.206,0,0,0-1.146-.826,3.595,3.595,0,0,1-1.206-6.992v.964a1.206,1.206,0,0,0,1.206,1.206ZM29.288,63.892H25.755l-1.022-1.535,2.788-2.788,2.788,2.788Zm.964-5.008a9.548,9.548,0,0,0,5.814-2.664l1.6,1.855-4.117,4.107Zm-7.627-10.95a10.923,10.923,0,0,0,4.9,1.491,10.923,10.923,0,0,0,4.9-1.491A10.59,10.59,0,0,0,34.474,54.4c-.651.81-2.459,2.257-6.952,2.257s-6.3-1.447-6.959-2.255a10.589,10.589,0,0,0,2.057-6.469Zm2.17,10.948-3.3,3.3-4.117-4.116,1.606-1.849a9.54,9.54,0,0,0,5.812,2.665Zm1.38,7.42h2.694l.456,3.617h-3.6ZM6.546,60.034c2-1.5,6.09-2.826,9.114-3.667l-4.376,5.046a2.4,2.4,0,0,0-.258,2.375l2.55,6.131H10.644V68.714a1.206,1.206,0,0,0-2.411,0v1.206H3.512c.469-5.014,1.626-8.828,3.034-9.885ZM46.81,69.919V68.714a1.206,1.206,0,0,0-2.411,0v1.206H41.468L44,63.825a2.446,2.446,0,0,0-.307-2.5l-4.3-4.961c3.022.844,7.112,2.17,9.11,3.666,1.408,1.056,2.565,4.87,3.034,9.885ZM70.92,57.864a1.206,1.206,0,0,1-1.206,1.206H50.887a5.077,5.077,0,0,0-.943-.964,16.355,16.355,0,0,0-3.134-1.726V50.531a9.7,9.7,0,0,0,2.411-1.981v5.7a2.411,2.411,0,0,0,2.411,2.411H67.3a1.206,1.206,0,1,0,0-2.411H51.632V34.96H69.714a1.206,1.206,0,0,1,1.206,1.206Z" transform="translate(-0.998 0)"/>
            <path id="Path-23" data-name="Path" d="M46.206,37A1.206,1.206,0,0,0,45,38.206v3.617a1.206,1.206,0,0,0,2.411,0V38.206A1.206,1.206,0,0,0,46.206,37Z" transform="translate(8.045 7.604)" fill-rule="evenodd"/>
            <path id="Path-24" data-name="Path" d="M50.206,36A1.206,1.206,0,0,0,49,37.206v3.617a1.206,1.206,0,1,0,2.411,0V37.206A1.206,1.206,0,0,0,50.206,36Z" transform="translate(8.867 7.398)" fill-rule="evenodd"/>
            <path id="Path-25" data-name="Path" d="M54.206,38A1.206,1.206,0,0,0,53,39.206v3.617a1.206,1.206,0,1,0,2.411,0V39.206A1.206,1.206,0,0,0,54.206,38Z" transform="translate(9.689 7.809)" fill-rule="evenodd"/>
            <path id="Path-26" data-name="Path" d="M57.408,32.524,55.736,34.2l-3.383-2.542a2.4,2.4,0,0,0-2.532-.228L45.667,33.5a1.206,1.206,0,1,0,1.078,2.158l4.163-2.072,3.389,2.54a2.417,2.417,0,0,0,3.151-.222l1.672-1.672a1.206,1.206,0,0,0-1.7-1.7Z" transform="translate(8.045 6.405)" fill-rule="evenodd"/>
          </g>
        </g>
      </g>
    </g>
  </g>
</svg>
