<svg xmlns="http://www.w3.org/2000/svg" xmlns:xlink="http://www.w3.org/1999/xlink" width="124.943" height="111.726" viewBox="0 0 124.943 111.726">
  <defs>
    <filter id="Elipse_12607" x="54.072" y="40.855" width="70.871" height="70.871" filterUnits="userSpaceOnUse">
      <feOffset dy="3" input="SourceAlpha"/>
      <feGaussianBlur stdDeviation="3" result="blur"/>
      <feFlood flood-opacity="0.161"/>
      <feComposite operator="in" in2="blur"/>
      <feComposite in="SourceGraphic"/>
    </filter>
    <filter id="Elipse_12608" x="0" y="0" width="56.451" height="56.451" filterUnits="userSpaceOnUse">
      <feOffset dy="3" input="SourceAlpha"/>
      <feGaussianBlur stdDeviation="3" result="blur-2"/>
      <feFlood flood-opacity="0.161"/>
      <feComposite operator="in" in2="blur-2"/>
      <feComposite in="SourceGraphic"/>
    </filter>
    <clipPath id="clip-path">
      <path id="path5493" d="M0-682.665H70.073v70.073H0Z" transform="translate(0 682.665)"/>
    </clipPath>
  </defs>
  <g id="Grupo_1203988" data-name="Grupo 1203988" transform="translate(-738 -3549.034)">
    <g id="Grupo_1203411" data-name="Grupo 1203411" transform="translate(418.018 -310.188)">
      <g id="Grupo_1203357" data-name="Grupo 1203357" transform="translate(328.982 3865.222)">
        <g transform="matrix(1, 0, 0, 1, -9, -6)" filter="url(#Elipse_12607)">
          <circle id="Elipse_12607-2" data-name="Elipse 12607" cx="26.435" cy="26.435" r="26.435" transform="translate(63.07 46.85)" fill="#ff9800"/>
        </g>
        <g transform="matrix(1, 0, 0, 1, -9, -6)" filter="url(#Elipse_12608)">
          <circle id="Elipse_12608-2" data-name="Elipse 12608" cx="19.226" cy="19.226" r="19.226" transform="translate(9 6)" fill="#ff9800"/>
        </g>
      </g>
    </g>
    <g id="g5487" transform="translate(766 4247.889)">
      <g id="g5489" transform="translate(0 -682.665)">
        <g id="g5491" transform="translate(0 0)" clip-path="url(#clip-path)">
          <g id="g5497" transform="translate(19.434 10.949)">
            <path id="path5499" d="M-392.172-220.29h-42.639a2.221,2.221,0,0,1-2.221-2.221v-20.757a2.221,2.221,0,0,1,2.221-2.221h42.639a2.221,2.221,0,0,1,2.221,2.221v20.757a2.221,2.221,0,0,1-2.221,2.221" transform="translate(437.032 245.489)" fill="#91d9b9"/>
          </g>
          <g id="g5501" transform="translate(19.434 30.133)">
            <path id="path5503" d="M-19.413-52.576h3.793v-.093a5.918,5.918,0,0,0-5.922-5.922h-.093V-54.8a2.221,2.221,0,0,0,2.221,2.221" transform="translate(21.633 58.591)" fill="#c4ead9"/>
          </g>
          <g id="g5505" transform="translate(60.501 30.133)">
            <path id="path5507" d="M-33.164-52.576h-3.793v-.093a5.918,5.918,0,0,1,5.922-5.922h.093V-54.8a2.221,2.221,0,0,1-2.221,2.221" transform="translate(36.957 58.591)" fill="#c4ead9"/>
          </g>
          <g id="g5509" transform="translate(60.501 10.949)">
            <path id="path5511" d="M-33.164,0h-3.793V.093a5.918,5.918,0,0,0,5.922,5.922h.093V2.221A2.221,2.221,0,0,0-33.164,0" transform="translate(36.957)" fill="#c4ead9"/>
          </g>
          <g id="g5513" transform="translate(18.158 28.765)">
            <path id="path5515" d="M-63.732-62.364A1.369,1.369,0,0,1-65.1-63.732a4.558,4.558,0,0,0-4.553-4.553,1.369,1.369,0,0,1-1.369-1.369,1.369,1.369,0,0,1,1.369-1.369,7.3,7.3,0,0,1,7.29,7.29A1.369,1.369,0,0,1-63.732-62.364Z" transform="translate(71.022 71.022)"/>
          </g>
          <g id="g5517" transform="translate(59.132 28.765)">
            <path id="path5519" d="M-11.965-62.364a1.369,1.369,0,0,1-1.369-1.369,7.3,7.3,0,0,1,7.29-7.29,1.369,1.369,0,0,1,1.369,1.369,1.369,1.369,0,0,1-1.369,1.369A4.558,4.558,0,0,0-10.6-63.732,1.369,1.369,0,0,1-11.965-62.364Z" transform="translate(13.333 71.022)"/>
          </g>
          <g id="g5521" transform="translate(59.132 9.673)">
            <path id="path5523" d="M-6.043-4.674a7.3,7.3,0,0,1-7.29-7.29,1.369,1.369,0,0,1,1.369-1.369A1.369,1.369,0,0,1-10.6-11.965,4.558,4.558,0,0,0-6.043-7.412,1.369,1.369,0,0,1-4.674-6.043,1.369,1.369,0,0,1-6.043-4.674Z" transform="translate(13.333 13.333)"/>
          </g>
          <g id="g5525" transform="translate(42.975 36.148)">
            <path id="path5527"/>
          </g>
          <g id="g5529" transform="translate(41.606 9.58)">
            <path id="path5531" d="M9.355,14.6H-5.806a1.369,1.369,0,0,1-1.369-1.369,1.369,1.369,0,0,1,1.369-1.369H9.355a.853.853,0,0,0,.852-.852V-9.744a.853.853,0,0,0-.852-.852h-21.32a1.369,1.369,0,0,1-1.369-1.369,1.369,1.369,0,0,1,1.369-1.369H9.355a3.593,3.593,0,0,1,3.589,3.589V11.013A3.593,3.593,0,0,1,9.355,14.6Z" transform="translate(13.333 13.333)"/>
          </g>
          <g id="g5533" transform="translate(18.066 20.674)">
            <path id="path5535" d="M-163.916-133.9h-15.161a3.593,3.593,0,0,1-3.589-3.589v-11.884a1.369,1.369,0,0,1,1.369-1.369,1.369,1.369,0,0,1,1.369,1.369v11.884a.853.853,0,0,0,.852.852h15.161a1.369,1.369,0,0,1,1.369,1.369A1.369,1.369,0,0,1-163.916-133.9Z" transform="translate(182.666 150.745)"/>
          </g>
          <g id="g5537" transform="translate(36.313 16.895)">
            <path id="path5539" d="M-58.239,0a6.662,6.662,0,0,1,6.662,6.662,6.662,6.662,0,0,1-6.662,6.662A6.662,6.662,0,0,1-64.9,6.662,6.662,6.662,0,0,1-58.239,0" transform="translate(64.901 0)" fill="#c4ead9"/>
          </g>
          <g id="g5541" transform="translate(35.401 15.526)">
            <path id="path5543" d="M-8.811-31.859a7.986,7.986,0,0,1-7.479-5.1,1.369,1.369,0,0,1,.775-1.774,1.369,1.369,0,0,1,1.774.775A5.265,5.265,0,0,0-8.811-34.6,5.3,5.3,0,0,0-3.518-39.89a5.3,5.3,0,0,0-5.293-5.293,5.287,5.287,0,0,0-4.682,2.822,1.369,1.369,0,0,1-1.85.569,1.369,1.369,0,0,1-.569-1.85,8.018,8.018,0,0,1,7.1-4.279,8.039,8.039,0,0,1,8.03,8.03A8.04,8.04,0,0,1-8.811-31.859Z" transform="translate(16.385 47.92)"/>
          </g>
          <g id="g5545" transform="translate(57.205 23.556)">
            <path id="path5547"/>
          </g>
          <g id="g5549" transform="translate(13.412 3.558)">
            <path id="path5551" d="M0,0H19.846a8.821,8.821,0,0,1,5.386,1.836l7.2,5.555H17.554a2.841,2.841,0,0,0-2.841,2.841h0a2.841,2.841,0,0,0,1.466,2.486l7.041,3.894a3.369,3.369,0,0,1,1.526,4.125h0a3.369,3.369,0,0,1-3.733,2.142l-4.944-.86A31.4,31.4,0,0,1,3.285,16.7H0Z" fill="#ffd4be"/>
          </g>
          <g id="g5553" transform="translate(12.044 2.19)">
            <path id="path5555" d="M9.626,12.333a4.74,4.74,0,0,1-.813-.07L3.87,11.4A32.986,32.986,0,0,1-9.111,6.1h-2.854a1.369,1.369,0,0,1-1.369-1.369,1.369,1.369,0,0,1,1.369-1.369H-8.68a1.369,1.369,0,0,1,.792.252A30.221,30.221,0,0,0,4.339,8.706l4.944.86a2,2,0,0,0,1.311-3.721L3.552,1.951A4.211,4.211,0,0,1,1.379-1.733a4.215,4.215,0,0,1,4.21-4.21H16.455l-4.024-3.1A7.49,7.49,0,0,0,7.881-10.6H-11.965a1.369,1.369,0,0,1-1.369-1.369,1.369,1.369,0,0,1,1.369-1.369H7.881a10.242,10.242,0,0,1,6.222,2.12l7.2,5.555a1.369,1.369,0,0,1,.46,1.525,1.369,1.369,0,0,1-1.3.927H5.589A1.474,1.474,0,0,0,4.117-1.733a1.473,1.473,0,0,0,.76,1.288L11.918,3.45a4.737,4.737,0,0,1-2.291,8.883Z" transform="translate(13.333 13.333)"/>
          </g>
          <path id="path5557" d="M25.377-647.434H13.333v-21.9H25.377Z" transform="translate(-11.965 670.7)" fill="#f6838d"/>
          <path id="path5557_-_Contorno" data-name="path5557 - Contorno" d="M13.412-658.03H1.369A1.369,1.369,0,0,1,0-659.4v-21.9a1.369,1.369,0,0,1,1.369-1.369H13.412a1.369,1.369,0,0,1,1.369,1.369v21.9A1.369,1.369,0,0,1,13.412-658.03ZM2.737-660.767h9.307v-19.161H2.737Z" transform="translate(0 682.665)"/>
          <g id="g5559" transform="translate(8.765 46.663)">
            <path id="path5561" d="M-8.8-25.456h0A3.4,3.4,0,0,1-4-25.445L2.65-18.79a11.889,11.889,0,0,0,8.408,3.483h.57a3.388,3.388,0,0,1-3.388-3.388h0a3.388,3.388,0,0,1,3.388-3.388h8.641L22.056-24.2a11.706,11.706,0,0,1,8.952-4.164h0a11.706,11.706,0,0,1,6.875,2.232l.2.144V-7.968H11.27A17.88,17.88,0,0,1-1.373-13.205l-7.435-7.435A3.4,3.4,0,0,1-8.8-25.456" transform="translate(9.803 28.368)" fill="#ffd4be"/>
          </g>
          <g id="g5563" transform="translate(7.396 47.226)">
            <path id="path5565" d="M-430.589-172.041H-457.4a19.122,19.122,0,0,1-13.611-5.638l-7.435-7.435a4.733,4.733,0,0,1-1.4-3.381,4.734,4.734,0,0,1,1.412-3.375,4.776,4.776,0,0,1,6.724.016l6.653,6.655a10.451,10.451,0,0,0,7.44,3.082h7.393a1.369,1.369,0,0,1,1.369,1.369,1.369,1.369,0,0,1-1.369,1.369h-7.393a13.171,13.171,0,0,1-9.376-3.884l-6.653-6.655a2.033,2.033,0,0,0-2.862-.007,2.014,2.014,0,0,0-.6,1.436,2.015,2.015,0,0,0,.594,1.439l7.435,7.435a16.4,16.4,0,0,0,11.675,4.836h26.813a1.369,1.369,0,0,1,1.369,1.369A1.369,1.369,0,0,1-430.589-172.041Z" transform="translate(479.844 193.246)"/>
          </g>
          <g id="g5567" transform="translate(25.439 45.294)">
            <path id="path5569" d="M-171.868-124.783h-14.9a4.762,4.762,0,0,1-4.757-4.757,4.762,4.762,0,0,1,4.757-4.757h8l1.377-1.635a13.047,13.047,0,0,1,10-4.651,12.993,12.993,0,0,1,7.679,2.493l.2.144a1.369,1.369,0,0,1,.3,1.911,1.369,1.369,0,0,1-1.911.3l-.2-.144a10.273,10.273,0,0,0-6.071-1.971,10.316,10.316,0,0,0-7.906,3.677l-1.787,2.122a1.369,1.369,0,0,1-1.047.487h-8.641a2.022,2.022,0,0,0-2.019,2.019,2.022,2.022,0,0,0,2.019,2.019h14.9a1.369,1.369,0,0,1,1.369,1.369A1.369,1.369,0,0,1-171.868-124.783Z" transform="translate(191.527 140.582)"/>
          </g>
          <g id="g5571" transform="translate(56.661 46.807)">
            <path id="path5573" d="M-105.289-191.435h-12.044v-21.9h12.044Z" transform="translate(117.333 213.333)" fill="#91def5"/>
          </g>
          <g id="g5575" transform="translate(55.292 45.438)">
            <path id="path5577" d="M-117.254-202.031H-129.3a1.369,1.369,0,0,1-1.369-1.369v-21.9a1.369,1.369,0,0,1,1.369-1.369h12.044a1.369,1.369,0,0,1,1.369,1.369v21.9A1.369,1.369,0,0,1-117.254-202.031Zm-10.675-2.737h9.307v-19.161h-9.307Z" transform="translate(130.666 226.666)"/>
          </g>
        </g>
      </g>
    </g>
  </g>
</svg>
