<svg xmlns="http://www.w3.org/2000/svg" xmlns:xlink="http://www.w3.org/1999/xlink" width="124.943" height="111.726" viewBox="0 0 124.943 111.726">
  <defs>
    <filter id="Elipse_12607" x="54.072" y="40.855" width="70.871" height="70.871" filterUnits="userSpaceOnUse">
      <feOffset dy="3" input="SourceAlpha"/>
      <feGaussianBlur stdDeviation="3" result="blur"/>
      <feFlood flood-opacity="0.161"/>
      <feComposite operator="in" in2="blur"/>
      <feComposite in="SourceGraphic"/>
    </filter>
    <filter id="Elipse_12608" x="0" y="0" width="56.452" height="56.451" filterUnits="userSpaceOnUse">
      <feOffset dy="3" input="SourceAlpha"/>
      <feGaussianBlur stdDeviation="3" result="blur-2"/>
      <feFlood flood-opacity="0.161"/>
      <feComposite operator="in" in2="blur-2"/>
      <feComposite in="SourceGraphic"/>
    </filter>
  </defs>
  <g id="Grupo_1203412" data-name="Grupo 1203412" transform="translate(-319.982 -3859.222)">
    <g id="Grupo_1203357" data-name="Grupo 1203357" transform="translate(328.982 3865.222)">
      <g transform="matrix(1, 0, 0, 1, -9, -6)" filter="url(#Elipse_12607)">
        <circle id="Elipse_12607-2" data-name="Elipse 12607" cx="26.435" cy="26.435" r="26.435" transform="translate(63.07 46.85)" fill="#ff9800"/>
      </g>
      <g transform="matrix(1, 0, 0, 1, -9, -6)" filter="url(#Elipse_12608)">
        <circle id="Elipse_12608-2" data-name="Elipse 12608" cx="19.226" cy="19.226" r="19.226" transform="translate(9 6)" fill="#ff9800"/>
      </g>
    </g>
    <g id="pp" transform="translate(342.319 3872.819)">
      <g id="Grupo_1204014" data-name="Grupo 1204014" transform="translate(2.232 2.232)">
        <g id="Grupo_1203989" data-name="Grupo 1203989" transform="translate(22.381 33.258)">
          <path id="Trazado_1262527" data-name="Trazado 1262527" d="M42.132,33.927l3.7-4.915.973.32a14.745,14.745,0,0,1,8.955,8.29H33.51a1.235,1.235,0,0,0-1.232,1.232v8.672a14.679,14.679,0,0,0-4.927,1.059v-2.34l-3.079,3.079-4.1-4.1a11.506,11.506,0,0,0,2.254-6.861,11.623,11.623,0,0,0-.431-3.129A26.139,26.139,0,0,1,31.047,29l3.7,4.927,3.7-3.7Z" transform="translate(-20.17 -29)" fill="#75b1f2"/>
        </g>
        <g id="Grupo_1203990" data-name="Grupo 1203990" transform="translate(40.648 32.038)">
          <path id="Trazado_1262528" data-name="Trazado 1262528" d="M42.391,29.242l-3.7,4.915-3.7-3.7,3.7-2.451Z" transform="translate(-35 -28.01)" fill="#5d9cec"/>
        </g>
        <g id="Grupo_1203991" data-name="Grupo 1203991" transform="translate(33.258 32.026)">
          <path id="Trazado_1262529" data-name="Trazado 1262529" d="M36.391,30.464l-3.7,3.7L29,29.232a27.038,27.038,0,0,1,3.7-1.219V28Z" transform="translate(-29 -28)" fill="#5d9cec"/>
        </g>
        <g id="Grupo_1203992" data-name="Grupo 1203992" transform="translate(20.94)">
          <path id="Trazado_1262530" data-name="Trazado 1262530" d="M22.7,9.391,21.02,7.715,19,5.7A12.626,12.626,0,0,1,27.918,2H38.782a13.478,13.478,0,0,1,7.181,24.882L42.4,29.1V22.952l1.589-1.589a2.964,2.964,0,0,0,.875-2.106,2.408,2.408,0,0,0-.727-1.737,2.459,2.459,0,0,0-1.737-.727,4.947,4.947,0,0,0-4.939-4.939H25.159A2.481,2.481,0,0,1,22.7,9.391Z" transform="translate(-19 -2)" fill="#656d78"/>
        </g>
        <g id="Grupo_1203993" data-name="Grupo 1203993" transform="translate(19.708 5.715)">
          <path id="Trazado_1262531" data-name="Trazado 1262531" d="M25.391,10.779V12.22a8.855,8.855,0,0,1-.062,1L18,10.779A7.779,7.779,0,0,1,21.252,6.64l1.675,1.675a2.481,2.481,0,0,0,2.464,2.464Z" transform="translate(-18 -6.64)" fill="#656d78"/>
        </g>
        <g id="Grupo_1203994" data-name="Grupo 1203994" transform="translate(44.344 61.588)">
          <path id="Trazado_1262532" data-name="Trazado 1262532" d="M67.562,52v4.927H38V52H67.562Z" transform="translate(-38 -52)" fill="#a0d468"/>
        </g>
        <g id="Grupo_1203995" data-name="Grupo 1203995" transform="translate(43.851 66.515)">
          <path id="Trazado_1262533" data-name="Trazado 1262533" d="M67.655,56v3.7a1.235,1.235,0,0,1-1.232,1.232H37.6a1.915,1.915,0,0,0,.493-1.232V56Z" transform="translate(-37.6 -56)" fill="#b4dd7f"/>
        </g>
        <g id="Grupo_1203996" data-name="Grupo 1203996" transform="translate(54.198 41.88)">
          <path id="Trazado_1262534" data-name="Trazado 1262534" d="M55.854,45.854A9.851,9.851,0,0,0,46,36H60.781a4.926,4.926,0,0,0,4.927,4.927v9.854a4.926,4.926,0,0,0-4.927,4.927H46A9.851,9.851,0,0,0,55.854,45.854Z" transform="translate(-46 -36)" fill="#b4dd7f"/>
        </g>
        <g id="Grupo_1203997" data-name="Grupo 1203997" transform="translate(34.49 41.88)">
          <path id="Trazado_1262535" data-name="Trazado 1262535" d="M39.854,45.854a9.851,9.851,0,0,0,9.854,9.854H39.854V49.549c0-2.045-3.855-3.7-8.622-3.7-.419,0-.838.012-1.232.049V40.927A4.926,4.926,0,0,0,34.927,36H49.708a9.851,9.851,0,0,0-9.854,9.854Z" transform="translate(-30 -36)" fill="#b4dd7f"/>
        </g>
        <g id="Grupo_1203998" data-name="Grupo 1203998" transform="translate(27.099 60.357)">
          <path id="Trazado_1262536" data-name="Trazado 1262536" d="M41.245,52.232v3.7c0,2.045-3.855,3.7-8.622,3.7S24,57.972,24,55.927V51c0,2.045,3.855,3.7,8.622,3.7s8.622-1.651,8.622-3.7Z" transform="translate(-24 -51)" fill="#ffc729"/>
        </g>
        <g id="Grupo_1203999" data-name="Grupo 1203999" transform="translate(27.099 51.734)">
          <path id="Trazado_1262537" data-name="Trazado 1262537" d="M32.622,44c4.767,0,8.622,1.651,8.622,3.7s-3.855,3.7-8.622,3.7S24,49.74,24,47.7c0-1.01.936-1.922,2.464-2.587a14.679,14.679,0,0,1,4.927-1.059C31.785,44.012,32.2,44,32.622,44Z" transform="translate(-24 -44)" fill="#ffc729"/>
        </g>
        <g id="Grupo_1204000" data-name="Grupo 1204000" transform="translate(27.099 65.284)">
          <path id="Trazado_1262538" data-name="Trazado 1262538" d="M41.245,56.232v3.7a1.915,1.915,0,0,1-.493,1.232c-1.182,1.441-4.373,2.464-8.13,2.464-4.767,0-8.622-1.651-8.622-3.7V55c0,2.045,3.855,3.7,8.622,3.7s8.622-1.651,8.622-3.7Z" transform="translate(-24 -55)" fill="#fcd770"/>
        </g>
        <g id="Grupo_1204001" data-name="Grupo 1204001" transform="translate(27.099 55.43)">
          <path id="Trazado_1262539" data-name="Trazado 1262539" d="M41.245,47v4.927c0,2.045-3.855,3.7-8.622,3.7S24,53.972,24,51.927V47c0,2.045,3.855,3.7,8.622,3.7S41.245,49.045,41.245,47Z" transform="translate(-24 -47)" fill="#fcd770"/>
        </g>
        <g id="Grupo_1204002" data-name="Grupo 1204002" transform="translate(68.979 56.661)">
          <path id="Trazado_1262540" data-name="Trazado 1262540" d="M62.927,48v4.927H58A4.926,4.926,0,0,1,62.927,48Z" transform="translate(-58 -48)" fill="#a0d468"/>
        </g>
        <g id="Grupo_1204003" data-name="Grupo 1204003" transform="translate(34.49 41.88)">
          <path id="Trazado_1262541" data-name="Trazado 1262541" d="M31.232,36h3.7A4.926,4.926,0,0,1,30,40.927v-3.7A1.235,1.235,0,0,1,31.232,36Z" transform="translate(-30 -36)" fill="#a0d468"/>
        </g>
        <g id="Grupo_1204004" data-name="Grupo 1204004" transform="translate(68.979 41.88)">
          <path id="Trazado_1262542" data-name="Trazado 1262542" d="M61.7,36H58a4.926,4.926,0,0,0,4.927,4.927v-3.7A1.235,1.235,0,0,0,61.7,36Z" transform="translate(-58 -36)" fill="#a0d468"/>
        </g>
        <g id="Grupo_1204005" data-name="Grupo 1204005" transform="translate(44.344 41.88)">
          <ellipse id="Elipse_12674" data-name="Elipse 12674" cx="10" cy="9.5" rx="10" ry="9.5" transform="translate(-0.206 0.258)" fill="#fcd770"/>
        </g>
        <g id="Grupo_1204006" data-name="Grupo 1204006" transform="translate(12.318 49.48)">
          <path id="Trazado_1262543" data-name="Trazado 1262543" d="M26.165,46.272,24.034,48.4a7.434,7.434,0,0,1-10.519,0L12,46.888h.739a11.575,11.575,0,0,0,9.324-4.718Z" transform="translate(-12 -42.17)" fill="#f0d0b4"/>
        </g>
        <g id="Grupo_1204007" data-name="Grupo 1204007" transform="translate(24.635 9.854)">
          <path id="Trazado_1262544" data-name="Trazado 1262544" d="M24.464,10H36.769a4.947,4.947,0,0,1,4.939,4.939,2.459,2.459,0,0,1,1.737.727,2.408,2.408,0,0,1,.727,1.737,2.964,2.964,0,0,1-.875,2.106L41.708,21.1V32.184l-3.7,2.451-3.7-2.464v-3.2l-3.153.628a5.427,5.427,0,0,1-1.1.111,5.569,5.569,0,0,1-4.631-2.464h1.49a4.926,4.926,0,0,0,4.927-4.927H24.464V19.854L22,17.391a8.377,8.377,0,0,0,2.4-4.952,8.855,8.855,0,0,0,.062-1Z" transform="translate(-22 -10)" fill="#f0d0b4"/>
        </g>
        <g id="Grupo_1204008" data-name="Grupo 1204008" transform="translate(27.099 22.172)">
          <path id="Trazado_1262545" data-name="Trazado 1262545" d="M24,20h7.391a4.926,4.926,0,0,1-4.927,4.927h-1.49A5.545,5.545,0,0,1,24,21.786Z" transform="translate(-24 -20)" fill="#ff826e"/>
        </g>
        <g id="Grupo_1204009" data-name="Grupo 1204009" transform="translate(4.927 22.172)">
          <path id="Trazado_1262546" data-name="Trazado 1262546" d="M9.7,20a3.69,3.69,0,0,1,3.7,3.7,3.414,3.414,0,0,1-.222,1.232,3.5,3.5,0,0,1-.862,1.38A3.686,3.686,0,0,1,9.7,27.391H7.232A1.364,1.364,0,0,1,7,27.366a1.24,1.24,0,0,1-1-1.207V21.232A1.235,1.235,0,0,1,7.232,20H9.7Z" transform="translate(-6 -20)" fill="#f5e0cd"/>
        </g>
        <g id="Grupo_1204010" data-name="Grupo 1204010" transform="translate(9.854 12.318)">
          <path id="Trazado_1262547" data-name="Trazado 1262547" d="M19.854,14.464a12.261,12.261,0,0,1-2.045,6.775l-.419.616H12.464l-.259-.517a20.813,20.813,0,0,1-2.057-6.873A20.505,20.505,0,0,1,10,12a20.733,20.733,0,0,1,7.7,1.232A6.829,6.829,0,0,1,19.854,14.464Z" transform="translate(-10 -12)" fill="#d3a06c"/>
        </g>
        <g id="Grupo_1204011" data-name="Grupo 1204011" transform="translate(4.927 14.781)">
          <path id="Trazado_1262548" data-name="Trazado 1262548" d="M11.075,14a20.813,20.813,0,0,0,2.057,6.873l.259.517H8.464L6,16.464A4.451,4.451,0,0,1,9.991,14Z" transform="translate(-6 -14)" fill="#cf9e76"/>
        </g>
        <g id="Grupo_1204012" data-name="Grupo 1204012" transform="translate(8.622 22.172)">
          <path id="Trazado_1262549" data-name="Trazado 1262549" d="M12.7,20h4.927v4.927H12.474A3.414,3.414,0,0,0,12.7,23.7,3.69,3.69,0,0,0,9,20Z" transform="translate(-9 -20)" fill="#fcd770"/>
        </g>
        <g id="Grupo_1204013" data-name="Grupo 1204013" transform="translate(0 27.099)">
          <path id="Trazado_1262550" data-name="Trazado 1262550" d="M14.318,51.1h-.739A11.572,11.572,0,0,1,3.651,33.571l4.274-7.132a1.364,1.364,0,0,0,.234.025h2.464a3.686,3.686,0,0,0,2.611-1.084A3.5,3.5,0,0,0,14.1,24h5.149l5.74,9.571A11.918,11.918,0,0,1,26.2,36.392a11.623,11.623,0,0,1,.431,3.129A11.584,11.584,0,0,1,15.057,51.1Z" transform="translate(-2 -24)" fill="#cf9e76"/>
        </g>
      </g>
      <g id="Grupo_1204015" data-name="Grupo 1204015" transform="translate(1 1)">
        <path id="Trazado_1262551" data-name="Trazado 1262551" d="M74.906,42.88H60.969a16.01,16.01,0,0,0-9.342-8.229l-3.82-1.27V30.013l2.977-1.86a14.55,14.55,0,0,0,6.877-12.408A14.741,14.741,0,0,0,42.958,1H32.094A13.757,13.757,0,0,0,22.3,5.056l-.872.871,1.894,1.894A9.057,9.057,0,0,0,20.772,11.7l-.389,1.169,7.469,2.488A7.209,7.209,0,0,1,26,18.606l-.872.871L28.1,22.45v3.74a6.84,6.84,0,0,0,8.176,6.7l1.678-.336v.766a27.368,27.368,0,0,0-11.035,6.2,12.619,12.619,0,0,0-.644-1.259l-5.565-9.276V24.777l.207-.31a13.4,13.4,0,0,0,2.257-7.453V16.5l-.361-.361c-.288-.288-3.046-2.824-10.725-2.824H10.854v1.232c0,.416.012.834.037,1.249a5.649,5.649,0,0,0-4.833,3.126l-.276.552,1.906,3.81a2.459,2.459,0,0,0-1.76,2.349v4.927a2.438,2.438,0,0,0,.579,1.567L2.824,38.266a12.808,12.808,0,0,0,10.982,19.4h.232l1.157,1.157a8.667,8.667,0,0,0,12.257,0l.647-.647V72.443c0,3.235,4.957,4.927,9.854,4.927,3.445,0,6.911-.841,8.669-2.464H74.906a2.466,2.466,0,0,0,2.464-2.464v-27.1a2.466,2.466,0,0,0-2.464-2.464Zm0,4.7a3.692,3.692,0,0,1-2.237-2.237h2.237ZM37.953,55.2c4.585,0,7.391,1.6,7.391,2.464s-2.806,2.464-7.391,2.464-7.391-1.6-7.391-2.464S33.368,55.2,37.953,55.2Zm0-5.051a6.178,6.178,0,0,0,4.8-4.8h6.721a11.067,11.067,0,0,0-4.133,8.622c0,.115.014.224.017.338a16.227,16.227,0,0,0-7.408-1.569Zm0-2.566V45.344H40.19a3.692,3.692,0,0,1-2.237,2.237Zm27.1,6.385a8.622,8.622,0,1,1-8.622-8.622A8.633,8.633,0,0,1,65.052,53.966ZM47.807,60.919a11.194,11.194,0,0,0,1.669,1.669H47.807Zm0,4.133h27.1v2.464h-27.1Zm24.862-2.464a3.692,3.692,0,0,1,2.237-2.237v2.237Zm-2.566,0H63.383a11.061,11.061,0,0,0,0-17.245H70.1a6.178,6.178,0,0,0,4.8,4.8v7.639a6.178,6.178,0,0,0-4.8,4.8ZM48.253,36.126l-1.812,2.415-1.626-1.626,1.94-1.287ZM32.092,3.464H42.956A12.275,12.275,0,0,1,55.2,15.745a12.1,12.1,0,0,1-5.72,10.32l-1.67,1.043V23.694l1.232-1.231a4.18,4.18,0,0,0,1.232-2.975,3.7,3.7,0,0,0-2.552-3.515,6.183,6.183,0,0,0-6.082-5.119H29.331a1.232,1.232,0,0,1,0-2.464h1.232V5.927H29.331a3.681,3.681,0,0,0-2.938,1.478L24.96,5.973a11.3,11.3,0,0,1,7.132-2.509Zm-7.02,6.107.62.62a3.676,3.676,0,0,0,1.323,2.29l-3.406-1.136a6.59,6.59,0,0,1,1.463-1.774ZM31.794,28.1h-.774a4.311,4.311,0,0,1-.458-1.909v-.554h4.716A3.7,3.7,0,0,1,31.794,28.1Zm10.1,3.671-.484-2.415L35.79,30.477a4.17,4.17,0,0,1-2.3-.181A6.149,6.149,0,0,0,37.953,24.4V23.172H30.562V21.43l-2.01-2.01a9.721,9.721,0,0,0,2.01-5.89v-.212H41.636a3.713,3.713,0,0,1,3.708,3.708v1.232h1.232a1.232,1.232,0,0,1,1.232,1.232,1.735,1.735,0,0,1-.51,1.233l-1.954,1.952V33.61l-2.462,1.633L40.417,33.6V32.065Zm-2.9,3.837,1.959,1.306-1.628,1.628-1.855-2.473c.5-.17,1.011-.321,1.525-.461ZM35.1,37.017l3.955,5.276,3.83-3.83,3.828,3.828,4.008-5.347.133.044a13.541,13.541,0,0,1,7.327,5.89H37.953a2.466,2.466,0,0,0-2.464,2.464v7.54a17.629,17.629,0,0,0-2.464.467V45.344H30.562v6.881l-1.848,1.848L26.19,51.547a12.391,12.391,0,0,0,1.588-9.414A24.942,24.942,0,0,1,35.1,37.017Zm-14.4-19.405A10.951,10.951,0,0,1,18.866,23.1l-.048.073h-3.5a19.752,19.752,0,0,1-1.962-7.365C17.673,15.993,19.878,17.092,20.692,17.612ZM8.391,30.562V25.635h2.464a2.464,2.464,0,1,1,0,4.927Zm9.854-4.927V28.1H15.781a4.89,4.89,0,0,0-.661-2.464Zm-7.1-7.391h.026a22.29,22.29,0,0,0,1.437,4.927H10.384L8.564,19.534A3.205,3.205,0,0,1,11.145,18.245ZM3.464,44.855a10.349,10.349,0,0,1,1.473-5.32l3.9-6.509h2.013a4.93,4.93,0,0,0,4.266-2.464h3.66l5.383,8.971A10.344,10.344,0,0,1,15.292,55.2H13.808A10.357,10.357,0,0,1,3.464,44.855ZM21.324,58.893a6.136,6.136,0,0,1-3.907-1.423,12.779,12.779,0,0,0,7.27-3.942l2.286,2.286L25.71,57.077a6.164,6.164,0,0,1-4.386,1.816Zm9.238,2.133a16.238,16.238,0,0,0,7.391,1.562,16.238,16.238,0,0,0,7.391-1.562v1.562c0,.868-2.806,2.464-7.391,2.464s-7.391-1.6-7.391-2.464Zm0,4.927a16.238,16.238,0,0,0,7.391,1.562,16.238,16.238,0,0,0,7.391-1.562v1.562c0,.868-2.806,2.464-7.391,2.464s-7.391-1.6-7.391-2.464Zm7.391,8.952c-4.585,0-7.391-1.6-7.391-2.464V70.881a16.238,16.238,0,0,0,7.391,1.562,16.238,16.238,0,0,0,7.391-1.562v1.562C45.344,73.311,42.538,74.906,37.953,74.906Zm9.854-2.464V69.979h27.1v2.464Z" transform="translate(-1 -1)"/>
        <path id="Trazado_1262552" data-name="Trazado 1262552" d="M13.927,46.245V43.781h2.464v-3.7a3.7,3.7,0,0,0-3.7-3.7,1.232,1.232,0,0,1-1.232-1.232V33.927H12.7a1.232,1.232,0,0,1,1.232,1.232v1.232h2.464V35.159a3.69,3.69,0,0,0-2.464-3.469V29H11.464v2.464H9v3.7a3.7,3.7,0,0,0,3.7,3.7,1.232,1.232,0,0,1,1.232,1.232v1.232H12.7a1.232,1.232,0,0,1-1.232-1.232V38.854H9v1.232a3.69,3.69,0,0,0,2.464,3.469v2.69Z" transform="translate(0.854 5.49)"/>
        <path id="Trazado_1262553" data-name="Trazado 1262553" d="M31.927,14.232a1.232,1.232,0,1,1-2.464,0V13H27v1.232a3.7,3.7,0,0,0,7.391,0V13H31.927Z" transform="translate(5.026 1.781)"/>
      </g>
    </g>
  </g>
</svg>
