<svg xmlns="http://www.w3.org/2000/svg" width="71" height="71" viewBox="0 0 71 71">
  <g id="Grupo_1203965" data-name="Grupo 1203965" transform="translate(-249 -2283)">
    <circle id="Elipse_12666" data-name="Elipse 12666" cx="35.5" cy="35.5" r="35.5" transform="translate(249 2283)" fill="#ffc94a"/>
    <g id="bolsa-de-dinero" transform="translate(257.966 2289.327)">
      <g id="Grupo_1203961" data-name="Grupo 1203961" transform="translate(1.827 1.804)">
        <g id="Grupo_1203952" data-name="Grupo 1203952" transform="translate(23.143 3.538)">
          <path id="Trazado_1262482" data-name="Trazado 1262482" d="M34.761,6.28l2.678,8.034h-2.48L30,9.355a2.811,2.811,0,0,1,2.463-2.785l2.289-.289Z" transform="translate(-30 -6.28)" fill="#d3a06c"/>
        </g>
        <g id="Grupo_1203953" data-name="Grupo 1203953" transform="translate(27.275)">
          <path id="Trazado_1262483" data-name="Trazado 1262483" d="M46.571,2.827l-.827,2.686-2.48,8.059H38.306L35.628,5.538,35,3.653l4.133-.827,1.653,2.48L43.265,2Z" transform="translate(-35 -2)" fill="#d3a06c"/>
        </g>
        <g id="Grupo_1203954" data-name="Grupo 1203954" transform="translate(35.541 3.513)">
          <path id="Trazado_1262484" data-name="Trazado 1262484" d="M52.439,9.349,47.48,14.309H45L47.48,6.25l2.5.314A2.811,2.811,0,0,1,52.439,9.349Z" transform="translate(-45 -6.25)" fill="#d3a06c"/>
        </g>
        <g id="Grupo_1203955" data-name="Grupo 1203955" transform="translate(24.796 11.571)">
          <path id="Trazado_1262485" data-name="Trazado 1262485" d="M46.878,16a1.658,1.658,0,0,1,1.653,1.653,1.665,1.665,0,0,1-1.653,1.653H33.653A1.658,1.658,0,0,1,32,17.653,1.665,1.665,0,0,1,33.653,16H46.878Z" transform="translate(-32 -16)" fill="#ccd1d9"/>
        </g>
        <g id="Grupo_1203956" data-name="Grupo 1203956" transform="translate(16.531 14.878)">
          <path id="Trazado_1262486" data-name="Trazado 1262486" d="M36.878,44.8V38.184H22.165A15.936,15.936,0,0,1,22,35.9,15.521,15.521,0,0,1,29.116,22.86L33.571,20H43.49l4.455,2.86a15.507,15.507,0,0,1-8.389,28.548h-2.05c-.215,0-.422-.008-.628-.017Z" transform="translate(-22 -20)" fill="#cf9e76"/>
        </g>
        <g id="Grupo_1203957" data-name="Grupo 1203957" transform="translate(12.398 33.061)">
          <path id="Trazado_1262487" data-name="Trazado 1262487" d="M36.01,55.208v3.323H17A8.265,8.265,0,1,0,17,42H36.01V55.208Z" transform="translate(-17 -42)" fill="#b4dd7f"/>
        </g>
        <g id="Grupo_1203958" data-name="Grupo 1203958" transform="translate(4.133 33.061)">
          <circle id="Elipse_12665" data-name="Elipse 12665" cx="8.265" cy="8.265" r="8.265" fill="#fcd770"/>
        </g>
        <g id="Grupo_1203959" data-name="Grupo 1203959" transform="translate(0 29.755)">
          <path id="Trazado_1262488" data-name="Trazado 1262488" d="M10.265,41.306H14.4a8.265,8.265,0,1,0,0,16.531H5.306A3.305,3.305,0,0,1,2,54.531V38a3.305,3.305,0,0,0,3.306,3.306Z" transform="translate(-2 -38)" fill="#b4dd7f"/>
        </g>
        <g id="Grupo_1203960" data-name="Grupo 1203960" transform="translate(0 26.449)">
          <path id="Trazado_1262489" data-name="Trazado 1262489" d="M10.265,34v6.612H5.306a3.306,3.306,0,1,1,0-6.612Z" transform="translate(-2 -34)" fill="#a0d468"/>
        </g>
      </g>
      <g id="Grupo_1203962" data-name="Grupo 1203962" transform="translate(1 0.87)">
        <path id="Trazado_1262490" data-name="Trazado 1262490" d="M25,38.613l1.653.026a11.521,11.521,0,0,1,.129-1.544l-1.635-.247A13.176,13.176,0,0,0,25,38.613Z" transform="translate(-5.164 -7.111)"/>
        <path id="Trazado_1262491" data-name="Trazado 1262491" d="M31.1,25.843a13.008,13.008,0,0,0-5.435,7.208l1.584.473a11.357,11.357,0,0,1,4.746-6.291l1.054-.677-.893-1.39Z" transform="translate(-5.278 -5.085)"/>
        <path id="Trazado_1262492" data-name="Trazado 1262492" d="M58.636,38.981l-1.653.031,0,.184a11.379,11.379,0,0,1-.075,1.31l1.642.189a13.167,13.167,0,0,0,.086-1.5Z" transform="translate(-10.699 -7.481)"/>
        <path id="Trazado_1262493" data-name="Trazado 1262493" d="M47.677,50.621l.534,1.565A13.011,13.011,0,0,0,56.6,43.207L55,42.781a11.359,11.359,0,0,1-7.323,7.84Z" transform="translate(-9.097 -8.14)"/>
        <path id="Trazado_1262494" data-name="Trazado 1262494" d="M44.745,18.848l-2.353-1.513a2.468,2.468,0,0,0-.581-4.755l3.822-3.822V8.416a3.641,3.641,0,0,0-3.185-3.607l-1.522-.19.793-2.578L37.036.87,34.927,3.68,33.615,1.711,28.021,2.831l.606,1.817-1.3.162a3.64,3.64,0,0,0-3.184,3.607v.342l3.822,3.822a2.468,2.468,0,0,0-.581,4.755l-2.353,1.513a16.261,16.261,0,0,0-7.5,13.737c0,.485.029.97.071,1.454H10.918V27.426H5.133A4.137,4.137,0,0,0,1,31.559V48.09a4.137,4.137,0,0,0,4.133,4.133H34.061V48.916h1.852a16.331,16.331,0,0,0,8.831-30.068Zm-2.5-12.4A1.987,1.987,0,0,1,43.954,8.1L39.5,12.549H38.486l1.946-6.326Zm-9.389-2.9,1.994,2.99,2.852-3.8,1.927.482-2.871,9.329H33L30.182,4.084Zm-5.322,2.9,1.627-.2,2.1,6.3h-.99L25.822,8.1a1.987,1.987,0,0,1,1.711-1.65Zm.743,7.753H41.5a.827.827,0,0,1,0,1.653H28.275a.827.827,0,1,1,0-1.653ZM5.133,29.079H9.265v4.959H5.133a2.48,2.48,0,0,1,0-4.959Zm0,21.49a2.483,2.483,0,0,1-2.48-2.48V34.863a4.111,4.111,0,0,0,2.48.828H9.013a9.07,9.07,0,0,0,0,14.878Zm9.092-14.878A7.439,7.439,0,1,1,6.786,43.13,7.447,7.447,0,0,1,14.224,35.692ZM32.408,50.569H19.436a9.07,9.07,0,0,0,0-14.878H32.408Zm1.653-15.228a4.092,4.092,0,0,0,1.653.35,2.48,2.48,0,0,1,0,4.959H34.061Zm1.852,11.922H34.061V42.3h1.653a4.133,4.133,0,0,0,0-8.265,2.48,2.48,0,1,1,0-4.959h2.48v2.48h1.653V27.426H36.541V25.773H34.888V27.51a4.14,4.14,0,0,0-3.306,4.049,4.09,4.09,0,0,0,.848,2.48H19.264c-.047-.483-.08-.968-.08-1.454a14.619,14.619,0,0,1,6.74-12.347l4.247-2.73H39.6l4.247,2.73a14.678,14.678,0,0,1-7.938,27.025Z" transform="translate(-1 -0.87)"/>
        <path id="Trazado_1262495" data-name="Trazado 1262495" d="M15.48,56.571h1.653V54.918a2.48,2.48,0,1,0,0-4.959H15.48a.827.827,0,0,1,0-1.653h2.48v.827h1.653v-2.48h-2.48V45H15.48v1.653a2.48,2.48,0,1,0,0,4.959h1.653a.827.827,0,0,1,0,1.653h-2.48v-.827H13v2.48h2.48Z" transform="translate(-3.082 -8.525)"/>
        <path id="Trazado_1262496" data-name="Trazado 1262496" d="M34.48,49.133h1.653V45H32v1.653h2.48Z" transform="translate(-6.378 -8.525)"/>
        <path id="Trazado_1262497" data-name="Trazado 1262497" d="M36.133,54H34.48v2.48H32v1.653h4.133Z" transform="translate(-6.378 -10.086)"/>
      </g>
    </g>
  </g>
</svg>
