<svg xmlns="http://www.w3.org/2000/svg" width="71" height="71" viewBox="0 0 71 71">
  <g id="Grupo_1203964" data-name="Grupo 1203964" transform="translate(-860 -2283)">
    <circle id="Elipse_12667" data-name="Elipse 12667" cx="35.5" cy="35.5" r="35.5" transform="translate(860 2283)" fill="#5a4e76"/>
    <g id="Page-1" transform="translate(870 2290.361)">
      <g id="_059---Money-Bag" data-name="059---Money-Bag" transform="translate(0 -0.001)">
        <path id="Shape" d="M43.016,49.408H25.987V38.759c0-1.473-2.582-2.662-5.768-2.662A11.641,11.641,0,0,0,18,36.3V26.637c2.807-6.545,7.595-11.3,11.847-13.409a4.814,4.814,0,0,0,2.511.683h4.97a4.792,4.792,0,0,0,2.529-.7c1.935.958,10.658,5.955,13.808,19.337C57.215,47.633,46.566,49.408,43.016,49.408Z" transform="translate(-2.026 -2.374)" fill="#ffdc00"/>
        <path id="Shape-2" data-name="Shape" d="M56.238,32.547C53.088,19.165,44.365,14.168,42.43,13.21a4.631,4.631,0,0,1-1.575.6c3.043,1.817,9.983,7.113,12.721,18.738,3.55,15.086-7.1,16.861-10.649,16.861h2.662c3.55,0,14.2-1.775,10.649-16.861Z" transform="translate(-4.599 -2.374)" fill="#fec108"/>
        <path id="Shape-3" data-name="Shape" d="M44.744,3.038c.009,1.952-.382,6.212-3.505,8.652a2.774,2.774,0,0,1-.373.257,4.792,4.792,0,0,1-2.529.7h-4.97a4.814,4.814,0,0,1-2.511-.683c-.133-.089-.266-.177-.39-.275-3.124-2.44-3.505-6.7-3.505-8.652a.887.887,0,0,1,1.225-.816c1.136.479,1.517,1.553,3.239,1.553,2.21,0,2.21-1.775,4.419-1.775s2.219,1.775,4.437,1.775c1.722,0,2.1-1.083,3.239-1.553a.887.887,0,0,1,1.225.816Z" transform="translate(-3.035 -1.112)" fill="#ffdc00"/>
        <path id="Shape-4" data-name="Shape" d="M44.625,2.242a7.162,7.162,0,0,0-1.438.978c-.012,2.015-.461,6.113-3.5,8.491a2.773,2.773,0,0,1-.373.257,4.792,4.792,0,0,1-2.529.7h2.662a4.792,4.792,0,0,0,2.529-.7,2.774,2.774,0,0,0,.373-.257c3.122-2.44,3.512-6.7,3.5-8.652a.887.887,0,0,0-1.225-.816Z" transform="translate(-4.141 -1.132)" fill="#fec108"/>
        <ellipse id="Oval" cx="5.768" cy="2.662" rx="5.768" ry="2.662" transform="translate(9.762 4.438)" fill="#ffdc00"/>
        <path id="Shape-5" data-name="Shape" d="M22.536,9v8.856a29.107,29.107,0,0,0-5.325,8.306V21.424c0-1.473-2.582-2.662-5.768-2.662-.151,0-.293,0-.444.009V9c0,1.473,2.582,2.662,5.768,2.662S22.536,10.473,22.536,9Z" transform="translate(-1.238 -1.9)" fill="#ff9801"/>
        <path id="Shape-6" data-name="Shape" d="M16.536,22.662c0,1.473-2.582,2.662-5.768,2.662S5,24.135,5,22.662c0-1.4,2.343-2.547,5.325-2.653.151-.009.293-.009.444-.009C13.954,20,16.536,21.189,16.536,22.662Z" transform="translate(-0.563 -3.138)" fill="#ffdc00"/>
        <path id="Shape-7" data-name="Shape" d="M16.536,23V37.4c-2.085.4-3.55,1.349-3.55,2.458v8.874c0-1.473-2.582-2.662-5.768-2.662a11.641,11.641,0,0,0-2.219.2V23c0,1.473,2.582,2.662,5.768,2.662S16.536,24.473,16.536,23Z" transform="translate(-0.563 -3.476)" fill="#ff9801"/>
        <path id="Shape-8" data-name="Shape" d="M12.536,51.662c0,1.473-2.582,2.662-5.768,2.662S1,53.135,1,51.662C1,50.553,2.464,49.6,4.55,49.2A11.641,11.641,0,0,1,6.768,49C9.954,49,12.536,50.189,12.536,51.662Z" transform="translate(-0.113 -6.403)" fill="#ffeb3a"/>
        <path id="Shape-9" data-name="Shape" d="M12.536,52v4.437c0,1.473-2.582,2.662-5.768,2.662S1,57.91,1,56.437V52c0,1.473,2.582,2.662,5.768,2.662S12.536,53.473,12.536,52Z" transform="translate(-0.113 -6.741)" fill="#ffdc00"/>
        <path id="Shape-10" data-name="Shape" d="M25.536,41.662c0,1.473-2.582,2.662-5.768,2.662S14,43.135,14,41.662c0-1.109,1.464-2.059,3.55-2.458a11.641,11.641,0,0,1,2.219-.2C22.954,39,25.536,40.189,25.536,41.662Z" transform="translate(-1.576 -5.277)" fill="#ffeb3a"/>
        <path id="Shape-11" data-name="Shape" d="M25.536,42V53.536c0,1.473-2.582,2.662-5.768,2.662S14,55.01,14,53.536V42c0,1.473,2.582,2.662,5.768,2.662S25.536,43.473,25.536,42Z" transform="translate(-1.576 -5.615)" fill="#ffdc00"/>
        <g id="Grupo_1203963" data-name="Grupo 1203963">
          <path id="Shape-12" data-name="Shape" d="M41.945,13.481c4.4.332,5.82,2.164,5.861,2.219a.887.887,0,0,0,1.47-.995c-.064-.1-1.3-1.856-4.881-2.662A4.071,4.071,0,0,0,45.88,8.987a4.557,4.557,0,0,0-3.393-4.134A16.187,16.187,0,0,0,42.6,2.921,1.775,1.775,0,0,0,40.137,1.29a5.07,5.07,0,0,0-1.235.792,2.332,2.332,0,0,1-3.316,0,4.082,4.082,0,0,0-5.539,0,2.333,2.333,0,0,1-3.317,0A5.078,5.078,0,0,0,25.5,1.291a1.775,1.775,0,0,0-2.464,1.631c0,2.208.437,6.146,3.2,8.791a24.482,24.482,0,0,0-4.048,3.08V8.1c0-2.023-2.862-3.55-6.656-3.55S8.874,6.076,8.874,8.1V17.04c-3.112.311-5.325,1.708-5.325,3.483V43.095C1.406,43.671,0,44.838,0,46.258V50.7c0,2.023,2.862,3.55,6.656,3.55,3.393,0,6.034-1.222,6.555-2.928a9.968,9.968,0,0,0,4.981,1.154c3.794,0,6.656-1.526,6.656-3.55V37.384c0-2.023-2.862-3.55-6.656-3.55a13.168,13.168,0,0,0-1.331.067V20.523c0-1.943-2.642-3.424-6.212-3.538V10.557a10.106,10.106,0,0,0,4.881,1.092,10.106,10.106,0,0,0,4.881-1.092v6.052c-.584.654-1.172,1.367-1.752,2.156a.887.887,0,0,0,1.431,1.048,26.9,26.9,0,0,1,1.83-2.219l.02-.023a23.329,23.329,0,0,1,5.89-4.72,5.632,5.632,0,0,0,1.369.455l-2.288,2.135a.888.888,0,0,0,1.212,1.3l3.55-3.311h.283V16.09a.887.887,0,1,0,1.775,0V13.424h.283l3.55,3.311a.888.888,0,0,0,1.212-1.3l-2.3-2.144a5.591,5.591,0,0,0,1.36-.457c2.345,1.269,10.055,6.283,12.943,18.539,1.256,5.335.8,9.416-1.344,12.127-2.747,3.465-7.515,3.643-8.442,3.643H28.4a.887.887,0,0,0,0,1.775H40.99c1.509,0,6.66-.311,9.833-4.316,2.5-3.158,3.067-7.746,1.681-13.636C50.317,21.677,45.455,16.293,41.945,13.481Zm-35.289,31c2.935,0,4.881,1.065,4.881,1.775S9.59,48.033,6.656,48.033s-4.881-1.065-4.881-1.775S3.721,44.483,6.656,44.483Zm0,7.987c-2.935,0-4.881-1.065-4.881-1.775v-1.98a10.106,10.106,0,0,0,4.881,1.092,10.106,10.106,0,0,0,4.881-1.092V50.7C11.536,51.405,9.59,52.47,6.656,52.47ZM18.192,50.7c-2.935,0-4.881-1.065-4.881-1.775V39.841a10.106,10.106,0,0,0,4.881,1.092,10.106,10.106,0,0,0,4.881-1.092v9.079C23.073,49.63,21.127,50.7,18.192,50.7Zm4.881-13.311c0,.71-1.946,1.775-4.881,1.775s-4.881-1.065-4.881-1.775,1.946-1.775,4.881-1.775S23.073,36.674,23.073,37.384Zm-11.536,0V43.8a10.106,10.106,0,0,0-4.881-1.092,13.168,13.168,0,0,0-1.331.067V22.98a10.106,10.106,0,0,0,4.881,1.092,10.106,10.106,0,0,0,4.881-1.092V34.22C12.942,34.8,11.536,35.964,11.536,37.384Zm3.55-16.861c0,.71-1.946,1.775-4.881,1.775s-4.881-1.065-4.881-1.775,1.946-1.775,4.881-1.775S15.086,19.813,15.086,20.523ZM15.53,9.874c-2.935,0-4.881-1.065-4.881-1.775S12.6,6.324,15.53,6.324,20.411,7.389,20.411,8.1,18.465,9.874,15.53,9.874ZM44.1,8.987c0,1.454-1.575,2.648-3.55,2.662a4.583,4.583,0,0,1-.981-.113,10.522,10.522,0,0,0,2.592-4.907A2.719,2.719,0,0,1,44.1,8.987ZM25.618,3.467a4.079,4.079,0,0,0,5.536,0,2.336,2.336,0,0,1,3.319,0,4.084,4.084,0,0,0,5.539,0,3.717,3.717,0,0,1,.814-.547c0,1.648-.306,5.722-3.165,7.956a3.806,3.806,0,0,1-2.227.762,19.194,19.194,0,0,0,1.811-4.19.888.888,0,0,0-1.711-.476A16.28,16.28,0,0,1,33.3,11.649h-.912a16.433,16.433,0,0,1-2.239-4.676.888.888,0,0,0-1.71.477,19.207,19.207,0,0,0,1.813,4.193,3.816,3.816,0,0,1-2.274-.766c-2.859-2.233-3.165-6.307-3.165-7.95a3.471,3.471,0,0,1,.81.54Z" transform="translate(0 -0.999)"/>
          <path id="Shape-13" data-name="Shape" d="M53.128,46.9a8.519,8.519,0,0,0,1.629-4.975A.887.887,0,0,0,53.913,41a.9.9,0,0,0-.929.844A6.8,6.8,0,0,1,51.736,45.8c-1.731,2.187-5.017,2.3-5.658,2.3a.887.887,0,0,0,0,1.775C46.862,49.874,50.888,49.731,53.128,46.9Z" transform="translate(-5.088 -5.502)"/>
          <path id="Shape-14" data-name="Shape" d="M33.775,33.649a.887.887,0,0,0-1.775,0,3.55,3.55,0,0,0,3.55,3.55v.887a.887.887,0,0,0,1.775,0V37.2a3.55,3.55,0,1,0,0-7.1V26.55A1.775,1.775,0,0,1,39.1,28.325a.887.887,0,1,0,1.775,0,3.55,3.55,0,0,0-3.55-3.55v-.887a.887.887,0,1,0-1.775,0v.887a3.55,3.55,0,1,0,0,7.1v3.55A1.775,1.775,0,0,1,33.775,33.649Zm0-5.325A1.775,1.775,0,0,1,35.55,26.55V30.1A1.775,1.775,0,0,1,33.775,28.325Zm3.55,3.55a1.775,1.775,0,0,1,0,3.55Z" transform="translate(-3.603 -3.476)"/>
        </g>
      </g>
    </g>
  </g>
</svg>
