<svg xmlns="http://www.w3.org/2000/svg" xmlns:xlink="http://www.w3.org/1999/xlink" width="124.943" height="111.726" viewBox="0 0 124.943 111.726">
  <defs>
    <filter id="Elipse_12607" x="54.072" y="40.854" width="70.871" height="70.871" filterUnits="userSpaceOnUse">
      <feOffset dy="3" input="SourceAlpha"/>
      <feGaussianBlur stdDeviation="3" result="blur"/>
      <feFlood flood-opacity="0.161"/>
      <feComposite operator="in" in2="blur"/>
      <feComposite in="SourceGraphic"/>
    </filter>
    <filter id="Elipse_12608" x="0" y="0" width="56.451" height="56.451" filterUnits="userSpaceOnUse">
      <feOffset dy="3" input="SourceAlpha"/>
      <feGaussianBlur stdDeviation="3" result="blur-2"/>
      <feFlood flood-opacity="0.161"/>
      <feComposite operator="in" in2="blur-2"/>
      <feComposite in="SourceGraphic"/>
    </filter>
  </defs>
  <g id="Grupo_1203909" data-name="Grupo 1203909" transform="translate(914 9359.633)">
    <g id="Grupo_1203821" data-name="Grupo 1203821" transform="translate(-1705 -11902.867)">
      <g id="Grupo_1203357" data-name="Grupo 1203357" transform="translate(800 2549.234)">
        <g transform="matrix(1, 0, 0, 1, -9, -6)" filter="url(#Elipse_12607)">
          <circle id="Elipse_12607-2" data-name="Elipse 12607" cx="26.435" cy="26.435" r="26.435" transform="translate(63.07 46.85)" fill="#ff9800"/>
        </g>
        <g transform="matrix(1, 0, 0, 1, -9, -6)" filter="url(#Elipse_12608)">
          <circle id="Elipse_12608-2" data-name="Elipse 12608" cx="19.226" cy="19.226" r="19.226" transform="translate(9 6)" fill="#ff9800"/>
        </g>
      </g>
    </g>
    <g id="FilledOutline" transform="translate(-906.828 -9343.896)">
      <path id="Trazado_1262402" data-name="Trazado 1262402" d="M119.852,245.682v-4.927l-4.412-1.569c-.593-1.431-.893-2.154-1.485-3.586l2.01-4.229-3.484-3.484-4.229,2.01-3.586-1.485L103.1,224H98.171L96.6,228.412,93.015,229.9l-4.229-2.01L85.3,231.371l2.01,4.229-1.485,3.586-4.412,1.569v4.927l4.412,1.569c.594,1.431.893,2.154,1.485,3.586l-2.01,4.23,3.484,3.484,4.229-2.01,3.586,1.485,1.57,4.412H103.1l1.569-4.412,3.586-1.485,4.229,2.01,3.484-3.484-2.01-4.229,1.485-3.586Zm-19.218,6.58a9.044,9.044,0,1,1,9.044-9.044A9.044,9.044,0,0,1,100.634,252.262Z" transform="translate(-56.172 -192.347)" fill="#ef5249"/>
      <path id="Trazado_1262403" data-name="Trazado 1262403" d="M254.436,53.682V48.755l-4.412-1.569L248.539,43.6l2.01-4.23-3.484-3.484-4.229,2.01-3.586-1.485L237.682,32h-4.927l-1.569,4.412L227.6,37.9l-4.229-2.01-3.484,3.484L221.9,43.6l-1.485,3.586-1.977,1.451c0,2.46-2.434,2.584-2.434,5.045l4.412,1.569,1.485,3.586-2.01,4.229,3.484,3.484,4.229-2.01,3.586,1.485,1.569,4.412h4.927l1.569-4.412,3.586-1.485,4.229,2.01,3.484-3.484-2.01-4.229,1.485-3.586Zm-19.218,6.58a9.044,9.044,0,1,1,9.044-9.044A9.044,9.044,0,0,1,235.218,60.262Z" transform="translate(-171.738 -27.478)" fill="#88bf40"/>
      <path id="Trazado_1262404" data-name="Trazado 1262404" d="M62.436,29.682V24.755l-4.412-1.569L56.539,19.6l2.01-4.229-3.484-3.484L50.836,13.9l-3.586-1.485L45.682,8H40.755l-1.569,4.412L35.6,13.9l-4.229-2.01-3.484,3.484L29.9,19.6l-1.485,3.586L24,24.755v4.927l4.412,1.569L29.9,34.836l-2.01,4.23,3.484,3.484,4.229-2.01,3.586,1.485,1.569,4.412h4.927l1.569-4.412,3.586-1.485,4.229,2.01,3.484-3.484-2.01-4.229,1.485-3.586Zm-19.218,6.58a9.044,9.044,0,1,1,9.044-9.044A9.044,9.044,0,0,1,43.218,36.262Z" transform="translate(-6.87 -6.869)" fill="#ffc119"/>
      <path id="Trazado_1262405" data-name="Trazado 1262405" d="M334.783,284.262v-6.783l-6.08-6.08a2.4,2.4,0,1,1,3.391-3.392l2.689,2.689V258.261a2.261,2.261,0,1,1,4.522,0v5.652h4.91a6.395,6.395,0,0,1,4.522,10.917l-2.649,2.649v6.783Z" transform="translate(-267.911 -219.825)" fill="#f5be9a"/>
      <path id="Trazado_1262406" data-name="Trazado 1262406" d="M360,432h15.827v10.174H360Z" transform="translate(-295.389 -370.954)" fill="#0093ba"/>
      <path id="Trazado_1262407" data-name="Trazado 1262407" d="M24.987,36.7l3.775-1.795,2.657,1.1,1.4,3.939a1.13,1.13,0,0,0,1.064.752h4.927a1.13,1.13,0,0,0,1.065-.752l1.4-3.939,2.657-1.1L47.711,36.7A1.131,1.131,0,0,0,49,36.479L52.479,33a1.13,1.13,0,0,0,.222-1.285l-1.795-3.775,1.1-2.657,3.939-1.4a1.13,1.13,0,0,0,.752-1.065V17.885a1.13,1.13,0,0,0-.752-1.065l-3.939-1.4-1.1-2.657L52.7,8.987A1.13,1.13,0,0,0,52.479,7.7L49,4.218A1.13,1.13,0,0,0,47.711,4L43.936,5.791l-2.657-1.1L39.877.752A1.13,1.13,0,0,0,38.812,0H33.885A1.13,1.13,0,0,0,32.82.752l-1.4,3.939-2.657,1.1L24.987,4a1.13,1.13,0,0,0-1.286.222L20.218,7.7A1.13,1.13,0,0,0,20,8.987l1.795,3.775-1.1,2.657-3.939,1.4A1.13,1.13,0,0,0,16,17.885v4.927a1.13,1.13,0,0,0,.752,1.065l3.939,1.4,1.1,2.657L20,31.711A1.13,1.13,0,0,0,20.218,33L23.7,36.479a1.131,1.131,0,0,0,1.286.222Zm-.915-9.167-1.485-3.586a1.13,1.13,0,0,0-.666-.632l-3.66-1.3V18.683l3.66-1.3a1.13,1.13,0,0,0,.666-.633l1.486-3.586a1.13,1.13,0,0,0-.023-.919L22.381,8.736l2.355-2.355,3.509,1.667a1.129,1.129,0,0,0,.919.023l3.586-1.485a1.13,1.13,0,0,0,.632-.665l1.3-3.66h3.331l1.3,3.66a1.13,1.13,0,0,0,.632.666l3.586,1.486a1.129,1.129,0,0,0,.919-.023l3.509-1.667,2.355,2.355-1.667,3.509a1.13,1.13,0,0,0-.023.919l1.485,3.586a1.13,1.13,0,0,0,.665.631l3.66,1.3v3.331l-3.66,1.3a1.13,1.13,0,0,0-.666.633l-1.486,3.586a1.13,1.13,0,0,0,.023.919l1.667,3.509L47.96,34.317l-3.509-1.667a1.129,1.129,0,0,0-.919-.023l-3.586,1.485a1.13,1.13,0,0,0-.631.665l-1.3,3.66H34.683l-1.3-3.66a1.13,1.13,0,0,0-.633-.666l-3.586-1.486a1.129,1.129,0,0,0-.919.023l-3.509,1.667-2.355-2.355,1.667-3.509a1.13,1.13,0,0,0,.024-.918Z" transform="translate(0 0)"/>
      <path id="Trazado_1262408" data-name="Trazado 1262408" d="M98.174,92.349A10.174,10.174,0,1,0,88,82.174,10.174,10.174,0,0,0,98.174,92.349Zm0-18.088a7.913,7.913,0,1,1-7.913,7.913A7.913,7.913,0,0,1,98.174,74.261Z" transform="translate(-61.826 -61.826)"/>
      <path id="Trazado_1262409" data-name="Trazado 1262409" d="M107.529,288.655l-1.485,3.586a1.131,1.131,0,0,0,.023.919l1.667,3.509-2.355,2.355-3.509-1.667a1.13,1.13,0,0,0-.919-.023l-3.585,1.484a1.13,1.13,0,0,0-.633.666l-1.3,3.66H92.1l-1.3-3.66a1.129,1.129,0,0,0-.633-.666l-3.586-1.485a1.129,1.129,0,0,0-.919.023l-3.509,1.667L79.8,296.667l1.667-3.509a1.13,1.13,0,0,0,.023-.919l-1.485-3.586a1.131,1.131,0,0,0-.665-.632l-3.66-1.3V283.39l3.66-1.3a1.13,1.13,0,0,0,.666-.632l1.485-3.586a1.13,1.13,0,0,0-.023-.918l-2.01-4.229-2.042.972,1.795,3.775-1.1,2.657-3.939,1.4a1.13,1.13,0,0,0-.752,1.065v4.927a1.13,1.13,0,0,0,.752,1.065l3.938,1.4,1.1,2.657-1.795,3.775a1.13,1.13,0,0,0,.222,1.285l3.483,3.483a1.13,1.13,0,0,0,1.285.222l3.775-1.795,2.657,1.1,1.4,3.939a1.13,1.13,0,0,0,1.066.752h4.927a1.13,1.13,0,0,0,1.065-.752l1.4-3.938,2.657-1.1,3.775,1.795a1.13,1.13,0,0,0,1.285-.222L109.9,297.7a1.13,1.13,0,0,0,.222-1.285l-1.795-3.775,1.293-3.122Z" transform="translate(-49.306 -234.184)"/>
      <path id="Trazado_1262410" data-name="Trazado 1262410" d="M276.89,247.321l-3.484-3.483a1.131,1.131,0,0,0-1.285-.222l-4.229,2.01.971,2.042L272.372,246l2.355,2.355-1.667,3.509a1.13,1.13,0,0,0-.023.919l1.283,3.1,2.089-.865-1.09-2.632,1.795-3.775a1.13,1.13,0,0,0-.222-1.286Z" transform="translate(-216.298 -209.096)"/>
      <path id="Trazado_1262411" data-name="Trazado 1262411" d="M155.59,308.349a10.174,10.174,0,1,0-10.174-10.174A10.174,10.174,0,0,0,155.59,308.349Zm0-18.088a7.913,7.913,0,1,1-7.913,7.913A7.913,7.913,0,0,1,155.59,290.261Z" transform="translate(-111.128 -247.303)"/>
      <path id="Trazado_1262412" data-name="Trazado 1262412" d="M322.675,40.82l-3.939-1.4-1.1-2.657,1.795-3.775a1.13,1.13,0,0,0-.222-1.285l-3.483-3.483A1.131,1.131,0,0,0,314.44,28l-3.775,1.795-2.657-1.1-1.4-3.939A1.13,1.13,0,0,0,305.541,24h-4.927a1.13,1.13,0,0,0-1.065.752l-1.4,3.939-3.122,1.293.865,2.089,3.586-1.485a1.131,1.131,0,0,0,.632-.666l1.3-3.66h3.331l1.3,3.66a1.13,1.13,0,0,0,.633.666l3.586,1.486a1.13,1.13,0,0,0,.918-.023l3.509-1.667,2.355,2.355-1.667,3.509a1.131,1.131,0,0,0-.023.919l1.485,3.586a1.13,1.13,0,0,0,.665.631l3.66,1.3v3.331l-3.66,1.3a1.131,1.131,0,0,0-.666.633l-1.486,3.585a1.13,1.13,0,0,0,.023.919l1.667,3.509-2.92,2.92,1.6,1.6L319.208,57a1.13,1.13,0,0,0,.222-1.285l-1.795-3.775,1.1-2.657,3.939-1.4a1.13,1.13,0,0,0,.752-1.066V41.885a1.13,1.13,0,0,0-.752-1.065Z" transform="translate(-239.598 -20.609)"/>
      <path id="Trazado_1262413" data-name="Trazado 1262413" d="M294.67,114.085a7.884,7.884,0,0,1-7.339-4.946l-2.1.848a10.174,10.174,0,1,0,4.346-12.628l1.132,1.957a7.913,7.913,0,1,1,3.956,14.769Z" transform="translate(-231.19 -82.431)"/>
      <path id="Trazado_1262414" data-name="Trazado 1262414" d="M337.344,255.913h-3.779v-4.522a3.391,3.391,0,0,0-6.783,0V261.1l-.759-.759a3.529,3.529,0,0,0-4.99,4.99l5.749,5.749v1.793h-1.13a1.13,1.13,0,0,0-1.13,1.13v10.174h2.261v-9.044h13.566v9.044h2.261V274a1.13,1.13,0,0,0-1.13-1.13h-1.13v-1.793l2.317-2.318a7.525,7.525,0,0,0-5.321-12.847Zm3.723,11.248-2.649,2.649a1.13,1.13,0,0,0-.331.8v2.261h-9.044V270.61a1.13,1.13,0,0,0-.331-.8l-6.08-6.081a1.268,1.268,0,1,1,1.793-1.793l2.689,2.689a1.13,1.13,0,0,0,1.93-.8V251.391a1.13,1.13,0,1,1,2.261,0v5.652a1.13,1.13,0,0,0,1.13,1.13h4.91a5.264,5.264,0,0,1,3.723,8.987Z" transform="translate(-261.041 -212.955)"/>
      <path id="Trazado_1262415" data-name="Trazado 1262415" d="M432,456h2.261v2.261H432Z" transform="translate(-357.215 -391.563)"/>
    </g>
  </g>
</svg>
