<svg xmlns="http://www.w3.org/2000/svg" xmlns:xlink="http://www.w3.org/1999/xlink" width="124.943" height="111.726" viewBox="0 0 124.943 111.726">
  <defs>
    <filter id="Elipse_12607" x="54.072" y="40.854" width="70.871" height="70.871" filterUnits="userSpaceOnUse">
      <feOffset dy="3" input="SourceAlpha"/>
      <feGaussianBlur stdDeviation="3" result="blur"/>
      <feFlood flood-opacity="0.161"/>
      <feComposite operator="in" in2="blur"/>
      <feComposite in="SourceGraphic"/>
    </filter>
    <filter id="Elipse_12608" x="0" y="0" width="56.451" height="56.451" filterUnits="userSpaceOnUse">
      <feOffset dy="3" input="SourceAlpha"/>
      <feGaussianBlur stdDeviation="3" result="blur-2"/>
      <feFlood flood-opacity="0.161"/>
      <feComposite operator="in" in2="blur-2"/>
      <feComposite in="SourceGraphic"/>
    </filter>
  </defs>
  <g id="Grupo_1203908" data-name="Grupo 1203908" transform="translate(914.272 9359.633)">
    <g id="Grupo_1203820" data-name="Grupo 1203820" transform="translate(-1705.272 -11902.867)">
      <g id="Grupo_1203357" data-name="Grupo 1203357" transform="translate(800 2549.234)">
        <g transform="matrix(1, 0, 0, 1, -9, -6)" filter="url(#Elipse_12607)">
          <circle id="Elipse_12607-2" data-name="Elipse 12607" cx="26.435" cy="26.435" r="26.435" transform="translate(63.07 46.85)" fill="#ff9800"/>
        </g>
        <g transform="matrix(1, 0, 0, 1, -9, -6)" filter="url(#Elipse_12608)">
          <circle id="Elipse_12608-2" data-name="Elipse 12608" cx="19.226" cy="19.226" r="19.226" transform="translate(9 6)" fill="#ff9800"/>
        </g>
      </g>
    </g>
    <g id="produccion" transform="translate(-890.785 -9342.785)">
      <g id="Grupo_1203906" data-name="Grupo 1203906" transform="translate(1.142 1.142)">
        <g id="Grupo_1203881" data-name="Grupo 1203881" transform="translate(0)">
          <path id="Trazado_1262366" data-name="Trazado 1262366" d="M28.4,14.13v1.142a2.379,2.379,0,0,1-1.633,2.249,2.336,2.336,0,0,0-1.439,1.347l-.171.411a2.236,2.236,0,0,0-.183.9,2.306,2.306,0,0,0,.251,1.062,2.358,2.358,0,0,1-.434,2.74l-.811.811a2.362,2.362,0,0,1-1.667.7,2.4,2.4,0,0,1-1.073-.263,2.319,2.319,0,0,0-1.964-.069l-.411.171a2.336,2.336,0,0,0-1.347,1.439A2.379,2.379,0,0,1,15.271,28.4H14.13a2.379,2.379,0,0,1-2.249-1.633,2.336,2.336,0,0,0-1.347-1.439l-.411-.171a2.236,2.236,0,0,0-.9-.183,2.306,2.306,0,0,0-1.062.251,2.358,2.358,0,0,1-2.74-.434l-.811-.811a2.362,2.362,0,0,1-.7-1.667,2.4,2.4,0,0,1,.263-1.073,2.319,2.319,0,0,0,.069-1.964l-.171-.411A2.336,2.336,0,0,0,2.633,17.52,2.379,2.379,0,0,1,1,15.271V14.13A2.379,2.379,0,0,1,2.633,11.88a2.336,2.336,0,0,0,1.439-1.347l.171-.411a2.236,2.236,0,0,0,.183-.9,2.306,2.306,0,0,0-.251-1.062,2.358,2.358,0,0,1,.434-2.74l.811-.811a2.362,2.362,0,0,1,1.667-.7,2.4,2.4,0,0,1,1.073.263,2.319,2.319,0,0,0,1.964.069l.411-.171A2.336,2.336,0,0,0,11.88,2.633,2.379,2.379,0,0,1,14.13,1h1.142A2.379,2.379,0,0,1,17.52,2.633a2.336,2.336,0,0,0,1.347,1.439l.411.171a2.236,2.236,0,0,0,.9.183,2.306,2.306,0,0,0,1.062-.251,2.358,2.358,0,0,1,2.74.434l.811.811a2.362,2.362,0,0,1,.7,1.667,2.4,2.4,0,0,1-.263,1.073,2.319,2.319,0,0,0-.069,1.964l.171.411a2.336,2.336,0,0,0,1.439,1.347A2.379,2.379,0,0,1,28.4,14.13Zm-6.85.571a6.85,6.85,0,1,0-6.85,6.85A6.856,6.856,0,0,0,21.551,14.7Z" transform="translate(-1 -1)" fill="#a0d468"/>
        </g>
        <g id="Grupo_1203882" data-name="Grupo 1203882" transform="translate(6.85 6.85)">
          <path id="Trazado_1262367" data-name="Trazado 1262367" d="M13.85,7A6.85,6.85,0,1,1,7,13.85,6.856,6.856,0,0,1,13.85,7Zm2.283,6.85a2.283,2.283,0,1,0-2.283,2.283A2.29,2.29,0,0,0,16.134,13.85Z" transform="translate(-7 -7)" fill="#b4dd7f"/>
        </g>
        <g id="Grupo_1203883" data-name="Grupo 1203883" transform="translate(55.943 4.624)">
          <path id="Trazado_1262368" data-name="Trazado 1262368" d="M50,5.05A11.415,11.415,0,0,1,60.275,16.41H50Z" transform="translate(-50 -5.05)" fill="#ffeaa7"/>
        </g>
        <g id="Grupo_1203884" data-name="Grupo 1203884" transform="translate(41.101 4.624)">
          <path id="Trazado_1262369" data-name="Trazado 1262369" d="M42.708,16.41H37A11.415,11.415,0,0,1,47.275,5.05V16.41Z" transform="translate(-37 -5.05)" fill="#ffeaa7"/>
        </g>
        <g id="Grupo_1203885" data-name="Grupo 1203885" transform="translate(51.376 2.283)">
          <path id="Trazado_1262370" data-name="Trazado 1262370" d="M50.567,5.34V16.7H46V4.142A1.145,1.145,0,0,1,47.142,3h2.283a1.145,1.145,0,0,1,1.142,1.142Z" transform="translate(-46 -3)" fill="#fcd770"/>
        </g>
        <g id="Grupo_1203886" data-name="Grupo 1203886" transform="translate(38.818 15.984)">
          <path id="Trazado_1262371" data-name="Trazado 1262371" d="M37.283,15H63.542a1.145,1.145,0,0,1,1.142,1.142v2.283a1.145,1.145,0,0,1-1.142,1.142h-27.4A1.145,1.145,0,0,1,35,18.425V16.142A1.145,1.145,0,0,1,36.142,15Z" transform="translate(-35 -15)" fill="#fcd770"/>
        </g>
        <g id="Grupo_1203887" data-name="Grupo 1203887" transform="translate(63.935 19.409)">
          <path id="Trazado_1262372" data-name="Trazado 1262372" d="M61.567,18v5.708a3.421,3.421,0,0,0-3.425-3.425H57V19.142h3.425A1.145,1.145,0,0,0,61.567,18Z" transform="translate(-57 -18)" fill="#b27946"/>
        </g>
        <g id="Grupo_1203888" data-name="Grupo 1203888" transform="translate(38.818 19.409)">
          <path id="Trazado_1262373" data-name="Trazado 1262373" d="M35,18a1.145,1.145,0,0,0,1.142,1.142h3.425v1.142H38.425A3.421,3.421,0,0,0,35,23.708Z" transform="translate(-35 -18)" fill="#b27946"/>
        </g>
        <g id="Grupo_1203889" data-name="Grupo 1203889" transform="translate(6.85 38.818)">
          <path id="Trazado_1262374" data-name="Trazado 1262374" d="M7,35H20.7V48.7H7Z" transform="translate(-7 -35)" fill="#d3a06c"/>
        </g>
        <g id="Grupo_1203890" data-name="Grupo 1203890" transform="translate(25.117 38.818)">
          <path id="Trazado_1262375" data-name="Trazado 1262375" d="M23,35H36.7V48.7H23Z" transform="translate(-23 -35)" fill="#d3a06c"/>
        </g>
        <g id="Grupo_1203891" data-name="Grupo 1203891" transform="translate(29.684 38.818)">
          <path id="Trazado_1262376" data-name="Trazado 1262376" d="M27,35h4.567v4.567H27Z" transform="translate(-27 -35)" fill="#b27946"/>
        </g>
        <g id="Grupo_1203892" data-name="Grupo 1203892" transform="translate(11.417 38.818)">
          <path id="Trazado_1262377" data-name="Trazado 1262377" d="M11,35h4.567v4.567H11Z" transform="translate(-11 -35)" fill="#b27946"/>
        </g>
        <g id="Grupo_1203893" data-name="Grupo 1203893" transform="translate(0 52.518)">
          <path id="Trazado_1262378" data-name="Trazado 1262378" d="M61.51,47H8.992a6.125,6.125,0,0,0-1.13.091A7.966,7.966,0,0,0,1,54.992a7.986,7.986,0,0,0,7.992,7.992H61.51A7.992,7.992,0,1,0,61.51,47Z" transform="translate(-1 -47)" fill="#ccd1d9"/>
        </g>
        <g id="Grupo_1203894" data-name="Grupo 1203894" transform="translate(47.951 53.66)">
          <path id="Trazado_1262379" data-name="Trazado 1262379" d="M49.85,48A6.85,6.85,0,1,1,43,54.85,6.856,6.856,0,0,1,49.85,48Z" transform="translate(-43 -48)" fill="#969faa"/>
        </g>
        <g id="Grupo_1203895" data-name="Grupo 1203895" transform="translate(27.401 53.66)">
          <path id="Trazado_1262380" data-name="Trazado 1262380" d="M31.85,48A6.85,6.85,0,1,1,25,54.85,6.856,6.856,0,0,1,31.85,48Z" transform="translate(-25 -48)" fill="#969faa"/>
        </g>
        <g id="Grupo_1203896" data-name="Grupo 1203896" transform="translate(6.85 53.66)">
          <path id="Trazado_1262381" data-name="Trazado 1262381" d="M13.85,48A6.85,6.85,0,1,1,7,54.85,6.856,6.856,0,0,1,13.85,48Z" transform="translate(-7 -48)" fill="#969faa"/>
        </g>
        <g id="Grupo_1203897" data-name="Grupo 1203897" transform="translate(52.518 58.226)">
          <circle id="Elipse_12659" data-name="Elipse 12659" cx="2" cy="2" r="2" transform="translate(0.125 0.417)" fill="#ccd1d9"/>
        </g>
        <g id="Grupo_1203898" data-name="Grupo 1203898" transform="translate(31.967 58.226)">
          <ellipse id="Elipse_12660" data-name="Elipse 12660" cx="2.5" cy="2" rx="2.5" ry="2" transform="translate(-0.324 0.417)" fill="#ccd1d9"/>
        </g>
        <g id="Grupo_1203899" data-name="Grupo 1203899" transform="translate(11.417 58.226)">
          <circle id="Elipse_12661" data-name="Elipse 12661" cx="2" cy="2" r="2" transform="translate(0.226 0.417)" fill="#ccd1d9"/>
        </g>
        <g id="Grupo_1203900" data-name="Grupo 1203900" transform="translate(43.384 36.534)">
          <path id="Trazado_1262382" data-name="Trazado 1262382" d="M48.134,42.134V36.425A3.432,3.432,0,0,1,51.49,33h.069a3.421,3.421,0,0,1,3.425,3.425v7.992a4.566,4.566,0,0,1-4.567,4.567H41.283A2.283,2.283,0,0,1,39,46.7V44.417a2.269,2.269,0,0,1,.662-1.61h.011a2.213,2.213,0,0,1,1.61-.674Z" transform="translate(-39 -33)" fill="#ff826e"/>
        </g>
        <g id="Grupo_1203901" data-name="Grupo 1203901" transform="translate(45.668 36.534)">
          <path id="Trazado_1262383" data-name="Trazado 1262383" d="M51.207,33a3.432,3.432,0,0,0-3.357,3.425v5.708H41a8.781,8.781,0,0,1,6.645-8.517l1.439-.354A8.938,8.938,0,0,1,51.207,33Z" transform="translate(-41 -33)" fill="#ff826e"/>
        </g>
        <g id="Grupo_1203902" data-name="Grupo 1203902" transform="translate(35.393 44.526)">
          <path id="Trazado_1262384" data-name="Trazado 1262384" d="M42.275,47.992h-6.85A3.43,3.43,0,0,1,32,44.567a2.29,2.29,0,0,1,2.283-2.283h1.142l.525-1.062a2.218,2.218,0,0,1,3.551-.571l1.153,1.165a2.269,2.269,0,0,0-.662,1.61v2.283a2.283,2.283,0,0,0,2.283,2.283Z" transform="translate(-32 -40)" fill="#f0d0b4"/>
        </g>
        <g id="Grupo_1203903" data-name="Grupo 1203903" transform="translate(63.866 21.692)">
          <path id="Trazado_1262385" data-name="Trazado 1262385" d="M60.571,25.845a3.417,3.417,0,0,1-2.42,1H56.94a9.434,9.434,0,0,0,.068-1.142V20H58.15a3.423,3.423,0,0,1,2.42,5.845Z" transform="translate(-56.94 -20)" fill="#f0d0b4"/>
        </g>
        <g id="Grupo_1203904" data-name="Grupo 1203904" transform="translate(43.384 20.551)">
          <path id="Trazado_1262386" data-name="Trazado 1262386" d="M39,19H59.551v6.85a9.434,9.434,0,0,1-.068,1.142,9.132,9.132,0,0,1-9.065,7.992H48.134a9.132,9.132,0,0,1-9.065-7.992A9.432,9.432,0,0,1,39,25.85V19Z" transform="translate(-39 -19)" fill="#f0d0b4"/>
        </g>
        <g id="Grupo_1203905" data-name="Grupo 1203905" transform="translate(38.818 21.692)">
          <path id="Trazado_1262387" data-name="Trazado 1262387" d="M38.425,26.85a3.425,3.425,0,1,1,0-6.85h1.142v5.708a9.432,9.432,0,0,0,.069,1.142h-1.21Z" transform="translate(-35 -20)" fill="#f0d0b4"/>
        </g>
      </g>
      <g id="Grupo_1203907" data-name="Grupo 1203907" transform="translate(0 0)">
        <path id="Trazado_1262388" data-name="Trazado 1262388" d="M50.835,26.794a2.553,2.553,0,0,1-4.567,0l-.12-.241-2.042,1.022.12.24a4.836,4.836,0,0,0,8.652,0l.12-.241-2.042-1.022Z" transform="translate(6.25 3.762)"/>
        <path id="Trazado_1262389" data-name="Trazado 1262389" d="M52.425,21A3.429,3.429,0,0,0,49,24.425h2.283a1.142,1.142,0,1,1,2.283,0H55.85A3.429,3.429,0,0,0,52.425,21Z" transform="translate(6.943 2.976)"/>
        <path id="Trazado_1262390" data-name="Trazado 1262390" d="M45.567,24.425H47.85a3.425,3.425,0,1,0-6.85,0h2.283a1.142,1.142,0,1,1,2.283,0Z" transform="translate(5.81 2.976)"/>
        <path id="Trazado_1262391" data-name="Trazado 1262391" d="M68.5,15.7h-.054A12.493,12.493,0,0,0,58.226,4.5V4.283A2.286,2.286,0,0,0,55.943,2H53.66a2.286,2.286,0,0,0-2.283,2.283V4.5A12.493,12.493,0,0,0,41.155,15.7H41.1a2.286,2.286,0,0,0-2.283,2.283v7.992a4.571,4.571,0,0,0,4.567,4.567h.265a10.305,10.305,0,0,0,6.838,7.485,9.889,9.889,0,0,0-4.772,7.552,3.521,3.521,0,0,0-.373.147l-.5-.5a3.362,3.362,0,0,0-3.738-.693v-6H25.117v13.7H22.834v-13.7H6.85v14A9.128,9.128,0,0,0,9.134,70.5H61.652a9.134,9.134,0,0,0,0-18.267H60.479a5.653,5.653,0,0,0,1.171-3.426V40.815a4.545,4.545,0,0,0-1.371-3.254,10.3,10.3,0,0,0,5.674-7.019h.265a4.571,4.571,0,0,0,4.567-4.567V17.984A2.286,2.286,0,0,0,68.5,15.7Zm-2.352,0H62.793V11.134H60.51V15.7H58.226V6.829A10.214,10.214,0,0,1,66.15,15.7ZM55.943,4.283V15.7H53.66V4.283ZM51.376,6.829V15.7H49.093V11.134H46.81V15.7H43.453A10.214,10.214,0,0,1,51.376,6.829ZM41.1,25.976a2.286,2.286,0,0,1,2.283-2.283v4.567A2.286,2.286,0,0,1,41.1,25.976Zm14.842,41.1a5.708,5.708,0,1,1,5.708-5.708A5.715,5.715,0,0,1,55.943,67.077ZM47.951,54.518h3.9a7.97,7.97,0,0,0,0,13.7H39.488a7.97,7.97,0,0,0,0-13.7h8.463ZM14.842,55.66a5.708,5.708,0,1,1-5.708,5.708A5.715,5.715,0,0,1,14.842,55.66Zm7.992,5.708a7.989,7.989,0,0,0-3.9-6.85H31.3a7.969,7.969,0,0,0,0,13.7H18.937A7.989,7.989,0,0,0,22.834,61.368Zm18.267,0a5.708,5.708,0,1,1-5.708-5.708A5.715,5.715,0,0,1,41.1,61.368Zm4.566-10.275V48.81a1.142,1.142,0,0,1,1.142-1.142h6.241l1.943,2.917,1.9-1.266L54.8,46.18V40.817a2.287,2.287,0,0,1,2.261-2.282h.045a2.286,2.286,0,0,1,2.263,2.281v7.993a3.429,3.429,0,0,1-3.425,3.425H46.81A1.142,1.142,0,0,1,45.667,51.093Zm7.08-11.634a4.5,4.5,0,0,0-.229,1.357v4.568H48.046A7.6,7.6,0,0,1,52.746,39.459Zm-9.522,7.38.5.5a3.39,3.39,0,0,0-.344,1.468v2.283a3.387,3.387,0,0,0,.21,1.142H39.959a2.286,2.286,0,0,1-2.283-2.283,1.142,1.142,0,0,1,1.142-1.142h1.847l.846-1.691A1.108,1.108,0,0,1,43.225,46.839ZM31.967,40.818h2.283V43.1H31.967Zm-4.567,0h2.283v4.567h6.85V40.818h2.283v5.708a3.429,3.429,0,0,0-3.425,3.425,4.52,4.52,0,0,0,.635,2.283H27.4Zm-13.7,0h2.283V43.1H13.7Zm-4.567,0h2.283v4.567h6.85V40.818h2.283V52.235H9.134ZM2.283,61.368a6.857,6.857,0,0,1,6.85-6.85h1.613a7.97,7.97,0,0,0,0,13.7H9.134A6.857,6.857,0,0,1,2.283,61.368Zm66.218,0a6.857,6.857,0,0,1-6.85,6.85H60.038a7.97,7.97,0,0,0,0-13.7h1.613A6.857,6.857,0,0,1,68.5,61.368ZM55.943,36.251H53.66a8,8,0,0,1-7.992-7.992V22.551H63.935v5.708A8,8,0,0,1,55.943,36.251Zm10.275-7.992V23.692a2.283,2.283,0,0,1,0,4.567ZM68.5,20.267H41.1V17.984H68.5v2.283Z" transform="translate(0 0.283)"/>
        <path id="Trazado_1262392" data-name="Trazado 1262392" d="M13.425,57.85A3.425,3.425,0,1,0,10,54.425,3.429,3.429,0,0,0,13.425,57.85Zm0-4.567a1.142,1.142,0,1,1-1.142,1.142A1.142,1.142,0,0,1,13.425,53.283Z" transform="translate(1.417 7.227)"/>
        <path id="Trazado_1262393" data-name="Trazado 1262393" d="M31.425,57.85A3.425,3.425,0,1,0,28,54.425,3.429,3.429,0,0,0,31.425,57.85Zm0-4.567a1.142,1.142,0,1,1-1.142,1.142A1.142,1.142,0,0,1,31.425,53.283Z" transform="translate(3.967 7.227)"/>
        <path id="Trazado_1262394" data-name="Trazado 1262394" d="M49.425,51a3.425,3.425,0,1,0,3.425,3.425A3.429,3.429,0,0,0,49.425,51Zm0,4.567a1.142,1.142,0,1,1,1.142-1.142A1.142,1.142,0,0,1,49.425,55.567Z" transform="translate(6.518 7.227)"/>
        <path id="Trazado_1262395" data-name="Trazado 1262395" d="M13.992,21.984A7.992,7.992,0,1,0,6,13.992,8,8,0,0,0,13.992,21.984Zm0-13.7a5.708,5.708,0,1,1-5.708,5.708A5.715,5.715,0,0,1,13.992,8.283Z" transform="translate(0.85 0.85)"/>
        <path id="Trazado_1262396" data-name="Trazado 1262396" d="M13.425,16.85A3.425,3.425,0,1,0,10,13.425,3.429,3.429,0,0,0,13.425,16.85Zm0-4.567a1.142,1.142,0,1,1-1.142,1.142A1.143,1.143,0,0,1,13.425,12.283Z" transform="translate(1.417 1.417)"/>
        <path id="Trazado_1262397" data-name="Trazado 1262397" d="M2.416,18.746a1.172,1.172,0,0,1,.739.683c.058.15.119.3.183.444a1.176,1.176,0,0,1-.043,1,3.5,3.5,0,0,0,.65,4.066l.8.8a3.5,3.5,0,0,0,4.066.651,1.178,1.178,0,0,1,1-.043c.147.064.3.126.446.184a1.175,1.175,0,0,1,.68.739,3.5,3.5,0,0,0,3.335,2.416h1.137a3.5,3.5,0,0,0,3.335-2.416,1.173,1.173,0,0,1,.678-.738c.152-.058.3-.12.45-.185a1.167,1.167,0,0,1,1,.043,3.5,3.5,0,0,0,4.066-.651l.8-.8a3.5,3.5,0,0,0,.65-4.064,1.172,1.172,0,0,1-.042-1c.063-.146.123-.293.183-.445a1.171,1.171,0,0,1,.74-.68,3.5,3.5,0,0,0,2.414-3.334V14.273a3.505,3.505,0,0,0-2.416-3.335,1.172,1.172,0,0,1-.739-.683c-.058-.15-.119-.3-.183-.444a1.176,1.176,0,0,1,.043-1,3.506,3.506,0,0,0-.65-4.067l-.806-.8a3.5,3.5,0,0,0-4.066-.651,1.166,1.166,0,0,1-1,.043c-.147-.064-.3-.126-.446-.184a1.175,1.175,0,0,1-.68-.739A3.5,3.5,0,0,0,15.411,0H14.273a3.5,3.5,0,0,0-3.335,2.416,1.173,1.173,0,0,1-.678.738c-.152.058-.3.12-.449.184a1.167,1.167,0,0,1-1-.043,3.505,3.505,0,0,0-4.066.651l-.806.8a3.5,3.5,0,0,0-.648,4.064,1.172,1.172,0,0,1,.042,1c-.063.146-.123.293-.183.445a1.171,1.171,0,0,1-.74.68A3.5,3.5,0,0,0,0,14.273v1.137a3.505,3.505,0,0,0,2.416,3.335Zm-.132-4.472a1.227,1.227,0,0,1,.844-1.166,3.442,3.442,0,0,0,2.153-2.02c.049-.123.1-.247.152-.368a3.451,3.451,0,0,0-.1-2.936,1.225,1.225,0,0,1,.226-1.42l.8-.8a1.223,1.223,0,0,1,1.42-.228,3.439,3.439,0,0,0,2.936.1c.12-.051.241-.1.365-.151a3.447,3.447,0,0,0,2.022-2.154,1.224,1.224,0,0,1,1.166-.844h1.137a1.224,1.224,0,0,1,1.166.846A3.451,3.451,0,0,0,18.6,5.283c.122.048.243.1.362.148a3.447,3.447,0,0,0,2.936-.1,1.224,1.224,0,0,1,1.42.228l.8.8a1.227,1.227,0,0,1,.227,1.423,3.453,3.453,0,0,0-.1,2.935c.054.121.1.244.152.366a3.45,3.45,0,0,0,2.154,2.022,1.222,1.222,0,0,1,.845,1.165v1.137a1.227,1.227,0,0,1-.844,1.166A3.442,3.442,0,0,0,24.4,18.6c-.049.123-.1.247-.152.368a3.451,3.451,0,0,0,.1,2.936,1.225,1.225,0,0,1-.226,1.42l-.8.8a1.22,1.22,0,0,1-1.42.227,3.453,3.453,0,0,0-2.935-.1c-.12.051-.241.1-.365.151a3.447,3.447,0,0,0-2.022,2.154,1.227,1.227,0,0,1-1.167.843H14.273a1.224,1.224,0,0,1-1.166-.846A3.451,3.451,0,0,0,11.084,24.4c-.122-.048-.243-.1-.362-.148a3.381,3.381,0,0,0-1.355-.282,3.518,3.518,0,0,0-1.582.38,1.222,1.222,0,0,1-1.42-.228l-.8-.8A1.226,1.226,0,0,1,5.333,21.9a3.453,3.453,0,0,0,.1-2.935c-.054-.121-.1-.244-.152-.366a3.45,3.45,0,0,0-2.154-2.022,1.22,1.22,0,0,1-.844-1.163Z" transform="translate(0 0)"/>
        <path id="Trazado_1262398" data-name="Trazado 1262398" d="M6,28H8.283v2.283H6Z" transform="translate(0.85 3.967)"/>
        <path id="Trazado_1262399" data-name="Trazado 1262399" d="M18,28h2.283v2.283H18Z" transform="translate(2.551 3.967)"/>
        <path id="Trazado_1262400" data-name="Trazado 1262400" d="M10,28h2.283v2.283H10Z" transform="translate(1.417 3.967)"/>
        <path id="Trazado_1262401" data-name="Trazado 1262401" d="M14,28h2.283v2.283H14Z" transform="translate(1.984 3.967)"/>
      </g>
    </g>
  </g>
</svg>
