<svg xmlns="http://www.w3.org/2000/svg" width="76.345" height="76.344" viewBox="0 0 76.345 76.344">
  <g id="Grupo_1204110" data-name="Grupo 1204110" transform="translate(-347.051 -2560)">
    <g id="Grupo_1203823" data-name="Grupo 1203823" transform="translate(-674.64 -533)">
      <g id="Grupo_1200255" data-name="Grupo 1200255" transform="translate(-0.275 0.345)">
        <g id="Grupo_1187152" data-name="Grupo 1187152">
          <g id="Grupo_1185946" data-name="Grupo 1185946" transform="translate(-3.07)">
            <g id="Grupo_1184280" data-name="Grupo 1184280">
              <g id="Grupo_1182168" data-name="Grupo 1182168">
                <g id="Grupo_1178877" data-name="Grupo 1178877">
                  <g id="Grupo_1111311" data-name="Grupo 1111311">
                    <g id="Grupo_1098742" data-name="Grupo 1098742" transform="translate(1025.482 3093.101)">
                      <rect id="Rectángulo_400898" data-name="Rectángulo 400898" width="76.345" height="76.345" rx="38.172" transform="translate(-0.445 -0.445)" fill="#ff9800" opacity="0.859"/>
                      <rect id="Rectángulo_400907" data-name="Rectángulo 400907" width="76.345" height="76.345" rx="38.172" transform="translate(-0.446 -0.445)" fill="none"/>
                    </g>
                  </g>
                </g>
              </g>
            </g>
          </g>
        </g>
      </g>
    </g>
    <g id="_07-Asset" data-name="07-Asset" transform="translate(360.051 2573)">
      <path id="Trazado_1262252" data-name="Trazado 1262252" d="M50.2,18.448v7.874H25V18.448L37.6,9Z" transform="translate(-4.89 -1.488)" fill="#e0e0e0"/>
      <path id="Trazado_1262253" data-name="Trazado 1262253" d="M50.2,18.448v7.874H46.259V18.448l-8.661-6.5L25,21.4V18.448L37.6,9Z" transform="translate(-4.89 -1.488)" fill="#bdbdbd"/>
      <path id="Trazado_1262254" data-name="Trazado 1262254" d="M3,21V49.345c0,1.739,3.173,3.149,7.086,3.149s7.086-1.41,7.086-3.149V21Z" transform="translate(-0.213 -4.04)" fill="#ffd54f"/>
      <path id="Trazado_1262255" data-name="Trazado 1262255" d="M19.937,21V49.345c0,1.236-1.606,2.307-3.937,2.819V21Z" transform="translate(-2.977 -4.04)" fill="#ffca28"/>
      <path id="Trazado_1262256" data-name="Trazado 1262256" d="M17.173,27v4.724c0,1.74-3.173,3.149-7.086,3.149S3,33.464,3,31.724V27c0,1.74,3.173,3.149,7.086,3.149S17.173,28.74,17.173,27Z" transform="translate(-0.213 -5.316)" fill="#ffb74d"/>
      <path id="Trazado_1262257" data-name="Trazado 1262257" d="M17.173,39v4.724c0,1.74-3.173,3.149-7.086,3.149S3,45.464,3,43.724V39c0,1.74,3.173,3.149,7.086,3.149S17.173,40.74,17.173,39Z" transform="translate(-0.213 -7.867)" fill="#ffb74d"/>
      <path id="Trazado_1262258" data-name="Trazado 1262258" d="M19.937,27v4.724c0,1.236-1.606,2.307-3.937,2.819V29.819C18.331,29.307,19.937,28.236,19.937,27Z" transform="translate(-2.977 -5.316)" fill="#ffa726"/>
      <path id="Trazado_1262259" data-name="Trazado 1262259" d="M19.937,39v4.724c0,1.236-1.606,2.307-3.937,2.819V41.819C18.331,41.307,19.937,40.236,19.937,39Z" transform="translate(-2.977 -7.867)" fill="#ffa726"/>
      <path id="Trazado_1262260" data-name="Trazado 1262260" d="M17.173,51v4.724c0,1.74-3.173,3.149-7.086,3.149S3,57.464,3,55.724V51c0,1.74,3.173,3.149,7.086,3.149S17.173,52.74,17.173,51Z" transform="translate(-0.213 -10.419)" fill="#ffb74d"/>
      <path id="Trazado_1262261" data-name="Trazado 1262261" d="M17.173,51v4.724c0,1.74-3.173,3.149-7.086,3.149S3,57.464,3,55.724V53.362c0,1.74,3.173,3.149,7.086,3.149q.5,0,.976-.03a2.347,2.347,0,0,0,2.174-2.358v-.305C15.566,53.307,17.173,52.236,17.173,51Z" transform="translate(-0.213 -10.419)" fill="#ffa726"/>
      <ellipse id="Elipse_12649" data-name="Elipse 12649" cx="7.208" cy="3.432" rx="7.208" ry="3.432" transform="translate(2.565 13.548)" fill="#ffb74d"/>
      <path id="Trazado_1262262" data-name="Trazado 1262262" d="M36.747,3,21,14.811v4.724L36.747,7.724,52.495,19.535V14.811Z" transform="translate(-4.04 -0.213)" fill="#ef5350"/>
      <rect id="Rectángulo_411249" data-name="Rectángulo 411249" width="35.008" height="20.593" rx="4" transform="translate(13.548 27.963)" fill="#4caf50"/>
      <rect id="Rectángulo_411250" data-name="Rectángulo 411250" width="35.008" height="20.593" rx="4" transform="translate(13.548 24.53)" fill="#81c784"/>
      <path id="Trazado_1262263" data-name="Trazado 1262263" d="M51.644,34.149V48.322a3.149,3.149,0,0,1-3.149,3.149H20.149A3.149,3.149,0,0,1,17,48.322v-.283a3.137,3.137,0,0,0,2.362,1.071H46.133a3.149,3.149,0,0,0,3.149-3.149v-12.6A3.137,3.137,0,0,0,48.211,31h.283a3.149,3.149,0,0,1,3.149,3.149Z" transform="translate(-3.189 -6.166)" fill="#66bb6a"/>
      <path id="Trazado_1262264" data-name="Trazado 1262264" d="M49.345,38.149v7.874A3.149,3.149,0,0,0,46.2,49.173H24.149A3.149,3.149,0,0,0,21,46.023V38.149A3.149,3.149,0,0,0,24.149,35H46.2a3.149,3.149,0,0,0,3.149,3.149Z" transform="translate(-4.04 -7.017)" fill="#a5d6a7"/>
      <rect id="Rectángulo_411251" data-name="Rectángulo 411251" width="10.983" height="24.025" transform="translate(25.904 24.53)" fill="#eee"/>
      <path id="Trazado_1262265" data-name="Trazado 1262265" d="M43.023,31V54.621H32V51.472h3.937a3.149,3.149,0,0,0,3.149-3.149V31Z" transform="translate(-6.379 -6.166)" fill="#e0e0e0"/>
      <path id="Trazado_1262266" data-name="Trazado 1262266" d="M42.575,47.83A2.752,2.752,0,0,0,41,45.351V50.3A2.735,2.735,0,0,0,42.575,47.83Z" transform="translate(-8.293 -9.218)" fill="#ffa726"/>
      <path id="Trazado_1262267" data-name="Trazado 1262267" d="M41.787,40H41v1.575h.787a.787.787,0,1,0,0-1.575Z" transform="translate(-8.293 -8.08)" fill="#ffa726"/>
      <circle id="Elipse_12650" data-name="Elipse 12650" cx="3.432" cy="3.432" r="3.432" transform="translate(29.336 13.548)" fill="#757575"/>
      <path id="Trazado_1262268" data-name="Trazado 1262268" d="M39.5,23.063a2.957,2.957,0,0,0,1.181.236,3.149,3.149,0,1,0,0-6.3,2.957,2.957,0,0,0-1.181.236,3.14,3.14,0,0,1,0,5.827Z" transform="translate(-7.974 -3.189)" fill="#616161"/>
      <path id="Trazado_1262269" data-name="Trazado 1262269" d="M9.874,25.621a15.469,15.469,0,0,0,1.783-.1.787.787,0,1,0-.181-1.564,13.974,13.974,0,0,1-1.6.089c-3.845,0-6.3-1.4-6.3-2.362V19.373a11.763,11.763,0,0,0,6.3,1.524,11.763,11.763,0,0,0,6.3-1.524v2.311a.787.787,0,0,0,1.575,0V16.96c0-2.244-3.385-3.937-7.874-3.937S2,14.716,2,16.96V45.305c0,2.244,3.385,3.937,7.874,3.937a16.7,16.7,0,0,0,1.669-.086.787.787,0,0,0-.159-1.567,14.912,14.912,0,0,1-1.51.078c-3.845,0-6.3-1.4-6.3-2.362V42.994a11.763,11.763,0,0,0,6.3,1.524c.283,0,.559-.008.835-.025a.787.787,0,1,0-.1-1.572c-.244.015-.488.022-.74.022-3.845,0-6.3-1.4-6.3-2.362V38.27a11.763,11.763,0,0,0,6.3,1.524c.283,0,.559-.008.835-.025a.787.787,0,1,0-.1-1.572c-.244.015-.488.022-.74.022-3.845,0-6.3-1.4-6.3-2.362V33.546a11.763,11.763,0,0,0,6.3,1.524c.283,0,.559-.008.835-.025a.787.787,0,1,0-.1-1.572c-.244.015-.488.022-.74.022-3.845,0-6.3-1.4-6.3-2.362V28.821a11.763,11.763,0,0,0,6.3,1.524c.283,0,.559-.008.835-.025a.787.787,0,1,0-.1-1.572c-.244.015-.488.022-.74.022-3.845,0-6.3-1.4-6.3-2.362V24.1a11.763,11.763,0,0,0,6.3,1.524Zm0-11.023c3.845,0,6.3,1.4,6.3,2.362s-2.454,2.362-6.3,2.362-6.3-1.4-6.3-2.362S6.029,14.6,9.874,14.6Zm35.432,9.448H16.96a3.941,3.941,0,0,0-3.937,3.937V45.305a3.941,3.941,0,0,0,3.937,3.937H45.305a3.941,3.941,0,0,0,3.937-3.937V27.983a3.941,3.941,0,0,0-3.937-3.937Zm-7.874,4.724h4.016a3.948,3.948,0,0,0,3.07,3.07V38.3a3.948,3.948,0,0,0-3.07,3.07H37.432Zm-12.6,18.9H16.96A2.365,2.365,0,0,1,14.6,45.305v-.02a3.9,3.9,0,0,0,2.362.808h7.874Zm0-6.3H20.818a3.948,3.948,0,0,0-3.07-3.07V31.841a3.948,3.948,0,0,0,3.07-3.07h4.016Zm0-14.173H20.11a.787.787,0,0,0-.787.787,2.365,2.365,0,0,1-2.362,2.362.787.787,0,0,0-.787.787v7.874a.787.787,0,0,0,.787.787,2.365,2.365,0,0,1,2.362,2.362.787.787,0,0,0,.787.787h4.724v1.575H16.96A2.365,2.365,0,0,1,14.6,42.156V27.983a2.365,2.365,0,0,1,2.362-2.362h7.874ZM35.857,47.667H26.408V25.621h9.448Zm11.811-2.362a2.365,2.365,0,0,1-2.362,2.362H37.432V46.093h7.874a3.9,3.9,0,0,0,2.362-.808Zm0-3.149a2.365,2.365,0,0,1-2.362,2.362H37.432V42.943h4.724a.787.787,0,0,0,.787-.787,2.365,2.365,0,0,1,2.362-2.362.787.787,0,0,0,.787-.787V31.133a.787.787,0,0,0-.787-.787,2.365,2.365,0,0,1-2.362-2.362.787.787,0,0,0-.787-.787H37.432V25.621h7.874a2.365,2.365,0,0,1,2.362,2.362Zm-14.96-3.543a1.182,1.182,0,0,0-1.181-1.181h-.787a2.75,2.75,0,0,1-.394-5.472v-.827a.787.787,0,1,1,1.575,0v.787h1.575a.787.787,0,1,1,0,1.575H30.739a1.181,1.181,0,1,0,0,2.362h.787a2.75,2.75,0,0,1,.394,5.472v.827a.787.787,0,1,1-1.575,0v-.787H28.771a.787.787,0,0,1,0-1.575h2.756a1.182,1.182,0,0,0,1.181-1.181ZM36.644,16.96A3.937,3.937,0,1,0,32.707,20.9,3.937,3.937,0,0,0,36.644,16.96Zm-6.3,0a2.362,2.362,0,1,1,2.362,2.362,2.362,2.362,0,0,1-2.362-2.362Zm18.9-2.362v4.724a.787.787,0,0,1-1.26.63l-1.89-1.417v3.149a.787.787,0,0,1-1.575,0V17.354L32.707,8.5,20.9,17.354v4.331a.787.787,0,1,1-1.575,0V16.96a.786.786,0,0,1,.315-.63l12.6-9.448a.788.788,0,0,1,.945,0L47.667,17.747V14.992L32.707,3.772l-13.7,10.275a.787.787,0,0,1-.945-1.26L32.235,2.157a.788.788,0,0,1,.945,0L48.928,13.968A.786.786,0,0,1,49.242,14.6Z" transform="translate(0)"/>
    </g>
  </g>
</svg>
