<svg xmlns="http://www.w3.org/2000/svg" width="105" height="120" viewBox="0 0 105 120">
  <g id="Grupo_1204109" data-name="Grupo 1204109" transform="translate(-1315.051 -866)">
    <rect id="Rectángulo_411059" data-name="Rectángulo 411059" width="105" height="120" transform="translate(1315.051 866)" fill="#7e6da6"/>
    <g id="report_15173762" transform="translate(1313.759 886.002)">
      <g id="Grupo_1203265" data-name="Grupo 1203265" transform="translate(21.306 5.998)">
        <path id="Trazado_1241555" data-name="Trazado 1241555" d="M82.887,74.026V19.8L69.064,6H32.512V74.026Z" transform="translate(-30.922 -5.998)" fill="#d7dfe2" fill-rule="evenodd"/>
        <path id="Trazado_1241556" data-name="Trazado 1241556" d="M295.227,19.8,281.4,6V19.8Z" transform="translate(-243.262 -5.998)" fill="#415c6c" fill-rule="evenodd"/>
        <path id="Trazado_1241557" data-name="Trazado 1241557" d="M104.975,283.809h6.36v18.158h-6.36Z" transform="translate(-92.743 -243.01)" fill="#ffd15d" fill-rule="evenodd"/>
        <path id="Trazado_1241558" data-name="Trazado 1241558" d="M182.118,248.494h6.36v23.344h-6.36Z" transform="translate(-158.557 -212.881)" fill="#f4725c" fill-rule="evenodd"/>
        <path id="Trazado_1241559" data-name="Trazado 1241559" d="M259.384,213.186h6.359v28.53h-6.359Z" transform="translate(-224.475 -182.758)" fill="#459cbf" fill-rule="evenodd"/>
        <path id="Trazado_1241560" data-name="Trazado 1241560" d="M287.8,370.842h-2.62a1.315,1.315,0,0,0-1.319,1.319v2.023a1.315,1.315,0,0,0,1.319,1.319v1.553h18.881V375.5a1.326,1.326,0,0,0,1.319-1.319v-2.023a1.327,1.327,0,0,0-1.319-1.319v-1.409H287.8Z" transform="translate(-245.362 -316.059)" fill="#e6bc54" fill-rule="evenodd"/>
        <path id="Trazado_1241561" data-name="Trazado 1241561" d="M304.067,410.773H285.185a1.315,1.315,0,0,0-1.319,1.319v2.023a1.315,1.315,0,0,0,1.319,1.32v1.554h18.881v-1.554a1.327,1.327,0,0,0,1.319-1.32v-2.023A1.326,1.326,0,0,0,304.067,410.773Z" transform="translate(-245.362 -351.328)" fill="#cfa94c" fill-rule="evenodd"/>
        <path id="Trazado_1241562" data-name="Trazado 1241562" d="M304.067,442.518H285.185a1.315,1.315,0,0,0-1.319,1.319v2.024a1.315,1.315,0,0,0,1.319,1.319v1.554h18.881v-1.554a1.326,1.326,0,0,0,1.319-1.319v-2.024A1.326,1.326,0,0,0,304.067,442.518Z" transform="translate(-245.362 -378.411)" fill="#e6bc54" fill-rule="evenodd"/>
        <path id="Trazado_1241563" data-name="Trazado 1241563" d="M304.067,474.258H285.185a1.315,1.315,0,0,0-1.319,1.319V477.6a1.315,1.315,0,0,0,1.319,1.319h18.881a1.326,1.326,0,0,0,1.319-1.319v-2.024A1.326,1.326,0,0,0,304.067,474.258Z" transform="translate(-245.362 -405.489)" fill="#cfa94c" fill-rule="evenodd"/>
        <path id="Trazado_1241564" data-name="Trazado 1241564" d="M321.906,340.99H315.69v-1.084H303.024v1.084a1.315,1.315,0,0,0-1.319,1.319v2.024a1.315,1.315,0,0,0,1.319,1.319h18.881a1.326,1.326,0,0,0,1.319-1.319v-2.024A1.326,1.326,0,0,0,321.906,340.99Z" transform="translate(-260.581 -290.868)" fill="#cfa94c" fill-rule="evenodd"/>
        <path id="Trazado_1241565" data-name="Trazado 1241565" d="M279.584,315.545H260.7a1.326,1.326,0,0,0-1.319,1.319v2.024a1.326,1.326,0,0,0,1.319,1.319h18.881a1.326,1.326,0,0,0,1.319-1.319v-2.024A1.326,1.326,0,0,0,279.584,315.545Z" transform="translate(-224.475 -270.085)" fill="#e6bc54" fill-rule="evenodd"/>
        <path id="Trazado_1241566" data-name="Trazado 1241566" d="M372.669,397.677a9.324,9.324,0,1,0-9.323-9.323A9.346,9.346,0,0,0,372.669,397.677Z" transform="translate(-313.17 -324.247)" fill="#ffd15d" fill-rule="evenodd"/>
        <path id="Trazado_1241567" data-name="Trazado 1241567" d="M28.568,474.721h1.5v-5.385h-1.5l-6.884,2.693Z" transform="translate(-21.684 -401.29)" fill="#ffd15d" fill-rule="evenodd"/>
        <path id="Trazado_1241568" data-name="Trazado 1241568" d="M73.726,469.336h29.741v5.385H73.726Z" transform="translate(-66.083 -401.29)" fill="#66c5bc" fill-rule="evenodd"/>
        <path id="Trazado_1241569" data-name="Trazado 1241569" d="M253.5,474.721h-6.541v-5.385l6.812.019a2.691,2.691,0,0,1-.271,5.366Z" transform="translate(-213.873 -401.29)" fill="#5cb1a9" fill-rule="evenodd"/>
      </g>
      <path id="Trazado_1241570" data-name="Trazado 1241570" d="M83.411,69.963A4.2,4.2,0,0,0,80.195,68.4c-1.025-.134-1.533-.229-1.887-.93a1.043,1.043,0,0,1-.035-.893,1.724,1.724,0,0,1,1.162-.859,2.541,2.541,0,0,1,2.589.639.9.9,0,1,0,1.4-1.132A3.944,3.944,0,0,0,81.1,63.9v-.263a.9.9,0,1,0-1.8,0v.27c-.126.027-.253.047-.376.084a3.467,3.467,0,0,0-2.3,1.865,2.851,2.851,0,0,0,.076,2.417,3.688,3.688,0,0,0,3.262,1.906c.943.122,1.545.229,2,.846a1.186,1.186,0,0,1,.2,1.082,1.84,1.84,0,0,1-1.313,1.049,2.728,2.728,0,0,1-2.781-.686.9.9,0,1,0-1.4,1.125A4.123,4.123,0,0,0,79.3,75.019v.2a.9.9,0,0,0,1.8,0v-.282c.087-.021.173-.031.26-.056a3.564,3.564,0,0,0,2.5-2.2,2.962,2.962,0,0,0-.451-2.715ZM65.2,26.984l-4.337-1.939a.9.9,0,1,0-.733,1.64l2.41,1.078L30.329,41.021a.9.9,0,0,0,.684,1.662L63.262,29.41l-.893,2.359a.9.9,0,1,0,1.68.636l1.623-4.282A.9.9,0,0,0,65.2,26.984ZM45.089,15.1H29.684a.9.9,0,0,0,0,1.8H45.089a.9.9,0,1,0,0-1.8Zm0,5.095H29.684a.9.9,0,0,0,0,1.8H45.089a.9.9,0,1,0,0-1.8Zm0,0H29.684a.9.9,0,0,0,0,1.8H45.089a.9.9,0,1,0,0-1.8Zm0-5.095H29.684a.9.9,0,0,0,0,1.8H45.089a.9.9,0,1,0,0-1.8ZM65.2,26.984l-4.337-1.939a.9.9,0,1,0-.733,1.64l2.41,1.078L30.329,41.021a.9.9,0,0,0,.684,1.662L63.262,29.41l-.893,2.359a.9.9,0,1,0,1.68.636l1.623-4.282A.9.9,0,0,0,65.2,26.984ZM83.411,69.963A4.2,4.2,0,0,0,80.195,68.4c-1.025-.134-1.533-.229-1.887-.93a1.043,1.043,0,0,1-.035-.893,1.724,1.724,0,0,1,1.162-.859,2.541,2.541,0,0,1,2.589.639.9.9,0,1,0,1.4-1.132A3.944,3.944,0,0,0,81.1,63.9v-.263a.9.9,0,1,0-1.8,0v.27c-.126.027-.253.047-.376.084a3.467,3.467,0,0,0-2.3,1.865,2.851,2.851,0,0,0,.076,2.417,3.688,3.688,0,0,0,3.262,1.906c.943.122,1.545.229,2,.846a1.186,1.186,0,0,1,.2,1.082,1.84,1.84,0,0,1-1.313,1.049,2.728,2.728,0,0,1-2.781-.686.9.9,0,1,0-1.4,1.125A4.123,4.123,0,0,0,79.3,75.019v.2a.9.9,0,0,0,1.8,0v-.282c.087-.021.173-.031.26-.056a3.564,3.564,0,0,0,2.5-2.2,2.962,2.962,0,0,0-.451-2.715Zm0,0A4.2,4.2,0,0,0,80.195,68.4c-1.025-.134-1.533-.229-1.887-.93a1.043,1.043,0,0,1-.035-.893,1.724,1.724,0,0,1,1.162-.859,2.541,2.541,0,0,1,2.589.639.9.9,0,1,0,1.4-1.132A3.944,3.944,0,0,0,81.1,63.9v-.263a.9.9,0,1,0-1.8,0v.27c-.126.027-.253.047-.376.084a3.467,3.467,0,0,0-2.3,1.865,2.851,2.851,0,0,0,.076,2.417,3.688,3.688,0,0,0,3.262,1.906c.943.122,1.545.229,2,.846a1.186,1.186,0,0,1,.2,1.082,1.84,1.84,0,0,1-1.313,1.049,2.728,2.728,0,0,1-2.781-.686.9.9,0,1,0-1.4,1.125A4.123,4.123,0,0,0,79.3,75.019v.2a.9.9,0,0,0,1.8,0v-.282c.087-.021.173-.031.26-.056a3.564,3.564,0,0,0,2.5-2.2,2.962,2.962,0,0,0-.451-2.715ZM65.2,26.984l-4.337-1.939a.9.9,0,1,0-.733,1.64l2.41,1.078L30.329,41.021a.9.9,0,0,0,.684,1.662L63.262,29.41l-.893,2.359a.9.9,0,1,0,1.68.636l1.623-4.282A.9.9,0,0,0,65.2,26.984ZM29.684,16.893H45.089a.9.9,0,0,0,0-1.8H29.684a.9.9,0,1,0,0,1.8Zm16.3,4.2a.9.9,0,0,0-.9-.9H29.684a.9.9,0,0,0,0,1.8H45.089A.9.9,0,0,0,45.988,21.089ZM83.862,60.148a2.15,2.15,0,0,0,.3-1.093V57.064a2.18,2.18,0,0,0-2.185-2.169H78.064a2.089,2.089,0,0,0,.04-.388V52.516a2.179,2.179,0,0,0-2.185-2.168h-2.24V20.314a.9.9,0,0,0-.263-.637L60,6.264c-.012-.012-.026-.021-.04-.032a.818.818,0,0,0-.1-.078.429.429,0,0,0-.044-.025.987.987,0,0,0-.11-.059c-.018-.007-.038-.01-.056-.016a.707.707,0,0,0-.113-.035A.889.889,0,0,0,59.366,6H23.71a.9.9,0,0,0-.9.9V74.68l-1,.389a.9.9,0,0,0,0,1.674l6.734,2.626a.886.886,0,0,0,.326.062H60.795c.018,0,.035,0,.053-.006s.035.006.053.006H79.425a1.245,1.245,0,0,0,.211-.018.563.563,0,0,0,.072-.007c.165.009.326.025.492.025a9.988,9.988,0,0,0,3.661-19.283Zm-1.881-3.456a.381.381,0,0,1,.388.372v1.991a.393.393,0,0,1-.388.388H63.544a.38.38,0,0,1-.37-.388V57.064a.367.367,0,0,1,.37-.372ZM61.414,59.443h-.426a2.17,2.17,0,0,0-2.168,2.168v1.9H57.11V56.656a2.212,2.212,0,0,0,.372.037h3.933a2.069,2.069,0,0,0-.038.372v1.991A2.252,2.252,0,0,0,61.414,59.443Zm-.8,6.716a.367.367,0,0,1,.372-.372h9.917a9.933,9.933,0,0,0-.654,2.751H60.989a.38.38,0,0,1-.372-.388Zm.372-2.168a.382.382,0,0,1-.372-.389V61.611a.367.367,0,0,1,.372-.37H74.5a10.07,10.07,0,0,0-2.665,2.751H60.989Zm14.93-11.846a.38.38,0,0,1,.388.37v1.991a.393.393,0,0,1-.388.388H57.481a.38.38,0,0,1-.372-.388V52.516a.366.366,0,0,1,.372-.37ZM57.11,50.385V37.48H61.5V50.348H57.482a2.212,2.212,0,0,0-.372.037ZM28.7,77.5l-4.083-1.592L28.7,74.313Zm-.15-5.056-3.939,1.538V7.8H58.467V20.314a.9.9,0,0,0,.9.9h6.681a.9.9,0,1,0,0-1.8H60.264V9.069L71.881,20.686V50.348H63.3V36.582a.9.9,0,0,0-.9-.9H56.211a.9.9,0,0,0-.9.9V63.514H52.246V41.641a.9.9,0,0,0-.9-.9h-6.2a.9.9,0,0,0-.9.9V63.514H41.195V46.7a.9.9,0,0,0-.9-.9h-6.2a.9.9,0,0,0-.9.9V63.514H30.442a.9.9,0,1,0,0,1.8H58.993a2.172,2.172,0,0,0-.172.847v1.992a2.173,2.173,0,0,0,.421,1.283,2.142,2.142,0,0,0-.421,1.272v1.676H28.873a.916.916,0,0,0-.326.06Zm21.9-29.9V63.514H46.041V42.54ZM39.4,47.6V63.514H34.99V47.6ZM53.532,77.633H30.5V74.179H53.532Zm8.991-1.649a1.733,1.733,0,0,1-1.729,1.649H55.33V74.179h5.7A1.747,1.747,0,0,1,62.523,75.984Zm-1.356-3.6c-.031,0-.062,0-.091,0h-.46V70.706a.367.367,0,0,1,.372-.37h9.264a9.925,9.925,0,0,0,.654,2.751H62.924A3.479,3.479,0,0,0,61.168,72.386Zm2.683,5.247a3.4,3.4,0,0,0,.314-2.749h7.668A10.063,10.063,0,0,0,74.5,77.633H63.851Zm16.35,0a8.2,8.2,0,1,1,8.2-8.2A8.205,8.205,0,0,1,80.2,77.633ZM80.195,68.4c-1.025-.134-1.533-.229-1.887-.93a1.043,1.043,0,0,1-.035-.893,1.724,1.724,0,0,1,1.162-.859,2.541,2.541,0,0,1,2.589.639.9.9,0,1,0,1.4-1.132A3.944,3.944,0,0,0,81.1,63.9v-.263a.9.9,0,1,0-1.8,0v.27c-.126.027-.253.047-.376.084a3.467,3.467,0,0,0-2.3,1.865,2.851,2.851,0,0,0,.076,2.417,3.688,3.688,0,0,0,3.262,1.906c.943.122,1.545.229,2,.846a1.186,1.186,0,0,1,.2,1.082,1.84,1.84,0,0,1-1.313,1.049,2.728,2.728,0,0,1-2.781-.686.9.9,0,1,0-1.4,1.125A4.123,4.123,0,0,0,79.3,75.019v.2a.9.9,0,0,0,1.8,0v-.282c.087-.021.173-.031.26-.056a3.564,3.564,0,0,0,2.5-2.2,2.96,2.96,0,0,0-.451-2.715A4.2,4.2,0,0,0,80.195,68.4ZM29.84,42.194a.9.9,0,0,0,1.173.489L63.262,29.41l-.893,2.359a.9.9,0,1,0,1.68.636l1.623-4.282a.9.9,0,0,0-.474-1.138l-4.337-1.939a.9.9,0,1,0-.733,1.64l2.41,1.078L30.329,41.021a.9.9,0,0,0-.489,1.173Zm-.156-25.3H45.089a.9.9,0,0,0,0-1.8H29.684a.9.9,0,1,0,0,1.8Zm15.406,5.095a.9.9,0,0,0,0-1.8H29.684a.9.9,0,0,0,0,1.8Zm0-1.8H29.684a.9.9,0,0,0,0,1.8H45.089a.9.9,0,0,0,0-1.8Zm0-5.095H29.684a.9.9,0,0,0,0,1.8H45.089a.9.9,0,0,0,0-1.8ZM65.2,26.984l-4.337-1.939a.9.9,0,1,0-.733,1.64l2.41,1.078L30.329,41.021a.9.9,0,0,0,.684,1.662L63.262,29.41l-.893,2.359a.9.9,0,1,0,1.68.636l1.623-4.282A.9.9,0,0,0,65.2,26.984ZM83.411,69.963A4.2,4.2,0,0,0,80.195,68.4c-1.025-.134-1.533-.229-1.887-.93a1.043,1.043,0,0,1-.035-.893,1.724,1.724,0,0,1,1.162-.859,2.541,2.541,0,0,1,2.589.639.9.9,0,1,0,1.4-1.132A3.944,3.944,0,0,0,81.1,63.9v-.263a.9.9,0,0,0-1.8,0v.27c-.126.027-.253.047-.376.084a3.468,3.468,0,0,0-2.3,1.865,2.851,2.851,0,0,0,.076,2.417,3.688,3.688,0,0,0,3.262,1.906c.943.122,1.545.229,2,.846a1.186,1.186,0,0,1,.2,1.082,1.84,1.84,0,0,1-1.313,1.049,2.728,2.728,0,0,1-2.781-.686.9.9,0,1,0-1.4,1.125A4.123,4.123,0,0,0,79.3,75.019v.2a.9.9,0,1,0,1.8,0v-.282c.087-.021.173-.031.26-.056a3.564,3.564,0,0,0,2.5-2.2,2.962,2.962,0,0,0-.451-2.715Zm0,0A4.2,4.2,0,0,0,80.195,68.4c-1.025-.134-1.533-.229-1.887-.93a1.043,1.043,0,0,1-.035-.893,1.724,1.724,0,0,1,1.162-.859,2.541,2.541,0,0,1,2.589.639.9.9,0,1,0,1.4-1.132A3.944,3.944,0,0,0,81.1,63.9v-.263a.9.9,0,0,0-1.8,0v.27c-.126.027-.253.047-.376.084a3.468,3.468,0,0,0-2.3,1.865,2.851,2.851,0,0,0,.076,2.417,3.688,3.688,0,0,0,3.262,1.906c.943.122,1.545.229,2,.846a1.186,1.186,0,0,1,.2,1.082,1.84,1.84,0,0,1-1.313,1.049,2.728,2.728,0,0,1-2.781-.686.9.9,0,1,0-1.4,1.125A4.123,4.123,0,0,0,79.3,75.019v.2a.9.9,0,1,0,1.8,0v-.282c.087-.021.173-.031.26-.056a3.564,3.564,0,0,0,2.5-2.2,2.962,2.962,0,0,0-.451-2.715ZM65.2,26.984l-4.337-1.939a.9.9,0,1,0-.733,1.64l2.41,1.078L30.329,41.021a.9.9,0,0,0,.684,1.662L63.262,29.41l-.893,2.359a.9.9,0,1,0,1.68.636l1.623-4.282A.9.9,0,0,0,65.2,26.984ZM45.089,15.1H29.684a.9.9,0,0,0,0,1.8H45.089a.9.9,0,1,0,0-1.8Zm0,5.095H29.684a.9.9,0,0,0,0,1.8H45.089a.9.9,0,1,0,0-1.8ZM83.411,69.963A4.2,4.2,0,0,0,80.195,68.4c-1.025-.134-1.533-.229-1.887-.93a1.043,1.043,0,0,1-.035-.893,1.724,1.724,0,0,1,1.162-.859,2.541,2.541,0,0,1,2.589.639.9.9,0,1,0,1.4-1.132A3.944,3.944,0,0,0,81.1,63.9v-.263a.9.9,0,1,0-1.8,0v.27c-.126.027-.253.047-.376.084a3.467,3.467,0,0,0-2.3,1.865,2.851,2.851,0,0,0,.076,2.417,3.689,3.689,0,0,0,3.262,1.906c.943.122,1.545.229,2,.846a1.186,1.186,0,0,1,.2,1.082,1.84,1.84,0,0,1-1.313,1.049,2.728,2.728,0,0,1-2.781-.686.9.9,0,1,0-1.4,1.125A4.123,4.123,0,0,0,79.3,75.019v.2a.9.9,0,0,0,1.8,0v-.282c.087-.021.173-.031.26-.056a3.564,3.564,0,0,0,2.5-2.2,2.962,2.962,0,0,0-.451-2.715ZM45.089,15.1H29.684a.9.9,0,1,0,0,1.8H45.089a.9.9,0,0,0,0-1.8Zm0,5.095H29.684a.9.9,0,0,0,0,1.8H45.089a.9.9,0,0,0,0-1.8ZM65.2,26.984l-4.337-1.939a.9.9,0,1,0-.733,1.64l2.41,1.078L30.329,41.021a.9.9,0,0,0,.684,1.662L63.262,29.41l-.893,2.359a.9.9,0,1,0,1.68.636l1.623-4.282A.9.9,0,0,0,65.2,26.984Z" transform="translate(0 -0.003)"/>
    </g>
  </g>
</svg>
