<svg xmlns="http://www.w3.org/2000/svg" width="76.345" height="76.344" viewBox="0 0 76.345 76.344">
  <g id="Grupo_1203809" data-name="Grupo 1203809" transform="translate(-1021.691 -3093)">
    <g id="Grupo_1200255" data-name="Grupo 1200255" transform="translate(-0.275 0.345)">
      <g id="Grupo_1187152" data-name="Grupo 1187152">
        <g id="Grupo_1185946" data-name="Grupo 1185946" transform="translate(-3.07)">
          <g id="Grupo_1184280" data-name="Grupo 1184280">
            <g id="Grupo_1182168" data-name="Grupo 1182168">
              <g id="Grupo_1178877" data-name="Grupo 1178877">
                <g id="Grupo_1111311" data-name="Grupo 1111311">
                  <g id="Grupo_1098742" data-name="Grupo 1098742" transform="translate(1025.482 3093.101)">
                    <g id="Rectángulo_400898" data-name="Rectángulo 400898" transform="translate(-0.445 -0.445)" fill="#e1d7f8" stroke="#b59eee" stroke-width="1" opacity="0.859">
                      <rect width="76.345" height="76.345" rx="38.172" stroke="none"/>
                      <rect x="0.5" y="0.5" width="75.345" height="75.345" rx="37.672" fill="none"/>
                    </g>
                    <g id="Rectángulo_400907" data-name="Rectángulo 400907" transform="translate(-0.446 -0.445)" fill="none" stroke="#b59eee" stroke-width="1">
                      <rect width="76.345" height="76.345" rx="38.172" stroke="none"/>
                      <rect x="0.5" y="0.5" width="75.345" height="75.345" rx="37.672" fill="none"/>
                    </g>
                  </g>
                </g>
              </g>
            </g>
          </g>
        </g>
      </g>
    </g>
    <g id="Layer_13" data-name="Layer 13" transform="translate(1036.691 3107)">
      <path id="Trazado_1241571" data-name="Trazado 1241571" d="M36,6v7.221h7.221" transform="translate(-6.72 -0.988)" fill="#a3b8db"/>
      <path id="Trazado_1241572" data-name="Trazado 1241572" d="M7,5.209V2H40.7V46.932H37.49Z" transform="translate(-0.988 -0.198)" fill="#a3b8db"/>
      <path id="Trazado_1241573" data-name="Trazado 1241573" d="M7,5v.8L37.49,47.525h.8v-35.3L31.071,5Z" transform="translate(-0.988 -0.791)" fill="#93add1"/>
      <path id="Trazado_1241574" data-name="Trazado 1241574" d="M36.7,50.932V13.221L29.478,6H3V50.932Z" transform="translate(-0.198 -0.988)" fill="#a3b8db"/>
      <path id="Trazado_1241575" data-name="Trazado 1241575" d="M5,6V18.838C5,36.911,19.228,48.449,37.094,49.286V13.221L29.873,6Z" transform="translate(-0.593 -0.988)" fill="#c0cee8"/>
      <path id="Trazado_1241576" data-name="Trazado 1241576" d="M8.407,13.012a.8.8,0,1,1,.8-.8h1.6a2.407,2.407,0,0,0-1.6-2.259V9H7.6v.95a2.4,2.4,0,0,0,.8,4.667.8.8,0,1,1-.8.8H6a2.407,2.407,0,0,0,1.6,2.259v.95h1.6v-.95a2.4,2.4,0,0,0-.8-4.667Z" transform="translate(-0.791 -1.581)" fill="#e9353f"/>
      <path id="Trazado_1241577" data-name="Trazado 1241577" d="M19,9H30.233v1.6H19Z" transform="translate(-3.36 -1.581)" fill="#fff"/>
      <path id="Trazado_1241578" data-name="Trazado 1241578" d="M14,13H29.245v1.6H14Z" transform="translate(-2.372 -2.372)" fill="#fff"/>
      <path id="Trazado_1241579" data-name="Trazado 1241579" d="M9,54.838V42h3.209V54.838" transform="translate(-1.384 -8.103)" fill="#e9353f"/>
      <path id="Trazado_1241580" data-name="Trazado 1241580" d="M17,54.047V38h3.209V54.047" transform="translate(-2.965 -7.313)" fill="#f9cb52"/>
      <path id="Trazado_1241581" data-name="Trazado 1241581" d="M25,55.431V45h3.209V55.431" transform="translate(-4.546 -8.696)" fill="#e9353f"/>
      <path id="Trazado_1241582" data-name="Trazado 1241582" d="M6,57H28.466v1.6H6Z" transform="translate(-0.791 -11.068)" fill="#5b5b5b"/>
      <path id="Trazado_1241583" data-name="Trazado 1241583" d="M35.926,32.066l-8.024-1.6-.157.786-.652-.466-3.461,4.845-7.354-7.354-.567.567-.472-.649L6.411,34.61l.944,1.3,8.272-6.015,7.539,7.539.567-.567.652.466L28.1,32.135l7.515,1.5Z" transform="translate(-0.872 -5.374)" fill="#e9353f"/>
      <circle id="Elipse_12386" data-name="Elipse 12386" cx="1.5" cy="1.5" r="1.5" transform="translate(13.071 21.873)" fill="#f9cb52"/>
      <circle id="Elipse_12387" data-name="Elipse 12387" cx="1.5" cy="1.5" r="1.5" transform="translate(21.071 29.873)" fill="#f9cb52"/>
      <ellipse id="Elipse_12388" data-name="Elipse 12388" cx="1.5" cy="2" rx="1.5" ry="2" transform="translate(25.071 23.873)" fill="#f9cb52"/>
      <path id="Trazado_1241584" data-name="Trazado 1241584" d="M14,17H29.245v1.6H14Z" transform="translate(-2.372 -3.162)" fill="#fff"/>
      <path id="Trazado_1241585" data-name="Trazado 1241585" d="M14,21H30.849v1.6H14Z" transform="translate(-2.372 -3.953)" fill="#fff"/>
      <circle id="Elipse_12389" data-name="Elipse 12389" cx="8" cy="8" r="8" transform="translate(32.071 14.873)" fill="#f9cb52"/>
      <path id="Trazado_1241586" data-name="Trazado 1241586" d="M47.419,18a7.977,7.977,0,0,0-4.808,1.612,8.012,8.012,0,0,0,11.221,11.22A8.012,8.012,0,0,0,47.419,18Z" transform="translate(-7.708 -3.36)" fill="#ffd986"/>
      <circle id="Elipse_12390" data-name="Elipse 12390" cx="6.5" cy="6.5" r="6.5" transform="translate(33.071 15.873)" fill="#ed8213"/>
      <path id="Trazado_1241587" data-name="Trazado 1241587" d="M46.62,21A6.39,6.39,0,0,0,42.5,22.5a6.419,6.419,0,0,0,9.039,9.039A6.419,6.419,0,0,0,46.62,21Z" transform="translate(-7.712 -3.953)" fill="#f89b1c"/>
      <path id="Trazado_1241588" data-name="Trazado 1241588" d="M49.012,31.526a3.2,3.2,0,0,0-.8-6.3,1.6,1.6,0,1,1,1.6-1.6h1.6a3.209,3.209,0,0,0-2.407-3.1V18.04c-.264-.026-.531-.04-.8-.04s-.538.014-.8.04v2.481a3.2,3.2,0,0,0,.8,6.3,1.6,1.6,0,1,1-1.6,1.6H45a3.209,3.209,0,0,0,2.407,3.1v2.481c.264.026.531.04.8.04s.538-.014.8-.04Z" transform="translate(-8.499 -3.36)" fill="#ffd986"/>
      <rect id="Rectángulo_410994" data-name="Rectángulo 410994" width="19" height="5" rx="2" transform="translate(30.071 30.873)" fill="#f89b1c"/>
      <path id="Trazado_1241589" data-name="Trazado 1241589" d="M55.047,38H39v1.6a1.6,1.6,0,0,0,1.6,1.6H56.652V39.6A1.6,1.6,0,0,0,55.047,38Z" transform="translate(-7.313 -7.313)" fill="#fdb716"/>
      <path id="Trazado_1241590" data-name="Trazado 1241590" d="M40,38h1.6v2.407H40Z" transform="translate(-7.51 -7.313)" fill="#f89b1c"/>
      <path id="Trazado_1241591" data-name="Trazado 1241591" d="M44,38h1.6v2.407H44Z" transform="translate(-8.301 -7.313)" fill="#f89b1c"/>
      <path id="Trazado_1241592" data-name="Trazado 1241592" d="M48,38h1.6v2.407H48Z" transform="translate(-9.092 -7.313)" fill="#f89b1c"/>
      <path id="Trazado_1241593" data-name="Trazado 1241593" d="M52,38h1.6v2.407H52Z" transform="translate(-9.882 -7.313)" fill="#f89b1c"/>
      <path id="Trazado_1241594" data-name="Trazado 1241594" d="M56,38h1.6v2.407H56Z" transform="translate(-10.673 -7.313)" fill="#f89b1c"/>
      <rect id="Rectángulo_410995" data-name="Rectángulo 410995" width="19" height="4" rx="2" transform="translate(27.071 35.873)" fill="#fdb716"/>
      <path id="Trazado_1241595" data-name="Trazado 1241595" d="M51.047,44H35v1.6a1.6,1.6,0,0,0,1.6,1.6H52.652V45.6A1.6,1.6,0,0,0,51.047,44Z" transform="translate(-6.522 -8.499)" fill="#ffc767"/>
      <path id="Trazado_1241596" data-name="Trazado 1241596" d="M36,44h1.6v2.407H36Z" transform="translate(-6.72 -8.499)" fill="#fdb716"/>
      <path id="Trazado_1241597" data-name="Trazado 1241597" d="M40,44h1.6v2.407H40Z" transform="translate(-7.51 -8.499)" fill="#fdb716"/>
      <path id="Trazado_1241598" data-name="Trazado 1241598" d="M44,44h1.6v2.407H44Z" transform="translate(-8.301 -8.499)" fill="#fdb716"/>
      <path id="Trazado_1241599" data-name="Trazado 1241599" d="M48,44h1.6v2.407H48Z" transform="translate(-9.092 -8.499)" fill="#fdb716"/>
      <path id="Trazado_1241600" data-name="Trazado 1241600" d="M52,44h1.6v2.407H52Z" transform="translate(-9.882 -8.499)" fill="#fdb716"/>
      <rect id="Rectángulo_410996" data-name="Rectángulo 410996" width="19" height="5" rx="2" transform="translate(29.071 39.873)" fill="#ed8213"/>
      <path id="Trazado_1241601" data-name="Trazado 1241601" d="M54.047,50H38v1.6a1.6,1.6,0,0,0,1.6,1.6H55.652V51.6A1.6,1.6,0,0,0,54.047,50Z" transform="translate(-7.115 -9.685)" fill="#f89b1c"/>
      <g id="Grupo_1203271" data-name="Grupo 1203271" transform="translate(31.687 40.315)">
        <path id="Trazado_1241602" data-name="Trazado 1241602" d="M39,50h1.6v2.407H39Z" transform="translate(-39 -50)" fill="#ed8213"/>
        <path id="Trazado_1241603" data-name="Trazado 1241603" d="M43,50h1.6v2.407H43Z" transform="translate(-39.791 -50)" fill="#ed8213"/>
        <path id="Trazado_1241604" data-name="Trazado 1241604" d="M47,50h1.6v2.407H47Z" transform="translate(-40.581 -50)" fill="#ed8213"/>
        <path id="Trazado_1241605" data-name="Trazado 1241605" d="M51,50h1.6v2.407H51Z" transform="translate(-41.372 -50)" fill="#ed8213"/>
        <path id="Trazado_1241606" data-name="Trazado 1241606" d="M55,50h1.6v2.407H55Z" transform="translate(-42.162 -50)" fill="#ed8213"/>
      </g>
      <rect id="Rectángulo_410997" data-name="Rectángulo 410997" width="19" height="5" rx="2" transform="translate(27.071 44.873)" fill="#f89b1c"/>
      <path id="Trazado_1241607" data-name="Trazado 1241607" d="M51.047,56H35v1.6a1.6,1.6,0,0,0,1.6,1.6H52.652V57.6A1.6,1.6,0,0,0,51.047,56Z" transform="translate(-6.522 -10.87)" fill="#fdb716"/>
      <path id="Trazado_1241608" data-name="Trazado 1241608" d="M36,56h1.6v2.407H36Z" transform="translate(-6.72 -10.87)" fill="#f89b1c"/>
      <path id="Trazado_1241609" data-name="Trazado 1241609" d="M40,56h1.6v2.407H40Z" transform="translate(-7.51 -10.87)" fill="#f89b1c"/>
      <path id="Trazado_1241610" data-name="Trazado 1241610" d="M44,56h1.6v2.407H44Z" transform="translate(-8.301 -10.87)" fill="#f89b1c"/>
      <path id="Trazado_1241611" data-name="Trazado 1241611" d="M48,56h1.6v2.407H48Z" transform="translate(-9.092 -10.87)" fill="#f89b1c"/>
      <path id="Trazado_1241612" data-name="Trazado 1241612" d="M52,56h1.6v2.407H52Z" transform="translate(-9.882 -10.87)" fill="#f89b1c"/>
      <path id="Trazado_1241613" data-name="Trazado 1241613" d="M11,51.628a1.6,1.6,0,0,0,1.6,1.6V42H11Z" transform="translate(-1.779 -8.103)" fill="#ff4b50"/>
      <path id="Trazado_1241614" data-name="Trazado 1241614" d="M19,50.838a1.6,1.6,0,0,0,1.6,1.6V38H19Z" transform="translate(-3.36 -7.313)" fill="#ffd986"/>
      <path id="Trazado_1241615" data-name="Trazado 1241615" d="M27,52.221a1.6,1.6,0,0,0,1.6,1.6V45H27Z" transform="translate(-4.941 -8.696)" fill="#ff4b50"/>
      <path id="Trazado_1241616" data-name="Trazado 1241616" d="M39.711,1H6.012a.8.8,0,0,0-.8.8V4.209H2.8a.8.8,0,0,0-.8.8V49.944a.8.8,0,0,0,.8.8H44.525a2.407,2.407,0,0,0,2.407-2.407v-1.6a2.415,2.415,0,0,0-.137-.8h.137a2.407,2.407,0,0,0,2.407-2.407v-1.6a2.407,2.407,0,0,0-2.407-2.407h-.137a2.414,2.414,0,0,0,.137-.8v-1.6a2.415,2.415,0,0,0-.137-.8h.94A2.407,2.407,0,0,0,50.141,33.9v-1.6a2.407,2.407,0,0,0-2.407-2.407H44.77a8.815,8.815,0,0,0-4.257-16.006V1.8a.8.8,0,0,0-.8-.8Zm0,22.466a1.6,1.6,0,1,1-1.6,1.6H36.5a3.209,3.209,0,0,0,2.407,3.1v1.671a7.221,7.221,0,0,1,0-14.348v1.671a3.2,3.2,0,0,0,.8,6.3ZM30.082,6.949l4.482,4.482H30.082ZM6.814,2.6H38.908V13.879a8.746,8.746,0,0,0-1.6.3V12.233a.8.8,0,0,0-.235-.567L29.847,4.445a.8.8,0,0,0-.567-.235H6.814ZM3.6,49.141V5.814H28.478v6.419a.8.8,0,0,0,.8.8H35.7v1.776A8.8,8.8,0,0,0,31.54,25.989l-2.295-.459A2.4,2.4,0,1,0,24.9,27.25l-1.383,1.936a2.361,2.361,0,0,0-.66-.1,2.385,2.385,0,0,0-1.032.241L17,24.5a2.368,2.368,0,0,0,.241-1.031,2.407,2.407,0,1,0-4.814,0,2.375,2.375,0,0,0,.109.679l-7,5.091.944,1.3,6.991-5.085a2.362,2.362,0,0,0,2.393.184l4.829,4.827a2.378,2.378,0,0,0-.241,1.031,2.407,2.407,0,1,0,4.376-1.377l1.383-1.936a2.361,2.361,0,0,0,.66.1A2.4,2.4,0,0,0,28.931,27.1l3.639.728a8.889,8.889,0,0,0,2.085,2.054H31.687a2.407,2.407,0,0,0-2.407,2.407v1.6a2.415,2.415,0,0,0,.137.8h-.94a2.407,2.407,0,0,0-2.407,2.407v1.6a2.407,2.407,0,0,0,2.407,2.407h.137a2.414,2.414,0,0,0-.137.8v1.6a2.414,2.414,0,0,0,.137.8h-.137a2.407,2.407,0,0,0-2.259,1.6H24.466V36.3a.8.8,0,0,0-.8-.8H20.454a.8.8,0,0,0-.8.8v9.628h-1.6V30.687a.8.8,0,0,0-.8-.8H14.035a.8.8,0,0,0-.8.8V45.932h-1.6V33.9a.8.8,0,0,0-.8-.8H7.616a.8.8,0,0,0-.8.8V45.932h-1.6v1.6H26.071v.8a2.414,2.414,0,0,0,.137.8ZM26.071,25.873a.8.8,0,1,1,.8.8A.8.8,0,0,1,26.071,25.873Zm-3.209,4.814a.8.8,0,1,1-.8.8A.8.8,0,0,1,22.861,30.687Zm-8.024-6.419a.8.8,0,1,1,.8-.8A.8.8,0,0,1,14.838,24.268ZM32.49,36.3v1.6h1.6V36.3h1.6v1.6h1.6V36.3h1.6v1.6h1.6V36.3h1.6v1.6h1.6V36.3h.8a.8.8,0,0,1,.8.8v1.6a.8.8,0,0,1-.8.8H28.478a.8.8,0,0,1-.8-.8v-1.6a.8.8,0,0,1,.8-.8h.8v1.6h1.6V36.3Zm-9.628,9.628h-1.6V37.106h1.6Zm-6.419,0h-1.6V31.49h1.6Zm-6.419,0h-1.6V34.7h1.6Zm35.3,2.407a.8.8,0,0,1-.8.8H28.478a.8.8,0,0,1-.8-.8v-1.6a.8.8,0,0,1,.8-.8h.8v1.6h1.6v-1.6h1.6v1.6h1.6v-1.6h1.6v1.6h1.6v-1.6h1.6v1.6h1.6v-1.6h1.6v1.6h1.6v-1.6h.8a.8.8,0,0,1,.8.8Zm1.6-7.221a.8.8,0,0,1,.8.8v1.6a.8.8,0,0,1-.8.8H30.885a.8.8,0,0,1-.8-.8v-1.6a.8.8,0,0,1,.8-.8h.8v1.6h1.6v-1.6h1.6v1.6h1.6v-1.6h1.6v1.6h1.6v-1.6h1.6v1.6h1.6v-1.6h1.6v1.6h1.6v-1.6Zm1.6-8.826v1.6a.8.8,0,0,1-.8.8H31.687a.8.8,0,0,1-.8-.8v-1.6a.8.8,0,0,1,.8-.8h.8v1.6h1.6v-1.6h1.6v1.6h1.6v-1.6h1.6v1.6h1.6v-1.6h1.6v1.6h1.6v-1.6h1.6v1.6h1.6v-1.6h.8A.8.8,0,0,1,48.537,32.292Zm-1.6-9.628a7.229,7.229,0,0,1-6.419,7.174V28.166a3.2,3.2,0,0,0-.8-6.3,1.6,1.6,0,1,1,1.6-1.6h1.6a3.209,3.209,0,0,0-2.407-3.1V15.49a7.229,7.229,0,0,1,6.419,7.174Z"/>
      <path id="Trazado_1241617" data-name="Trazado 1241617" d="M8.407,16.221a.8.8,0,0,1-.8-.8H6a2.407,2.407,0,0,0,1.6,2.259v.95h1.6v-.95a2.4,2.4,0,0,0-.8-4.667.8.8,0,1,1,.8-.8h1.6a2.407,2.407,0,0,0-1.6-2.259V9H7.6v.95a2.4,2.4,0,0,0,.8,4.667.8.8,0,1,1,0,1.6Z" transform="translate(-0.791 -1.581)"/>
      <path id="Trazado_1241618" data-name="Trazado 1241618" d="M19,9H30.233v1.6H19Z" transform="translate(-3.36 -1.581)"/>
      <path id="Trazado_1241619" data-name="Trazado 1241619" d="M14,13H29.245v1.6H14Z" transform="translate(-2.372 -2.372)"/>
      <path id="Trazado_1241620" data-name="Trazado 1241620" d="M14,17H29.245v1.6H14Z" transform="translate(-2.372 -3.162)"/>
      <path id="Trazado_1241621" data-name="Trazado 1241621" d="M14,21H30.849v1.6H14Z" transform="translate(-2.372 -3.953)"/>
    </g>
  </g>
</svg>
