<svg xmlns="http://www.w3.org/2000/svg" xmlns:xlink="http://www.w3.org/1999/xlink" width="124.943" height="111.726" viewBox="0 0 124.943 111.726">
  <defs>
    <filter id="Elipse_12607" x="54.072" y="40.855" width="70.871" height="70.871" filterUnits="userSpaceOnUse">
      <feOffset dy="3" input="SourceAlpha"/>
      <feGaussianBlur stdDeviation="3" result="blur"/>
      <feFlood flood-opacity="0.161"/>
      <feComposite operator="in" in2="blur"/>
      <feComposite in="SourceGraphic"/>
    </filter>
    <filter id="Elipse_12608" x="0" y="0" width="56.451" height="56.452" filterUnits="userSpaceOnUse">
      <feOffset dy="3" input="SourceAlpha"/>
      <feGaussianBlur stdDeviation="3" result="blur-2"/>
      <feFlood flood-opacity="0.161"/>
      <feComposite operator="in" in2="blur-2"/>
      <feComposite in="SourceGraphic"/>
    </filter>
  </defs>
  <g id="Grupo_1203857" data-name="Grupo 1203857" transform="translate(-391.116 -1768.234)">
    <g id="Grupo_1203856" data-name="Grupo 1203856">
      <g id="Grupo_1203814" data-name="Grupo 1203814" transform="translate(-399.884 -775)">
        <g id="Grupo_1203357" data-name="Grupo 1203357" transform="translate(800 2549.234)">
          <g transform="matrix(1, 0, 0, 1, -9, -6)" filter="url(#Elipse_12607)">
            <circle id="Elipse_12607-2" data-name="Elipse 12607" cx="26.435" cy="26.435" r="26.435" transform="translate(63.07 46.85)" fill="#ff9800"/>
          </g>
          <g transform="matrix(1, 0, 0, 1, -9, -6)" filter="url(#Elipse_12608)">
            <circle id="Elipse_12608-2" data-name="Elipse 12608" cx="19.226" cy="19.226" r="19.226" transform="translate(9 6)" fill="#ff9800"/>
          </g>
        </g>
      </g>
      <g id="_07-Asset" data-name="07-Asset" transform="translate(413.228 1780.686)">
        <path id="Trazado_1262252" data-name="Trazado 1262252" d="M61.706,22.765V34.235H25V22.765L43.353,9Z" transform="translate(3.382 1.029)" fill="#e0e0e0"/>
        <path id="Trazado_1262253" data-name="Trazado 1262253" d="M61.706,22.765V34.235H55.97V22.765L43.353,13.3,25,27.066v-4.3L43.353,9Z" transform="translate(3.382 1.029)" fill="#bdbdbd"/>
        <path id="Trazado_1262254" data-name="Trazado 1262254" d="M3,21V62.294c0,2.534,4.622,4.588,10.323,4.588s10.323-2.054,10.323-4.588V21Z" transform="translate(0.147 2.794)" fill="#ffd54f"/>
        <path id="Trazado_1262255" data-name="Trazado 1262255" d="M21.735,21V62.294c0,1.8-2.34,3.361-5.735,4.106V21Z" transform="translate(2.059 2.794)" fill="#ffca28"/>
        <path id="Trazado_1262256" data-name="Trazado 1262256" d="M23.647,27v6.882c0,2.535-4.623,4.588-10.323,4.588S3,36.417,3,33.882V27c0,2.535,4.623,4.588,10.323,4.588S23.647,29.535,23.647,27Z" transform="translate(0.147 3.676)" fill="#ffb74d"/>
        <path id="Trazado_1262257" data-name="Trazado 1262257" d="M23.647,39v6.882c0,2.535-4.623,4.588-10.323,4.588S3,48.417,3,45.882V39c0,2.535,4.623,4.588,10.323,4.588S23.647,41.535,23.647,39Z" transform="translate(0.147 5.441)" fill="#ffb74d"/>
        <path id="Trazado_1262258" data-name="Trazado 1262258" d="M21.735,27v6.882c0,1.8-2.34,3.361-5.735,4.106V31.106C19.4,30.361,21.735,28.8,21.735,27Z" transform="translate(2.059 3.676)" fill="#ffa726"/>
        <path id="Trazado_1262259" data-name="Trazado 1262259" d="M21.735,39v6.882c0,1.8-2.34,3.361-5.735,4.106V43.106C19.4,42.361,21.735,40.8,21.735,39Z" transform="translate(2.059 5.441)" fill="#ffa726"/>
        <path id="Trazado_1262260" data-name="Trazado 1262260" d="M23.647,51v6.882c0,2.535-4.623,4.588-10.323,4.588S3,60.417,3,57.882V51c0,2.535,4.623,4.588,10.323,4.588S23.647,53.535,23.647,51Z" transform="translate(0.147 7.205)" fill="#ffb74d"/>
        <path id="Trazado_1262261" data-name="Trazado 1262261" d="M23.647,51v6.882c0,2.535-4.623,4.588-10.323,4.588S3,60.417,3,57.882V54.441c0,2.535,4.623,4.588,10.323,4.588q.723,0,1.422-.044a3.419,3.419,0,0,0,3.167-3.435v-.445C21.307,54.361,23.647,52.8,23.647,51Z" transform="translate(0.147 7.205)" fill="#ffa726"/>
        <ellipse id="Elipse_12649" data-name="Elipse 12649" cx="10.5" cy="5" rx="10.5" ry="5" transform="translate(2.823 18.822)" fill="#ffb74d"/>
        <path id="Trazado_1262262" data-name="Trazado 1262262" d="M43.941,3,21,20.206v6.882L43.941,9.882,66.882,27.088V20.206Z" transform="translate(2.794 0.147)" fill="#ef5350"/>
        <rect id="Rectángulo_411249" data-name="Rectángulo 411249" width="51" height="30" rx="4" transform="translate(18.823 39.822)" fill="#4caf50"/>
        <rect id="Rectángulo_411250" data-name="Rectángulo 411250" width="51" height="30" rx="4" transform="translate(18.823 34.822)" fill="#81c784"/>
        <path id="Trazado_1262263" data-name="Trazado 1262263" d="M67.47,35.588V56.235a4.587,4.587,0,0,1-4.588,4.588H21.588A4.587,4.587,0,0,1,17,56.235v-.413a4.57,4.57,0,0,0,3.441,1.56h39a4.587,4.587,0,0,0,4.588-4.588V34.441A4.57,4.57,0,0,0,62.469,31h.413a4.587,4.587,0,0,1,4.588,4.588Z" transform="translate(2.206 4.264)" fill="#66bb6a"/>
        <path id="Trazado_1262264" data-name="Trazado 1262264" d="M62.294,39.588v11.47a4.587,4.587,0,0,0-4.588,4.588H25.588A4.587,4.587,0,0,0,21,51.059V39.588A4.587,4.587,0,0,0,25.588,35H57.706a4.587,4.587,0,0,0,4.588,4.588Z" transform="translate(2.794 4.853)" fill="#a5d6a7"/>
        <rect id="Rectángulo_411251" data-name="Rectángulo 411251" width="16" height="35" transform="translate(36.823 34.822)" fill="#eee"/>
        <path id="Trazado_1262265" data-name="Trazado 1262265" d="M48.059,31V65.411H32V60.823h5.735a4.588,4.588,0,0,0,4.588-4.588V31Z" transform="translate(4.412 4.264)" fill="#e0e0e0"/>
        <path id="Trazado_1262266" data-name="Trazado 1262266" d="M43.294,48.963A4.009,4.009,0,0,0,41,45.351v7.207A3.984,3.984,0,0,0,43.294,48.963Z" transform="translate(5.735 6.375)" fill="#ffa726"/>
        <path id="Trazado_1262267" data-name="Trazado 1262267" d="M42.147,40H41v2.294h1.147a1.147,1.147,0,1,0,0-2.294Z" transform="translate(5.735 5.588)" fill="#ffa726"/>
        <circle id="Elipse_12650" data-name="Elipse 12650" cx="5" cy="5" r="5" transform="translate(41.823 18.822)" fill="#757575"/>
        <path id="Trazado_1262268" data-name="Trazado 1262268" d="M39.5,25.832a4.308,4.308,0,0,0,1.721.344,4.588,4.588,0,0,0,0-9.176,4.308,4.308,0,0,0-1.721.344,4.574,4.574,0,0,1,0,8.488Z" transform="translate(5.514 2.206)" fill="#616161"/>
        <path id="Trazado_1262269" data-name="Trazado 1262269" d="M13.47,36.411a22.536,22.536,0,0,0,2.6-.146,1.147,1.147,0,1,0-.264-2.279,20.358,20.358,0,0,1-2.334.13c-5.6,0-9.176-2.038-9.176-3.441V27.309a17.136,17.136,0,0,0,9.176,2.22,17.136,17.136,0,0,0,9.176-2.22v3.367a1.147,1.147,0,0,0,2.294,0V23.794c0-3.27-4.931-5.735-11.47-5.735S2,20.524,2,23.794V65.088c0,3.27,4.931,5.735,11.47,5.735A24.332,24.332,0,0,0,15.9,70.7a1.147,1.147,0,0,0-.232-2.283,21.726,21.726,0,0,1-2.2.114c-5.6,0-9.176-2.038-9.176-3.441V61.721a17.136,17.136,0,0,0,9.176,2.22c.413,0,.814-.011,1.216-.036a1.147,1.147,0,1,0-.139-2.29c-.356.021-.711.032-1.078.032-5.6,0-9.176-2.038-9.176-3.441V54.838a17.136,17.136,0,0,0,9.178,2.22c.413,0,.814-.011,1.216-.036a1.147,1.147,0,1,0-.139-2.29c-.356.021-.711.032-1.078.032-5.6,0-9.176-2.038-9.176-3.441V47.956a17.136,17.136,0,0,0,9.178,2.22c.413,0,.814-.011,1.216-.036a1.147,1.147,0,1,0-.139-2.29c-.356.021-.711.032-1.078.032-5.6,0-9.176-2.038-9.176-3.441V41.074a17.136,17.136,0,0,0,9.178,2.22c.413,0,.814-.011,1.216-.036a1.147,1.147,0,1,0-.139-2.29c-.356.021-.711.032-1.078.032-5.6,0-9.176-2.038-9.176-3.441V34.191a17.136,17.136,0,0,0,9.178,2.22Zm0-16.059c5.6,0,9.176,2.038,9.176,3.441s-3.575,3.441-9.176,3.441S4.294,25.2,4.294,23.794,7.869,20.353,13.47,20.353ZM65.088,34.117H23.794a5.742,5.742,0,0,0-5.735,5.735V65.088a5.742,5.742,0,0,0,5.735,5.735H65.088a5.742,5.742,0,0,0,5.735-5.735V39.853a5.742,5.742,0,0,0-5.735-5.735ZM53.617,41h5.851a5.752,5.752,0,0,0,4.473,4.473V54.88a5.752,5.752,0,0,0-4.473,4.473H53.617ZM35.264,68.529H23.794a3.445,3.445,0,0,1-3.441-3.441v-.029a5.679,5.679,0,0,0,3.441,1.176h11.47Zm0-9.176H29.414a5.752,5.752,0,0,0-4.473-4.473V45.472A5.752,5.752,0,0,0,29.414,41h5.851Zm0-20.647H28.382a1.147,1.147,0,0,0-1.147,1.147,3.445,3.445,0,0,1-3.441,3.441,1.147,1.147,0,0,0-1.147,1.147v11.47a1.147,1.147,0,0,0,1.147,1.147A3.445,3.445,0,0,1,27.235,60.5a1.147,1.147,0,0,0,1.147,1.147h6.882v2.294H23.794A3.445,3.445,0,0,1,20.353,60.5V39.853a3.445,3.445,0,0,1,3.441-3.441h11.47ZM51.323,68.529H37.559V36.411H51.323Zm17.206-3.441a3.445,3.445,0,0,1-3.441,3.441H53.617V66.235H65.088a5.68,5.68,0,0,0,3.441-1.176Zm0-4.588a3.445,3.445,0,0,1-3.441,3.441H53.617V61.647H60.5A1.147,1.147,0,0,0,61.647,60.5a3.445,3.445,0,0,1,3.441-3.441,1.147,1.147,0,0,0,1.147-1.147V44.441a1.147,1.147,0,0,0-1.147-1.147,3.445,3.445,0,0,1-3.441-3.441A1.147,1.147,0,0,0,60.5,38.706H53.617V36.411H65.088a3.445,3.445,0,0,1,3.441,3.441ZM46.735,55.338a1.723,1.723,0,0,0-1.721-1.721H43.867a4.006,4.006,0,0,1-.574-7.971v-1.2a1.147,1.147,0,0,1,2.294,0v1.147h2.294a1.147,1.147,0,1,1,0,2.294H43.867a1.721,1.721,0,1,0,0,3.441h1.147a4.006,4.006,0,0,1,.574,7.972v1.2a1.147,1.147,0,1,1-2.294,0V59.352H41a1.147,1.147,0,0,1,0-2.294h4.015a1.723,1.723,0,0,0,1.721-1.721ZM52.47,23.794a5.735,5.735,0,1,0-5.735,5.735A5.735,5.735,0,0,0,52.47,23.794Zm-9.176,0a3.441,3.441,0,1,1,3.441,3.441,3.441,3.441,0,0,1-3.441-3.441Zm27.529-3.441v6.882a1.147,1.147,0,0,1-1.835.918l-2.753-2.065v4.588a1.147,1.147,0,0,1-2.294,0V24.367l-17.206-12.9-17.206,12.9v6.309a1.147,1.147,0,0,1-2.294,0V23.794a1.145,1.145,0,0,1,.459-.918L46.047,9.112a1.148,1.148,0,0,1,1.376,0L68.529,24.941V20.926L46.735,4.581,26.777,19.55A1.147,1.147,0,0,1,25.4,17.715L46.047,2.229a1.148,1.148,0,0,1,1.376,0L70.365,19.435a1.145,1.145,0,0,1,.458.918Z" transform="translate(0 0)"/>
      </g>
    </g>
  </g>
</svg>
