<svg xmlns="http://www.w3.org/2000/svg" xmlns:xlink="http://www.w3.org/1999/xlink" width="124.943" height="111.726" viewBox="0 0 124.943 111.726">
  <defs>
    <filter id="Elipse_12607" x="54.072" y="40.855" width="70.871" height="70.871" filterUnits="userSpaceOnUse">
      <feOffset dy="3" input="SourceAlpha"/>
      <feGaussianBlur stdDeviation="3" result="blur"/>
      <feFlood flood-opacity="0.161"/>
      <feComposite operator="in" in2="blur"/>
      <feComposite in="SourceGraphic"/>
    </filter>
    <filter id="Elipse_12608" x="0" y="0" width="56.451" height="56.451" filterUnits="userSpaceOnUse">
      <feOffset dy="3" input="SourceAlpha"/>
      <feGaussianBlur stdDeviation="3" result="blur-2"/>
      <feFlood flood-opacity="0.161"/>
      <feComposite operator="in" in2="blur-2"/>
      <feComposite in="SourceGraphic"/>
    </filter>
  </defs>
  <g id="Grupo_1203987" data-name="Grupo 1203987" transform="translate(-320.201 -3549.034)">
    <g id="Grupo_1203410" data-name="Grupo 1203410" transform="translate(0.219 -310.188)">
      <g id="Grupo_1203357" data-name="Grupo 1203357" transform="translate(328.982 3865.222)">
        <g transform="matrix(1, 0, 0, 1, -9, -6)" filter="url(#Elipse_12607)">
          <circle id="Elipse_12607-2" data-name="Elipse 12607" cx="26.435" cy="26.435" r="26.435" transform="translate(63.07 46.85)" fill="#ff9800"/>
        </g>
        <g transform="matrix(1, 0, 0, 1, -9, -6)" filter="url(#Elipse_12608)">
          <circle id="Elipse_12608-2" data-name="Elipse 12608" cx="19.226" cy="19.226" r="19.226" transform="translate(9 6)" fill="#ff9800"/>
        </g>
      </g>
    </g>
    <g id="activo-fijo" transform="translate(343.458 3565.458)">
      <g id="Grupo_1203985" data-name="Grupo 1203985" transform="translate(2.17 2.17)">
        <g id="Grupo_1203968" data-name="Grupo 1203968" transform="translate(32.761)">
          <ellipse id="Elipse_12668" data-name="Elipse 12668" cx="19" cy="18.5" rx="19" ry="18.5" transform="translate(-0.389 0.372)" fill="#e6e9ed"/>
        </g>
        <g id="Grupo_1203969" data-name="Grupo 1203969" transform="translate(32.761 32.761)">
          <circle id="Elipse_12669" data-name="Elipse 12669" cx="19" cy="19" r="19" transform="translate(-0.389 -0.389)" fill="#e6e9ed"/>
        </g>
        <g id="Grupo_1203970" data-name="Grupo 1203970" transform="translate(0 32.761)">
          <ellipse id="Elipse_12670" data-name="Elipse 12670" cx="18.5" cy="19" rx="18.5" ry="19" transform="translate(0.372 -0.389)" fill="#e6e9ed"/>
        </g>
        <g id="Grupo_1203971" data-name="Grupo 1203971" transform="translate(0)">
          <circle id="Elipse_12671" data-name="Elipse 12671" cx="18.5" cy="18.5" r="18.5" transform="translate(0.372 0.372)" fill="#e6e9ed"/>
        </g>
        <g id="Grupo_1203972" data-name="Grupo 1203972" transform="translate(49.141 58.501)">
          <path id="Trazado_1262508" data-name="Trazado 1262508" d="M44,52h7.02v4.68H44Z" transform="translate(-44 -52)" fill="#aab2bd"/>
        </g>
        <g id="Grupo_1203973" data-name="Grupo 1203973" transform="translate(42.121 53.821)">
          <path id="Trazado_1262509" data-name="Trazado 1262509" d="M59.06,48v3.51a1.173,1.173,0,0,1-1.17,1.17H39.17A1.173,1.173,0,0,1,38,51.51V48Z" transform="translate(-38 -48)" fill="#ccd1d9"/>
        </g>
        <g id="Grupo_1203974" data-name="Grupo 1203974" transform="translate(42.121 42.121)">
          <path id="Trazado_1262510" data-name="Trazado 1262510" d="M59.06,39.17V49.7H38V40.34A11.671,11.671,0,0,0,40.34,38H57.89A1.173,1.173,0,0,1,59.06,39.17Z" transform="translate(-38 -38)" fill="#69d6f4"/>
        </g>
        <g id="Grupo_1203975" data-name="Grupo 1203975" transform="translate(4.68 42.121)">
          <path id="Trazado_1262511" data-name="Trazado 1262511" d="M24.72,38v4.68H6V38Z" transform="translate(-6 -38)" fill="#dfb28b"/>
        </g>
        <g id="Grupo_1203976" data-name="Grupo 1203976" transform="translate(7.02 46.801)">
          <path id="Trazado_1262512" data-name="Trazado 1262512" d="M17.36,51.36v9.36H8V42H22.04v9.36Z" transform="translate(-8 -42)" fill="#ecc19c"/>
        </g>
        <g id="Grupo_1203977" data-name="Grupo 1203977" transform="translate(16.38 56.161)">
          <path id="Trazado_1262513" data-name="Trazado 1262513" d="M20.68,50h9.36v9.36H16V50Z" transform="translate(-16 -50)" fill="#ffeaa7"/>
        </g>
        <g id="Grupo_1203978" data-name="Grupo 1203978" transform="translate(37.441 9.36)">
          <path id="Trazado_1262514" data-name="Trazado 1262514" d="M62.081,17.98V21.7a2.347,2.347,0,0,1-2.34,2.34H57.4a2.34,2.34,0,0,0-4.68,0H43.36a2.34,2.34,0,1,0-4.68,0H36.34A2.347,2.347,0,0,1,34,21.7V17.98a1.167,1.167,0,0,1,.936-1.147l4.914-.983.8-3.966A2.341,2.341,0,0,1,42.939,10h10.2a2.341,2.341,0,0,1,2.293,1.884l.8,3.966,4.914.983A1.167,1.167,0,0,1,62.081,17.98Z" transform="translate(-34 -10)" fill="#b4dd7f"/>
        </g>
        <g id="Grupo_1203979" data-name="Grupo 1203979" transform="translate(56.161 21.06)">
          <circle id="Elipse_12672" data-name="Elipse 12672" cx="2" cy="2" r="2" transform="translate(0.21 0.311)" fill="#969faa"/>
        </g>
        <g id="Grupo_1203980" data-name="Grupo 1203980" transform="translate(42.121 21.06)">
          <circle id="Elipse_12673" data-name="Elipse 12673" cx="2" cy="2" r="2" transform="translate(0.25 0.311)" fill="#969faa"/>
        </g>
        <g id="Grupo_1203981" data-name="Grupo 1203981" transform="translate(11.7 16.38)">
          <path id="Trazado_1262515" data-name="Trazado 1262515" d="M26.04,16V26.53a1.173,1.173,0,0,1-1.17,1.17H21.36V20.68H16.68V27.7H13.17A1.173,1.173,0,0,1,12,26.53V16Z" transform="translate(-12 -16)" fill="#dfb28b"/>
        </g>
        <g id="Grupo_1203982" data-name="Grupo 1203982" transform="translate(9.36 7.02)">
          <path id="Trazado_1262516" data-name="Trazado 1262516" d="M28.159,14.54a1.579,1.579,0,0,1,.562,1.217,1.6,1.6,0,0,1-1.6,1.6H11.6a1.6,1.6,0,0,1-1.6-1.6,1.579,1.579,0,0,1,.562-1.217L17.3,8.761a3.168,3.168,0,0,1,4.118,0Z" transform="translate(-10 -8)" fill="#ef7385"/>
        </g>
        <g id="Grupo_1203983" data-name="Grupo 1203983" transform="translate(16.38 21.06)">
          <path id="Trazado_1262517" data-name="Trazado 1262517" d="M16,20h4.68v7.02H16Z" transform="translate(-16 -20)" fill="#aab2bd"/>
        </g>
        <g id="Grupo_1203984" data-name="Grupo 1203984" transform="translate(23.4 23.4)">
          <path id="Trazado_1262518" data-name="Trazado 1262518" d="M45.272,31.98A11.9,11.9,0,0,1,45.4,33.7a11.7,11.7,0,0,1-9.98,11.572,11.9,11.9,0,0,1-1.72.129,11.71,11.71,0,0,1-11.572-9.98A11.9,11.9,0,0,1,22,33.7a11.7,11.7,0,0,1,9.98-11.572A11.9,11.9,0,0,1,33.7,22,11.7,11.7,0,0,1,45.272,31.98Z" transform="translate(-22 -22)" fill="#fcd770"/>
        </g>
      </g>
      <g id="Grupo_1203986" data-name="Grupo 1203986" transform="translate(1 1)">
        <path id="Trazado_1262519" data-name="Trazado 1262519" d="M33.68,27.555V25H31.34v2.34H29v3.51a3.514,3.514,0,0,0,3.51,3.51,1.17,1.17,0,0,1,1.17,1.17V36.7H32.51a1.17,1.17,0,0,1-1.17-1.17V34.36H29v1.17a3.505,3.505,0,0,0,2.34,3.295V41.38h2.34V39.04h2.34V35.53a3.514,3.514,0,0,0-3.51-3.51,1.17,1.17,0,0,1-1.17-1.17V29.68h1.17a1.17,1.17,0,0,1,1.17,1.17v1.17h2.34V30.85A3.505,3.505,0,0,0,33.68,27.555Z" transform="translate(3.761 3.081)"/>
        <path id="Trazado_1262520" data-name="Trazado 1262520" d="M64.914,37.274A19.882,19.882,0,1,0,37.273,9.629,19.881,19.881,0,1,0,9.628,37.267,19.882,19.882,0,1,0,37.267,64.914,19.882,19.882,0,1,0,64.914,37.274ZM53.651,3.34a17.545,17.545,0,0,1,9.012,32.6,19.729,19.729,0,0,0-9.012-2.182,20.012,20.012,0,0,0-3.909.386,12.835,12.835,0,0,0-2.6-5.118,3.5,3.5,0,0,0,2.781-2.289h7.452a3.49,3.49,0,0,0,6.59,0h1.384a3.514,3.514,0,0,0,3.51-3.51V19.509a2.349,2.349,0,0,0-1.88-2.294l-4.145-.828-.641-3.2a3.519,3.519,0,0,0-3.442-2.822H48.55a3.517,3.517,0,0,0-3.441,2.821l-.642,3.2-4.147.828a2.349,2.349,0,0,0-1.879,2.294V23.23a3.484,3.484,0,0,0,.241,1.252,12.781,12.781,0,0,0-1.411-.082c-.273,0-.538.025-.806.041A17.546,17.546,0,0,1,53.651,3.34Zm-1.17,60.841v-2.34h4.68v2.34Zm-7.02-4.68v-2.34h18.72V59.5Zm-8.19-11.7A10.53,10.53,0,1,1,47.8,37.271,10.542,10.542,0,0,1,37.271,47.8ZM22.06,29.081H19.72V24.4h2.34Zm-4.68-7.02v7.02H15.04V19.72h11.7v9.36H24.4V22.06Zm11.267-4.68H13.133a.433.433,0,0,1-.282-.762L19.6,10.84a1.992,1.992,0,0,1,2.592,0l6.742,5.779a.433.433,0,0,1-.281.763ZM63.966,24.4a3.49,3.49,0,0,0-6.59,0H49.925a3.49,3.49,0,0,0-6.59,0H41.951a1.17,1.17,0,0,1-1.17-1.17V19.509l5.675-1.135.948-4.735A1.171,1.171,0,0,1,48.55,12.7h10.2a1.17,1.17,0,0,1,1.147.941l.948,4.734,5.675,1.135V23.23a1.17,1.17,0,0,1-1.17,1.17Zm-2.125,1.17a1.17,1.17,0,1,1-1.17-1.17A1.17,1.17,0,0,1,61.841,25.571Zm-16.38,0a1.17,1.17,0,1,1,1.17,1.17A1.17,1.17,0,0,1,45.461,25.571Zm18.72,29.251H45.461v-7.63a13,13,0,0,0,1.73-1.73h16.99ZM3.34,20.89a17.545,17.545,0,0,1,32.6-9.012,19.746,19.746,0,0,0-2.181,9.012,20.012,20.012,0,0,0,.386,3.909,12.838,12.838,0,0,0-5.066,2.551V19.676a2.765,2.765,0,0,0,1.371-4.835L23.71,9.064a4.442,4.442,0,0,0-5.638,0l-6.744,5.779A2.766,2.766,0,0,0,12.7,19.677v9.4a2.342,2.342,0,0,0,2.34,2.34H25.821a12.786,12.786,0,0,0-1.42,5.85c0,.273.025.538.041.806A17.546,17.546,0,0,1,3.34,20.89ZM11.879,38.6a19.729,19.729,0,0,0,9.012,2.182,20.012,20.012,0,0,0,3.909-.386,12.8,12.8,0,0,0,1.021,2.726H6.862A17.58,17.58,0,0,1,11.879,38.6ZM31.421,66.521H19.72V59.5h11.7Zm-14.04-9.36v9.36H10.36V50.141h11.7v7.02ZM8.02,47.8v-2.34H24.4V47.8Zm-4.68,5.85A17.526,17.526,0,0,1,5.68,44.91v5.231H8.02v15.4A17.467,17.467,0,0,1,3.34,53.651Zm8.831,15.21H29.608a17.411,17.411,0,0,1-17.437,0Zm21.589-3.318V57.161H24.4v-7.02h2.34V44.648a12.858,12.858,0,0,0,10.53,5.493c.273,0,.538-.025.806-.041a17.65,17.65,0,0,1,.364,3.551A17.467,17.467,0,0,1,33.761,65.543ZM53.651,71.2A17.568,17.568,0,0,1,38.6,62.663a19.729,19.729,0,0,0,2.182-9.012,20.012,20.012,0,0,0-.386-3.909,12.8,12.8,0,0,0,2.726-1.021V59.5a2.342,2.342,0,0,0,2.34,2.34h4.68v2.34H47.8v2.34h14.04v-2.34H59.5v-2.34h4.68a2.342,2.342,0,0,0,2.34-2.34V45.461a2.342,2.342,0,0,0-2.34-2.34H48.721a12.786,12.786,0,0,0,1.42-5.85c0-.273-.025-.538-.041-.806A17.55,17.55,0,1,1,53.651,71.2Z" transform="translate(-1 -1)"/>
        <path id="Trazado_1262521" data-name="Trazado 1262521" d="M19,53h2.34v2.34H19Z" transform="translate(2.06 7.841)"/>
        <path id="Trazado_1262522" data-name="Trazado 1262522" d="M11,53h2.34v2.34H11Z" transform="translate(0.7 7.841)"/>
        <path id="Trazado_1262523" data-name="Trazado 1262523" d="M11,49h2.34v2.34H11Z" transform="translate(0.7 7.161)"/>
        <path id="Trazado_1262524" data-name="Trazado 1262524" d="M11,45h2.34v2.34H11Z" transform="translate(0.7 6.481)"/>
        <path id="Trazado_1262525" data-name="Trazado 1262525" d="M15,45h2.34v2.34H15Z" transform="translate(1.38 6.481)"/>
        <path id="Trazado_1262526" data-name="Trazado 1262526" d="M23,53h2.34v2.34H23Z" transform="translate(2.741 7.841)"/>
      </g>
    </g>
  </g>
</svg>
