<svg xmlns="http://www.w3.org/2000/svg" xmlns:xlink="http://www.w3.org/1999/xlink" width="124.943" height="111.726" viewBox="0 0 124.943 111.726">
  <defs>
    <filter id="Elipse_12607" x="54.072" y="40.854" width="70.871" height="70.871" filterUnits="userSpaceOnUse">
      <feOffset dy="3" input="SourceAlpha"/>
      <feGaussianBlur stdDeviation="3" result="blur"/>
      <feFlood flood-opacity="0.161"/>
      <feComposite operator="in" in2="blur"/>
      <feComposite in="SourceGraphic"/>
    </filter>
    <filter id="Elipse_12608" x="0" y="0" width="56.451" height="56.451" filterUnits="userSpaceOnUse">
      <feOffset dy="3" input="SourceAlpha"/>
      <feGaussianBlur stdDeviation="3" result="blur-2"/>
      <feFlood flood-opacity="0.161"/>
      <feComposite operator="in" in2="blur-2"/>
      <feComposite in="SourceGraphic"/>
    </filter>
  </defs>
  <g id="Grupo_1203878" data-name="Grupo 1203878" transform="translate(578 9810)">
    <g id="Grupo_1203818" data-name="Grupo 1203818" transform="translate(-1369 -12353.234)">
      <g id="Grupo_1203357" data-name="Grupo 1203357" transform="translate(800 2549.234)">
        <g transform="matrix(1, 0, 0, 1, -9, -6)" filter="url(#Elipse_12607)">
          <circle id="Elipse_12607-2" data-name="Elipse 12607" cx="26.435" cy="26.435" r="26.435" transform="translate(63.07 46.85)" fill="#ff9800"/>
        </g>
        <g transform="matrix(1, 0, 0, 1, -9, -6)" filter="url(#Elipse_12608)">
          <circle id="Elipse_12608-2" data-name="Elipse 12608" cx="19.226" cy="19.226" r="19.226" transform="translate(9 6)" fill="#ff9800"/>
        </g>
      </g>
    </g>
    <g id="gasto" transform="translate(-554 -9809.512)">
      <g id="Grupo_1203868" data-name="Grupo 1203868" transform="translate(11.455 70.21)">
        <g id="Grupo_1203866" data-name="Grupo 1203866" transform="translate(46.178)">
          <path id="Trazado_1262317" data-name="Trazado 1262317" d="M394.734,380.8h-1.649v-8.485h-8.049V380.8h-1.649a1.509,1.509,0,0,0-1.092,2.55l5.674,5.955a1.511,1.511,0,0,0,2.185,0l5.674-5.955A1.509,1.509,0,0,0,394.734,380.8Z" transform="translate(-381.874 -372.314)" fill="#fb3a82"/>
          <path id="Trazado_1262318" data-name="Trazado 1262318" d="M402.824,372.315h8.049v4.717h-8.049Z" transform="translate(-399.662 -372.315)" fill="#fb1466"/>
        </g>
        <g id="Grupo_1203867" data-name="Grupo 1203867">
          <path id="Trazado_1262319" data-name="Trazado 1262319" d="M88.759,380.8H87.11v-8.485H79.061V380.8H77.411a1.509,1.509,0,0,0-1.093,2.55l5.674,5.955a1.511,1.511,0,0,0,2.185,0l5.674-5.955A1.509,1.509,0,0,0,88.759,380.8Z" transform="translate(-75.899 -372.314)" fill="#fb3a82"/>
          <path id="Trazado_1262320" data-name="Trazado 1262320" d="M96.85,372.315h8.05v4.717H96.85Z" transform="translate(-93.688 -372.315)" fill="#fb1466"/>
        </g>
      </g>
      <g id="Grupo_1203875" data-name="Grupo 1203875" transform="translate(1.132 17.644)">
        <g id="Grupo_1203873" data-name="Grupo 1203873" transform="translate(6.19 13.624)">
          <g id="Grupo_1203870" data-name="Grupo 1203870">
            <path id="Trazado_1262321" data-name="Trazado 1262321" d="M117.331,115.792v37.621a1.51,1.51,0,0,1-1.509,1.511h-65.8a1.51,1.51,0,0,1-1.509-1.511V115.792a1.51,1.51,0,0,1,1.509-1.509h65.8A1.51,1.51,0,0,1,117.331,115.792Z" transform="translate(-48.514 -114.283)" fill="#a9eddc"/>
            <path id="Trazado_1262322" data-name="Trazado 1262322" d="M74.888,119.346a6.8,6.8,0,0,1-2.636,6.367,6.827,6.827,0,0,1-4.877,4.88,6.855,6.855,0,0,1-2.82,2.178,6.781,6.781,0,0,1-2.609.519,6.7,6.7,0,0,1-.936-.065,6.806,6.806,0,0,1-6.887,0,6.8,6.8,0,0,1-3.543-.454,6.872,6.872,0,0,1-2.064-1.336V115.792a1.51,1.51,0,0,1,1.509-1.509h25.6a6.744,6.744,0,0,1,.2,1.618A6.832,6.832,0,0,1,74.888,119.346Z" transform="translate(-48.514 -114.283)" fill="#64e0c4"/>
            <path id="Trazado_1262323" data-name="Trazado 1262323" d="M470.517,115.794v37.62a1.51,1.51,0,0,1-1.51,1.51h-4.53a1.51,1.51,0,0,0,1.51-1.51v-37.62a1.51,1.51,0,0,0-1.51-1.51h4.53A1.51,1.51,0,0,1,470.517,115.794Z" transform="translate(-401.699 -114.284)" fill="#64e0c4"/>
            <g id="Grupo_1203869" data-name="Grupo 1203869" transform="translate(4.529 4.53)">
              <path id="Trazado_1262324" data-name="Trazado 1262324" d="M138.281,145.055v23.927a.758.758,0,0,1-.679.75,6.188,6.188,0,0,0-5.472,5.47.754.754,0,0,1-.749.678h-52.1a.755.755,0,0,1-.756-.755V151.2a.757.757,0,0,1,.679-.75,6.189,6.189,0,0,0,5.472-5.47.755.755,0,0,1,.749-.679h52.1a.755.755,0,0,1,.756.755Z" transform="translate(-78.521 -144.3)" fill="#27d1b3"/>
              <path id="Trazado_1262325" data-name="Trazado 1262325" d="M100.367,144.832a6.8,6.8,0,0,1-2.636,6.367,6.827,6.827,0,0,1-4.877,4.88,6.855,6.855,0,0,1-2.82,2.178,6.781,6.781,0,0,1-2.609.519,6.706,6.706,0,0,1-.936-.065,6.806,6.806,0,0,1-6.887,0,6.709,6.709,0,0,1-.936.065c-.048,0-.1,0-.143,0V151.2a.757.757,0,0,1,.679-.75,6.189,6.189,0,0,0,5.472-5.47.755.755,0,0,1,.749-.679h15.227C100.562,144.482,100.468,144.658,100.367,144.832Z" transform="translate(-78.522 -144.299)" fill="#20b69f"/>
            </g>
          </g>
          <g id="Grupo_1203872" data-name="Grupo 1203872" transform="translate(9.052 9.252)">
            <circle id="Elipse_12655" data-name="Elipse 12655" cx="9.494" cy="9.494" r="9.494" transform="translate(15.863 1.574)" fill="#c8f2e7"/>
            <g id="Grupo_1203871" data-name="Grupo 1203871">
              <path id="Trazado_1262326" data-name="Trazado 1262326" d="M414.618,180.634h-2.026a1.51,1.51,0,0,1-1.51-1.51V177.1a1.51,1.51,0,0,1,1.51-1.51h2.026a1.51,1.51,0,0,1,1.51,1.51v2.026A1.51,1.51,0,0,1,414.618,180.634Z" transform="translate(-365.415 -175.588)" fill="#c8f2e7"/>
              <path id="Trazado_1262327" data-name="Trazado 1262327" d="M110,288.824h2.026a1.51,1.51,0,0,1,1.51,1.51v2.026a1.51,1.51,0,0,1-1.51,1.51H110a1.51,1.51,0,0,1-1.51-1.51v-2.026a1.51,1.51,0,0,1,1.51-1.51Z" transform="translate(-108.491 -271.734)" fill="#c8f2e7"/>
            </g>
          </g>
        </g>
        <g id="Grupo_1203874" data-name="Grupo 1203874" transform="translate(0 0)">
          <path id="Trazado_1262328" data-name="Trazado 1262328" d="M37.983,39.253a3.8,3.8,0,0,0-1.218-2.789A3.8,3.8,0,0,0,34.63,31.31a3.8,3.8,0,0,0-3.945-3.945,3.8,3.8,0,0,0-5.154-2.135,3.8,3.8,0,0,0-5.579,0A3.8,3.8,0,0,0,14.8,27.365a3.8,3.8,0,0,0-3.945,3.945,3.8,3.8,0,0,0-2.135,5.154,3.8,3.8,0,0,0,0,5.579A3.8,3.8,0,0,0,10.853,47.2,3.8,3.8,0,0,0,14.8,51.142a3.8,3.8,0,0,0,5.154,2.135,3.8,3.8,0,0,0,5.579,0,3.8,3.8,0,0,0,5.154-2.135A3.8,3.8,0,0,0,34.63,47.2a3.8,3.8,0,0,0,2.135-5.154A3.8,3.8,0,0,0,37.983,39.253Z" transform="translate(-7.5 -24.012)" fill="#fcb44d"/>
          <path id="Trazado_1262329" data-name="Trazado 1262329" d="M111.544,42.047a3.8,3.8,0,0,1-2.136,5.154,3.8,3.8,0,0,1-3.945,3.946,3.8,3.8,0,0,1-5.155,2.134,3.8,3.8,0,0,1-4.739.68,3.832,3.832,0,0,0,.837-.68,3.8,3.8,0,0,0,5.155-2.134,3.8,3.8,0,0,0,3.945-3.946,3.8,3.8,0,0,0,2.136-5.154,3.8,3.8,0,0,0,0-5.579,3.8,3.8,0,0,0-2.136-5.154,3.8,3.8,0,0,0-3.945-3.946,3.8,3.8,0,0,0-5.155-2.134,3.827,3.827,0,0,0-.837-.68,3.8,3.8,0,0,1,4.739.68,3.8,3.8,0,0,1,5.155,2.134,3.8,3.8,0,0,1,3.945,3.946,3.8,3.8,0,0,1,2.136,5.154,3.8,3.8,0,0,1,0,5.579Z" transform="translate(-82.278 -24.016)" fill="#fb9927"/>
          <circle id="Elipse_12656" data-name="Elipse 12656" cx="9.791" cy="9.791" r="9.791" transform="translate(5.451 5.451)" fill="#ffeed3"/>
        </g>
      </g>
      <g id="Grupo_1203877" data-name="Grupo 1203877" transform="translate(0 16.512)">
        <path id="Trazado_1262330" data-name="Trazado 1262330" d="M240.1,364.863V353.545h-8.048v11.318H230.4a1.509,1.509,0,0,0-1.092,2.55l5.675,5.954a1.509,1.509,0,0,0,2.185,0l5.675-5.954a1.509,1.509,0,0,0-1.092-2.55Z" transform="translate(-194.341 -302.68)" fill="#fb3a82"/>
        <g id="Grupo_1203876" data-name="Grupo 1203876" transform="translate(0 0)">
          <path id="Trazado_1262331" data-name="Trazado 1262331" d="M74.63,30.135H31.908c-.068-.1-.139-.2-.215-.3a4.932,4.932,0,0,0-2.332-5.631,4.933,4.933,0,0,0-4.31-4.31,4.932,4.932,0,0,0-5.631-2.332,4.932,4.932,0,0,0-6.094,0A4.932,4.932,0,0,0,7.7,19.9a4.933,4.933,0,0,0-4.31,4.309,4.932,4.932,0,0,0-2.332,5.631,4.932,4.932,0,0,0,0,6.094,4.932,4.932,0,0,0,2.332,5.631,4.913,4.913,0,0,0,2.8,3.874c0,.006,0,.011,0,.017V70.4A2.645,2.645,0,0,0,8.831,73.04h4.654v4.524h-.519a2.641,2.641,0,0,0-1.912,4.463l5.675,5.954a2.641,2.641,0,0,0,3.823,0l5.675-5.954a2.641,2.641,0,0,0-1.912-4.463H23.8V73.04H36.574v4.524h-.519a2.641,2.641,0,0,0-1.912,4.463l5.675,5.954a2.641,2.641,0,0,0,3.823,0l5.675-5.954A2.641,2.641,0,0,0,47.4,77.564h-.519V73.04h4.955a1.132,1.132,0,0,0,0-2.264H46.886V68.509H64.71a1.886,1.886,0,0,0,1.875-1.688,5.077,5.077,0,0,1,4.469-4.468,1.886,1.886,0,0,0,1.688-1.875V36.553a1.889,1.889,0,0,0-1.888-1.887H32.412a4.931,4.931,0,0,0,.335-1.781c0-.163-.009-.325-.025-.486H74.629a.379.379,0,0,1,.378.378V70.4a.379.379,0,0,1-.378.378H56.922a1.132,1.132,0,0,0,0,2.264h2.741v4.524h-.519a2.641,2.641,0,0,0-1.912,4.463l5.675,5.954a2.641,2.641,0,0,0,3.823,0l5.675-5.954a2.641,2.641,0,0,0-1.912-4.463h-.519V73.04H74.63A2.645,2.645,0,0,0,77.272,70.4V32.777a2.645,2.645,0,0,0-2.642-2.642ZM4.879,39.768a2.672,2.672,0,0,1-1.5-3.621,1.132,1.132,0,0,0-.259-1.3,2.672,2.672,0,0,1,0-3.92,1.132,1.132,0,0,0,.259-1.3A2.672,2.672,0,0,1,4.879,26a1.132,1.132,0,0,0,.737-1.1,2.672,2.672,0,0,1,2.772-2.772,1.128,1.128,0,0,0,1.1-.737,2.672,2.672,0,0,1,3.621-1.5,1.132,1.132,0,0,0,1.3-.259,2.672,2.672,0,0,1,3.92,0,1.132,1.132,0,0,0,1.3.259,2.672,2.672,0,0,1,3.621,1.5,1.13,1.13,0,0,0,1.1.737A2.672,2.672,0,0,1,27.131,24.9a1.132,1.132,0,0,0,.737,1.1,2.672,2.672,0,0,1,1.5,3.621,1.132,1.132,0,0,0,.259,1.3,2.672,2.672,0,0,1,0,3.92,1.132,1.132,0,0,0-.259,1.3,2.672,2.672,0,0,1-1.5,3.621,1.132,1.132,0,0,0-.737,1.1,2.672,2.672,0,0,1-2.772,2.772,1.127,1.127,0,0,0-1.1.737,2.672,2.672,0,0,1-3.621,1.5,1.132,1.132,0,0,0-1.3.259,2.672,2.672,0,0,1-3.92,0,1.132,1.132,0,0,0-1.3-.259,2.672,2.672,0,0,1-3.622-1.5,1.13,1.13,0,0,0-1.1-.737,2.672,2.672,0,0,1-2.772-2.772,1.131,1.131,0,0,0-.737-1.1ZM22.666,79.827h1.65a.377.377,0,0,1,.273.637l-5.675,5.954a.377.377,0,0,1-.546,0l-5.675-5.954a.377.377,0,0,1,.273-.637h1.65A1.132,1.132,0,0,0,15.749,78.7V73.04h5.785V78.7A1.132,1.132,0,0,0,22.666,79.827Zm24.739,0a.377.377,0,0,1,.273.637L42,86.419a.377.377,0,0,1-.546,0l-5.675-5.954a.377.377,0,0,1,.273-.637h1.651A1.132,1.132,0,0,0,38.838,78.7V68.509h5.785V78.7a1.132,1.132,0,0,0,1.132,1.132ZM70.478,60.147a7.362,7.362,0,0,0-6.1,6.1h-51.4V58.868a1.132,1.132,0,1,0-2.264,0v7.754a1.889,1.889,0,0,0,1.888,1.887H36.574v2.267H8.831a.379.379,0,0,1-.378-.378V46.884a4.935,4.935,0,0,0,1.655,1.128,4.879,4.879,0,0,0,.611.2v5.573a1.132,1.132,0,1,0,2.264,0v-5.5c.115-.023.23-.049.344-.08a4.92,4.92,0,0,0,4.439.852v4.059a1.132,1.132,0,1,0,2.264,0V48.329a4.916,4.916,0,0,0,5.023-2.457,4.932,4.932,0,0,0,4.309-4.309,4.911,4.911,0,0,0,2.5-4.633H70.478ZM68.843,79.827h1.65a.377.377,0,0,1,.273.637l-5.675,5.954a.377.377,0,0,1-.546,0l-5.675-5.954a.377.377,0,0,1,.273-.637h1.65A1.132,1.132,0,0,0,61.927,78.7V73.04h5.785V78.7A1.132,1.132,0,0,0,68.843,79.827Z" transform="translate(0 -16.512)"/>
          <path id="Trazado_1262332" data-name="Trazado 1262332" d="M216.721,199.767A10.626,10.626,0,1,0,206.1,189.14,10.638,10.638,0,0,0,216.721,199.767Zm0-18.989a8.362,8.362,0,1,1-8.363,8.362A8.372,8.372,0,0,1,216.721,180.778Z" transform="translate(-174.991 -154.065)"/>
          <path id="Trazado_1262333" data-name="Trazado 1262333" d="M251.712,214.965h.069v1.457h-1.132a1.132,1.132,0,0,0,0,2.264h1.132v.253a1.132,1.132,0,0,0,2.264,0v-.253h.069a2.992,2.992,0,0,0,0-5.984h-.069v-1.456h1.132a1.132,1.132,0,1,0,0-2.264h-1.132v-.253a1.132,1.132,0,0,0-2.264,0v.253h-.069a2.992,2.992,0,0,0,0,5.984Zm2.4,0a.728.728,0,0,1,0,1.457h-.069v-1.457Zm-2.4-3.72h.069V212.7h-.069a.728.728,0,0,1,0-1.456Z" transform="translate(-211.183 -178.757)"/>
          <path id="Trazado_1262334" data-name="Trazado 1262334" d="M406.225,175.4h2.026a2.645,2.645,0,0,0,2.642-2.642v-2.026a2.645,2.645,0,0,0-2.642-2.642h-2.026a2.645,2.645,0,0,0-2.642,2.642v2.026A2.645,2.645,0,0,0,406.225,175.4Zm-.378-4.668a.379.379,0,0,1,.378-.378h2.026a.379.379,0,0,1,.378.378v2.026a.379.379,0,0,1-.378.378h-2.026a.379.379,0,0,1-.378-.378Z" transform="translate(-342.674 -145.213)"/>
          <path id="Trazado_1262335" data-name="Trazado 1262335" d="M421.432,231.3a1.132,1.132,0,0,0-1.132,1.132v6.9a1.132,1.132,0,1,0,2.264,0v-6.9A1.132,1.132,0,0,0,421.432,231.3Z" transform="translate(-356.868 -198.881)"/>
          <path id="Trazado_1262336" data-name="Trazado 1262336" d="M105.66,281.323h-2.026a2.645,2.645,0,0,0-2.642,2.642v2.026a2.645,2.645,0,0,0,2.642,2.642h2.026a2.645,2.645,0,0,0,2.642-2.642v-2.026A2.645,2.645,0,0,0,105.66,281.323Zm.378,4.668a.379.379,0,0,1-.378.378h-2.026a.379.379,0,0,1-.378-.378v-2.026a.379.379,0,0,1,.378-.378h2.026a.379.379,0,0,1,.378.378Z" transform="translate(-85.75 -241.357)"/>
          <path id="Trazado_1262337" data-name="Trazado 1262337" d="M85.03,102.667a1.132,1.132,0,0,0,.006-2.264h-.021a1.126,1.126,0,0,0-1.124,1.126,1.138,1.138,0,0,0,1.134,1.138Z" transform="translate(-71.23 -87.742)"/>
          <path id="Trazado_1262338" data-name="Trazado 1262338" d="M119.229,136.865a1.132,1.132,0,1,0,0-2.264h-.015a1.126,1.126,0,0,0-1.125,1.132,1.138,1.138,0,0,0,1.139,1.132Z" transform="translate(-100.268 -116.779)"/>
          <path id="Trazado_1262339" data-name="Trazado 1262339" d="M87.938,108.566a1.132,1.132,0,0,0,1.6-.121l4.059-4.724a1.132,1.132,0,0,0-1.717-1.475l-4.059,4.724a1.132,1.132,0,0,0,.121,1.6Z" transform="translate(-74.331 -88.972)"/>
          <path id="Trazado_1262340" data-name="Trazado 1262340" d="M47.039,74.473a10.923,10.923,0,0,0,9.369-16.537A1.132,1.132,0,1,0,54.467,59.1a8.66,8.66,0,1,1-3.232-3.125A1.132,1.132,0,0,0,52.334,54a10.923,10.923,0,1,0-5.3,20.476Z" transform="translate(-30.665 -47.177)"/>
        </g>
      </g>
    </g>
  </g>
</svg>
